Rubik-Black.ufo
<glyph name="exclam" format="1">
  <advance width="330"/>
  <unicode hex="0021"/>
  <outline>
    <contour>
      <point x="78" y="228" type="line" name="hr00" smooth="yes"/>
      <point x="63" y="228"/>
      <point x="51" y="216"/>
      <point x="51" y="201" type="curve" smooth="yes"/>
      <point x="51" y="27" type="line" smooth="yes"/>
      <point x="51" y="12"/>
      <point x="63" y="0"/>
      <point x="78" y="0" type="curve" smooth="yes"/>
      <point x="252" y="0" type="line" smooth="yes"/>
      <point x="267" y="0"/>
      <point x="279" y="12"/>
      <point x="279" y="27" type="curve" smooth="yes"/>
      <point x="279" y="201" type="line" smooth="yes"/>
      <point x="279" y="216"/>
      <point x="267" y="228"/>
      <point x="252" y="228" type="curve" smooth="yes"/>
    </contour>
    <contour>
      <point x="78" y="700" type="line" smooth="yes"/>
      <point x="63" y="700"/>
      <point x="51" y="688"/>
      <point x="51" y="673" type="curve" smooth="yes"/>
      <point x="51" y="295" type="line" smooth="yes"/>
      <point x="51" y="280"/>
      <point x="63" y="268"/>
      <point x="78" y="268" type="curve" smooth="yes"/>
      <point x="252" y="268" type="line" smooth="yes"/>
      <point x="267" y="268"/>
      <point x="279" y="280"/>
      <point x="279" y="295" type="curve" smooth="yes"/>
      <point x="279" y="673" type="line" smooth="yes"/>
      <point x="279" y="688"/>
      <point x="267" y="700"/>
      <point x="252" y="700" type="curve" smooth="yes"/>
    </contour>
  </outline>
</glyph>
<glyph name="numbersign" format="1">
  <advance width="677"/>
  <unicode hex="0023"/>
  <outline>
    <contour>
      <point x="586" y="304" type="curve" name="hr00"/>
      <point x="527" y="304" type="line"/>
      <point x="540" y="390" type="line"/>
      <point x="612" y="390" type="line"/>
      <point x="626" y="390"/>
      <point x="637" y="401"/>
      <point x="637" y="415" type="curve"/>
      <point x="637" y="533" type="line"/>
      <point x="637" y="547"/>
      <point x="626" y="558"/>
      <point x="612" y="558" type="curve"/>
      <point x="565" y="558" type="line"/>
      <point x="576" y="630" type="line"/>
      <point x="576" y="633" type="line"/>
      <point x="576" y="645"/>
      <point x="566" y="655"/>
      <point x="554" y="655" type="curve"/>
      <point x="438" y="655" type="line"/>
      <point x="425" y="655"/>
      <point x="416" y="645"/>
      <point x="414" y="634" type="curve"/>
      <point x="402" y="558" type="line"/>
      <point x="338" y="558" type="line"/>
      <point x="349" y="630" type="line"/>
      <point x="349" y="633" type="line"/>
      <point x="349" y="645"/>
      <point x="339" y="655"/>
      <point x="327" y="655" type="curve"/>
      <point x="211" y="655" type="line"/>
      <point x="198" y="655"/>
      <point x="189" y="645"/>
      <point x="187" y="634" type="curve"/>
      <point x="175" y="558" type="line"/>
      <point x="91" y="558" type="line"/>
      <point x="77" y="558"/>
      <point x="66" y="547"/>
      <point x="66" y="533" type="curve"/>
      <point x="66" y="415" type="line"/>
      <point x="66" y="401"/>
      <point x="77" y="390"/>
      <point x="91" y="390" type="curve"/>
      <point x="150" y="390" type="line"/>
      <point x="137" y="304" type="line"/>
      <point x="65" y="304" type="line"/>
      <point x="51" y="304"/>
      <point x="40" y="293"/>
      <point x="40" y="279" type="curve"/>
      <point x="40" y="161" type="line"/>
      <point x="40" y="147"/>
      <point x="51" y="136"/>
      <point x="65" y="136" type="curve"/>
      <point x="112" y="136" type="line"/>
      <point x="101" y="63" type="line"/>
      <point x="101" y="61" type="line"/>
      <point x="101" y="49"/>
      <point x="111" y="39"/>
      <point x="123" y="39" type="curve"/>
      <point x="239" y="39" type="line"/>
      <point x="252" y="39"/>
      <point x="262" y="48"/>
      <point x="264" y="60" type="curve"/>
      <point x="275" y="136" type="line"/>
      <point x="339" y="136" type="line"/>
      <point x="328" y="63" type="line"/>
      <point x="328" y="61" type="line"/>
      <point x="328" y="49"/>
      <point x="338" y="39"/>
      <point x="350" y="39" type="curve"/>
      <point x="466" y="39" type="line"/>
      <point x="479" y="39"/>
      <point x="489" y="48"/>
      <point x="491" y="60" type="curve"/>
      <point x="502" y="136" type="line"/>
      <point x="586" y="136" type="line"/>
      <point x="600" y="136"/>
      <point x="611" y="147"/>
      <point x="611" y="161" type="curve"/>
      <point x="611" y="279" type="line"/>
      <point x="611" y="293"/>
      <point x="600" y="304"/>
    </contour>
    <contour>
      <point x="313" y="390" type="line"/>
      <point x="377" y="390" type="line"/>
      <point x="364" y="304" type="line"/>
      <point x="300" y="304" type="line"/>
    </contour>
  </outline>
</glyph>
<glyph name="ampersand" format="1">
  <advance width="783"/>
  <unicode hex="0026"/>
  <outline>
    <contour>
      <point x="349" y="710" type="curve" smooth="yes"/>
      <point x="501" y="710"/>
      <point x="577" y="621"/>
      <point x="577" y="529" type="curve" smooth="yes"/>
      <point x="577" y="454"/>
      <point x="533" y="401"/>
      <point x="449" y="352" type="curve"/>
      <point x="524" y="274" type="line"/>
      <point x="524" y="274"/>
      <point x="549" y="300"/>
      <point x="573" y="356" type="curve" smooth="yes"/>
      <point x="575" y="361"/>
      <point x="582" y="366"/>
      <point x="593" y="366" type="curve" smooth="yes"/>
      <point x="744" y="366" type="line" name="hr01" smooth="yes"/>
      <point x="754" y="366"/>
      <point x="762" y="358"/>
      <point x="762" y="348" type="curve" smooth="yes"/>
      <point x="762" y="305"/>
      <point x="684" y="199"/>
      <point x="643" y="155" type="curve"/>
      <point x="762" y="31" type="line" name="hr02" smooth="yes"/>
      <point x="766" y="27"/>
      <point x="768" y="22"/>
      <point x="768" y="17" type="curve" smooth="yes"/>
      <point x="768" y="8"/>
      <point x="760" y="0"/>
      <point x="750" y="0" type="curve" smooth="yes"/>
      <point x="546" y="0" type="line" smooth="yes"/>
      <point x="532" y="0"/>
      <point x="526" y="6"/>
      <point x="521" y="10" type="curve" name="hr03" smooth="yes"/>
      <point x="494" y="34" type="line" name="hr04"/>
      <point x="437" y="-3"/>
      <point x="379" y="-10"/>
      <point x="311" y="-10" type="curve" smooth="yes"/>
      <point x="139" y="-10"/>
      <point x="34" y="64"/>
      <point x="34" y="201" type="curve" smooth="yes"/>
      <point x="34" y="282"/>
      <point x="78" y="343"/>
      <point x="164" y="391" type="curve" name="hr05"/>
      <point x="122" y="436"/>
      <point x="105" y="482"/>
      <point x="105" y="524" type="curve" smooth="yes"/>
      <point x="105" y="621"/>
      <point x="178" y="710"/>
    </contour>
    <contour>
      <point x="311" y="157" type="curve" smooth="yes"/>
      <point x="337" y="157"/>
      <point x="356" y="160"/>
      <point x="371" y="169" type="curve"/>
      <point x="283" y="260" type="line"/>
      <point x="266" y="252"/>
      <point x="252" y="232"/>
      <point x="252" y="212" type="curve" smooth="yes"/>
      <point x="252" y="180"/>
      <point x="283" y="157"/>
    </contour>
    <contour>
      <point x="348" y="557" type="curve" smooth="yes"/>
      <point x="329" y="557"/>
      <point x="311" y="542"/>
      <point x="311" y="520" type="curve" smooth="yes"/>
      <point x="311" y="506"/>
      <point x="321" y="488"/>
      <point x="338" y="472" type="curve"/>
      <point x="367" y="485"/>
      <point x="385" y="500"/>
      <point x="385" y="521" type="curve" smooth="yes"/>
      <point x="385" y="542"/>
      <point x="370" y="557"/>
    </contour>
  </outline>
</glyph>
<glyph name="quotesingle" format="1">
  <advance width="264"/>
  <unicode hex="0027"/>
  <outline>
    <contour>
      <point x="56" y="710" type="line" name="hr00" smooth="yes"/>
      <point x="37" y="710"/>
      <point x="26" y="696"/>
      <point x="29" y="674" type="curve" smooth="yes"/>
      <point x="56" y="440" type="line" smooth="yes"/>
      <point x="58" y="424"/>
      <point x="65" y="408"/>
      <point x="91" y="408" type="curve" smooth="yes"/>
      <point x="173" y="408" type="line" smooth="yes"/>
      <point x="199" y="408"/>
      <point x="206" y="424"/>
      <point x="208" y="440" type="curve" smooth="yes"/>
      <point x="235" y="674" type="line" smooth="yes"/>
      <point x="238" y="696"/>
      <point x="227" y="710"/>
      <point x="208" y="710" type="curve" smooth="yes"/>
    </contour>
  </outline>
</glyph>
<glyph name="parenright" format="1">
  <advance width="423"/>
  <unicode hex="0029"/>
  <outline>
    <contour>
      <point x="394" y="309" type="curve" name="hr00" smooth="yes"/>
      <point x="394" y="649"/>
      <point x="241" y="776"/>
      <point x="49" y="776" type="curve" smooth="yes"/>
      <point x="34" y="776"/>
      <point x="22" y="764"/>
      <point x="22" y="749" type="curve" smooth="yes"/>
      <point x="22" y="622" type="line" smooth="yes"/>
      <point x="22" y="607"/>
      <point x="34" y="596"/>
      <point x="49" y="595" type="curve" smooth="yes"/>
      <point x="157" y="585"/>
      <point x="183" y="453"/>
      <point x="183" y="309" type="curve" smooth="yes"/>
      <point x="183" y="165"/>
      <point x="157" y="32"/>
      <point x="49" y="22" type="curve" smooth="yes"/>
      <point x="34" y="21"/>
      <point x="22" y="10"/>
      <point x="22" y="-5" type="curve" smooth="yes"/>
      <point x="22" y="-132" type="line" smooth="yes"/>
      <point x="22" y="-147"/>
      <point x="34" y="-159"/>
      <point x="49" y="-159" type="curve" smooth="yes"/>
      <point x="241" y="-159"/>
      <point x="394" y="-31"/>
    </contour>
  </outline>
</glyph>
<glyph name="asterisk" format="1">
  <advance width="444"/>
  <unicode hex="002A"/>
  <outline>
    <contour>
      <point x="303" y="700" type="line" name="hr00" smooth="yes"/>
      <point x="304" y="704"/>
      <point x="304" y="707"/>
      <point x="304" y="708" type="curve" smooth="yes"/>
      <point x="304" y="719"/>
      <point x="294" y="730"/>
      <point x="282" y="730" type="curve" smooth="yes"/>
      <point x="162" y="730" type="line" smooth="yes"/>
      <point x="150" y="730"/>
      <point x="140" y="719"/>
      <point x="140" y="708" type="curve" smooth="yes"/>
      <point x="140" y="707"/>
      <point x="140" y="704"/>
      <point x="141" y="700" type="curve" smooth="yes"/>
      <point x="161" y="631" type="line"/>
      <point x="102" y="672" type="line" smooth="yes"/>
      <point x="98" y="674"/>
      <point x="95" y="675"/>
      <point x="94" y="675" type="curve" smooth="yes"/>
      <point x="84" y="678"/>
      <point x="70" y="672"/>
      <point x="67" y="661" type="curve" smooth="yes"/>
      <point x="29" y="547" type="line"/>
      <point x="26" y="535"/>
      <point x="33" y="522"/>
      <point x="44" y="519" type="curve"/>
      <point x="45" y="519"/>
      <point x="47" y="518"/>
      <point x="51" y="517" type="curve"/>
      <point x="124" y="515" type="line"/>
      <point x="66" y="471" type="line" smooth="yes"/>
      <point x="63" y="468"/>
      <point x="61" y="466"/>
      <point x="61" y="465" type="curve" smooth="yes"/>
      <point x="55" y="456"/>
      <point x="56" y="441"/>
      <point x="66" y="435" type="curve"/>
      <point x="162" y="363" type="line"/>
      <point x="173" y="357"/>
      <point x="187" y="359"/>
      <point x="193" y="369" type="curve"/>
      <point x="198" y="375" type="line"/>
      <point x="222" y="444" type="line"/>
      <point x="246" y="375" type="line"/>
      <point x="251" y="369" type="line"/>
      <point x="257" y="359"/>
      <point x="271" y="357"/>
      <point x="282" y="363" type="curve"/>
      <point x="378" y="435" type="line"/>
      <point x="388" y="441"/>
      <point x="389" y="456"/>
      <point x="383" y="465" type="curve"/>
      <point x="383" y="466"/>
      <point x="381" y="468"/>
      <point x="378" y="471" type="curve" smooth="yes"/>
      <point x="320" y="515" type="line"/>
      <point x="393" y="517" type="line"/>
      <point x="397" y="518"/>
      <point x="399" y="519"/>
      <point x="400" y="519" type="curve" smooth="yes"/>
      <point x="411" y="522"/>
      <point x="418" y="535"/>
      <point x="415" y="547" type="curve"/>
      <point x="377" y="661" type="line" smooth="yes"/>
      <point x="374" y="672"/>
      <point x="360" y="678"/>
      <point x="350" y="675" type="curve"/>
      <point x="349" y="675"/>
      <point x="346" y="674"/>
      <point x="342" y="672" type="curve" smooth="yes"/>
      <point x="282" y="631" type="line"/>
    </contour>
  </outline>
</glyph>
<glyph name="plus" format="1">
  <advance width="594"/>
  <unicode hex="002B"/>
  <outline>
    <contour>
      <point x="210" y="60" type="line" name="hr00" smooth="yes"/>
      <point x="210" y="45"/>
      <point x="222" y="33"/>
      <point x="237" y="33" type="curve" smooth="yes"/>
      <point x="359" y="33" type="line" smooth="yes"/>
      <point x="374" y="33"/>
      <point x="386" y="45"/>
      <point x="386" y="60" type="curve" smooth="yes"/>
      <point x="386" y="221" type="line"/>
      <point x="539" y="221" type="line" smooth="yes"/>
      <point x="554" y="221"/>
      <point x="566" y="233"/>
      <point x="566" y="248" type="curve" smooth="yes"/>
      <point x="566" y="357" type="line" smooth="yes"/>
      <point x="566" y="372"/>
      <point x="554" y="384"/>
      <point x="539" y="384" type="curve" smooth="yes"/>
      <point x="386" y="384" type="line"/>
      <point x="386" y="540" type="line" smooth="yes"/>
      <point x="386" y="555"/>
      <point x="374" y="567"/>
      <point x="359" y="567" type="curve" smooth="yes"/>
      <point x="237" y="567" type="line" smooth="yes"/>
      <point x="222" y="567"/>
      <point x="210" y="555"/>
      <point x="210" y="540" type="curve" smooth="yes"/>
      <point x="210" y="384" type="line"/>
      <point x="55" y="384" type="line" smooth="yes"/>
      <point x="40" y="384"/>
      <point x="28" y="372"/>
      <point x="28" y="357" type="curve" smooth="yes"/>
      <point x="28" y="248" type="line" smooth="yes"/>
      <point x="28" y="233"/>
      <point x="40" y="221"/>
      <point x="55" y="221" type="curve" smooth="yes"/>
      <point x="210" y="221" type="line"/>
    </contour>
  </outline>
</glyph>
<glyph name="period" format="1">
  <advance width="312"/>
  <unicode hex="002E"/>
  <outline>
    <contour>
      <point x="69" y="228" type="line" name="hr00" smooth="yes"/>
      <point x="54" y="228"/>
      <point x="42" y="216"/>
      <point x="42" y="201" type="curve" smooth="yes"/>
      <point x="42" y="27" type="line" smooth="yes"/>
      <point x="42" y="12"/>
      <point x="54" y="0"/>
      <point x="69" y="0" type="curve" smooth="yes"/>
      <point x="243" y="0" type="line" smooth="yes"/>
      <point x="258" y="0"/>
      <point x="270" y="12"/>
      <point x="270" y="27" type="curve" smooth="yes"/>
      <point x="270" y="201" type="line" smooth="yes"/>
      <point x="270" y="216"/>
      <point x="258" y="228"/>
      <point x="243" y="228" type="curve" smooth="yes"/>
    </contour>
  </outline>
</glyph>
<glyph name="slash" format="1">
  <advance width="579"/>
  <unicode hex="002F"/>
  <outline>
    <contour>
      <point x="23" y="-53" type="line" name="hr00"/>
      <point x="21" y="-58"/>
      <point x="21" y="-60"/>
      <point x="21" y="-62" type="curve" smooth="yes"/>
      <point x="21" y="-74"/>
      <point x="31" y="-84"/>
      <point x="43" y="-84" type="curve" smooth="yes"/>
      <point x="174" y="-84" type="line" smooth="yes"/>
      <point x="201" y="-84"/>
      <point x="213" y="-67"/>
      <point x="218" y="-54" type="curve" smooth="yes"/>
      <point x="556" y="755" type="line" smooth="yes"/>
      <point x="558" y="760"/>
      <point x="558" y="762"/>
      <point x="558" y="764" type="curve" smooth="yes"/>
      <point x="558" y="776"/>
      <point x="548" y="786"/>
      <point x="536" y="786" type="curve" smooth="yes"/>
      <point x="402" y="786" type="line" smooth="yes"/>
      <point x="377" y="786"/>
      <point x="364" y="770"/>
      <point x="358" y="756" type="curve" smooth="yes"/>
    </contour>
  </outline>
</glyph>
<glyph name="zero" format="1">
  <advance width="718"/>
  <unicode hex="0030"/>
  <outline>
    <contour>
      <point x="358" y="710" type="curve" name="hr00"/>
      <point x="167" y="709"/>
      <point x="54" y="604"/>
      <point x="44" y="458" type="curve" smooth="yes"/>
      <point x="40" y="401"/>
      <point x="40" y="300"/>
      <point x="44" y="246" type="curve" smooth="yes"/>
      <point x="55" y="99"/>
      <point x="157" y="-9"/>
      <point x="358" y="-10" type="curve"/>
      <point x="559" y="-9"/>
      <point x="661" y="99"/>
      <point x="672" y="246" type="curve" smooth="yes"/>
      <point x="676" y="300"/>
      <point x="676" y="401"/>
      <point x="672" y="458" type="curve" smooth="yes"/>
      <point x="662" y="604"/>
      <point x="549" y="709"/>
    </contour>
    <contour>
      <point x="412" y="452" type="curve" smooth="yes"/>
      <point x="415" y="397"/>
      <point x="415" y="308"/>
      <point x="412" y="251" type="curve" smooth="yes"/>
      <point x="410" y="214"/>
      <point x="396" y="186"/>
      <point x="358" y="186" type="curve" smooth="yes"/>
      <point x="320" y="186"/>
      <point x="306" y="214"/>
      <point x="304" y="251" type="curve" smooth="yes"/>
      <point x="301" y="308"/>
      <point x="301" y="397"/>
      <point x="304" y="452" type="curve" smooth="yes"/>
      <point x="306" y="486"/>
      <point x="318" y="516"/>
      <point x="358" y="517" type="curve"/>
      <point x="398" y="516"/>
      <point x="410" y="486"/>
    </contour>
  </outline>
</glyph>
<glyph name="one" format="1">
  <advance width="557"/>
  <unicode hex="0031"/>
  <outline>
    <contour>
      <point x="501" y="673" type="line" name="hr00" smooth="yes"/>
      <point x="501" y="688"/>
      <point x="489" y="700"/>
      <point x="474" y="700" type="curve" smooth="yes"/>
      <point x="285" y="700" type="line" smooth="yes"/>
      <point x="276" y="700"/>
      <point x="270" y="698"/>
      <point x="263" y="693" type="curve" smooth="yes"/>
      <point x="22" y="506" type="line"/>
      <point x="9" y="498"/>
      <point x="6" y="480"/>
      <point x="13" y="467" type="curve"/>
      <point x="101" y="353" type="line" smooth="yes"/>
      <point x="111" y="340"/>
      <point x="126" y="335"/>
      <point x="139" y="345" type="curve" smooth="yes"/>
      <point x="251" y="431" type="line"/>
      <point x="251" y="27" type="line" smooth="yes"/>
      <point x="251" y="12"/>
      <point x="263" y="0"/>
      <point x="278" y="0" type="curve" smooth="yes"/>
      <point x="474" y="0" type="line" smooth="yes"/>
      <point x="489" y="0"/>
      <point x="501" y="12"/>
      <point x="501" y="27" type="curve" smooth="yes"/>
    </contour>
  </outline>
</glyph>
<glyph name="two" format="1">
  <advance width="704"/>
  <unicode hex="0032"/>
  <outline>
    <contour>
      <point x="427" y="206" type="line" name="hr00"/>
      <point x="560" y="297"/>
      <point x="650" y="377"/>
      <point x="650" y="490" type="curve" smooth="yes"/>
      <point x="650" y="632"/>
      <point x="533" y="714"/>
      <point x="351" y="714" type="curve" smooth="yes"/>
      <point x="179" y="714"/>
      <point x="50" y="616"/>
      <point x="47" y="465" type="curve" smooth="yes"/>
      <point x="47" y="453"/>
      <point x="57" y="443"/>
      <point x="69" y="443" type="curve" smooth="yes"/>
      <point x="257" y="443" type="line" smooth="yes"/>
      <point x="275" y="443"/>
      <point x="290" y="447"/>
      <point x="297" y="466" type="curve" smooth="yes"/>
      <point x="303" y="482"/>
      <point x="311" y="517"/>
      <point x="352" y="517" type="curve" smooth="yes"/>
      <point x="387" y="517"/>
      <point x="388" y="496"/>
      <point x="388" y="477" type="curve" smooth="yes"/>
      <point x="388" y="417"/>
      <point x="276" y="341"/>
      <point x="60" y="185" type="curve" smooth="yes"/>
      <point x="35" y="167"/>
      <point x="35" y="139"/>
      <point x="35" y="131" type="curve" smooth="yes"/>
      <point x="35" y="27" type="line" smooth="yes"/>
      <point x="35" y="12"/>
      <point x="47" y="0"/>
      <point x="62" y="0" type="curve" smooth="yes"/>
      <point x="638" y="0" type="line" smooth="yes"/>
      <point x="653" y="0"/>
      <point x="665" y="12"/>
      <point x="665" y="27" type="curve" smooth="yes"/>
      <point x="665" y="179" type="line" smooth="yes"/>
      <point x="665" y="194"/>
      <point x="653" y="206"/>
      <point x="638" y="206" type="curve" smooth="yes"/>
    </contour>
  </outline>
</glyph>
<glyph name="three" format="1">
  <advance width="709"/>
  <unicode hex="0033"/>
  <outline>
    <contour>
      <point x="612" y="506" type="line" smooth="yes"/>
      <point x="622" y="513"/>
      <point x="632" y="527"/>
      <point x="632" y="546" type="curve" smooth="yes"/>
      <point x="632" y="673" type="line" smooth="yes"/>
      <point x="632" y="688"/>
      <point x="620" y="700"/>
      <point x="605" y="700" type="curve" smooth="yes"/>
      <point x="93" y="700" type="line" smooth="yes"/>
      <point x="78" y="700"/>
      <point x="66" y="688"/>
      <point x="66" y="673" type="curve" smooth="yes"/>
      <point x="66" y="532" type="line" smooth="yes"/>
      <point x="66" y="517"/>
      <point x="78" y="505"/>
      <point x="93" y="505" type="curve" smooth="yes"/>
      <point x="356" y="505" type="line"/>
      <point x="217" y="429" type="line" smooth="yes"/>
      <point x="207" y="423"/>
      <point x="197" y="409"/>
      <point x="197" y="389" type="curve" smooth="yes"/>
      <point x="197" y="308" type="line" smooth="yes"/>
      <point x="197" y="293"/>
      <point x="209" y="281"/>
      <point x="224" y="281" type="curve" smooth="yes"/>
      <point x="349" y="281" type="line" smooth="yes"/>
      <point x="393" y="281"/>
      <point x="415" y="267"/>
      <point x="415" y="237" type="curve" smooth="yes"/>
      <point x="415" y="208"/>
      <point x="396" y="184"/>
      <point x="349" y="184" type="curve" smooth="yes"/>
      <point x="307" y="184"/>
      <point x="291" y="193"/>
      <point x="280" y="204" type="curve" smooth="yes"/>
      <point x="271" y="213"/>
      <point x="264" y="220"/>
      <point x="246" y="220" type="curve" name="hr01" smooth="yes"/>
      <point x="45" y="220" type="line" smooth="yes"/>
      <point x="33" y="220"/>
      <point x="23" y="210"/>
      <point x="23" y="198" type="curve" smooth="yes"/>
      <point x="26" y="119"/>
      <point x="107" y="-10"/>
      <point x="348" y="-10" type="curve" smooth="yes"/>
      <point x="537" y="-10"/>
      <point x="675" y="80"/>
      <point x="675" y="219" type="curve" smooth="yes"/>
      <point x="675" y="345"/>
      <point x="595" y="401"/>
      <point x="495" y="426" type="curve"/>
    </contour>
  </outline>
</glyph>
<glyph name="four" format="1">
  <advance width="735"/>
  <unicode hex="0034"/>
  <outline>
    <contour>
      <point x="592" y="315" type="line" name="hr00"/>
      <point x="592" y="673" type="line" smooth="yes"/>
      <point x="592" y="688"/>
      <point x="580" y="700"/>
      <point x="565" y="700" type="curve" smooth="yes"/>
      <point x="357" y="700" type="line" smooth="yes"/>
      <point x="341" y="700"/>
      <point x="328" y="693"/>
      <point x="320" y="683" type="curve" smooth="yes"/>
      <point x="37" y="313" type="line" smooth="yes"/>
      <point x="33" y="308"/>
      <point x="26" y="299"/>
      <point x="26" y="282" type="curve" smooth="yes"/>
      <point x="26" y="139" type="line" smooth="yes"/>
      <point x="26" y="124"/>
      <point x="38" y="112"/>
      <point x="53" y="112" type="curve" smooth="yes"/>
      <point x="352" y="112" type="line"/>
      <point x="352" y="27" type="line" smooth="yes"/>
      <point x="352" y="12"/>
      <point x="364" y="0"/>
      <point x="379" y="0" type="curve" smooth="yes"/>
      <point x="565" y="0" type="line" smooth="yes"/>
      <point x="580" y="0"/>
      <point x="592" y="12"/>
      <point x="592" y="27" type="curve" smooth="yes"/>
      <point x="592" y="112" type="line"/>
      <point x="680" y="112" type="line" smooth="yes"/>
      <point x="695" y="112"/>
      <point x="707" y="124"/>
      <point x="707" y="139" type="curve" smooth="yes"/>
      <point x="707" y="288" type="line" smooth="yes"/>
      <point x="707" y="302"/>
      <point x="696" y="315"/>
      <point x="679" y="315" type="curve" smooth="yes"/>
    </contour>
    <contour>
      <point x="254" y="304" type="line"/>
      <point x="359" y="448" type="line"/>
      <point x="359" y="304" type="line"/>
    </contour>
  </outline>
</glyph>
<glyph name="five" format="1">
  <advance width="690"/>
  <unicode hex="0035"/>
  <outline>
    <contour>
      <point x="283" y="218" type="curve" smooth="yes"/>
      <point x="279" y="223"/>
      <point x="268" y="234"/>
      <point x="247" y="234" type="curve" smooth="yes"/>
      <point x="45" y="234" type="line" smooth="yes"/>
      <point x="33" y="234"/>
      <point x="23" y="224"/>
      <point x="23" y="212" type="curve" smooth="yes"/>
      <point x="26" y="92"/>
      <point x="132" y="-12"/>
      <point x="344" y="-12" type="curve" smooth="yes"/>
      <point x="556" y="-12"/>
      <point x="664" y="105"/>
      <point x="664" y="238" type="curve" smooth="yes"/>
      <point x="664" y="371"/>
      <point x="543" y="468"/>
      <point x="420" y="468" type="curve" smooth="yes"/>
      <point x="354" y="468"/>
      <point x="323" y="459"/>
      <point x="286" y="434" type="curve"/>
      <point x="294" y="505" type="line"/>
      <point x="586" y="505" type="line" smooth="yes"/>
      <point x="601" y="505"/>
      <point x="613" y="517"/>
      <point x="613" y="532" type="curve" smooth="yes"/>
      <point x="613" y="673" type="line" smooth="yes"/>
      <point x="613" y="688"/>
      <point x="601" y="700"/>
      <point x="586" y="700" type="curve" smooth="yes"/>
      <point x="139" y="700" type="line" smooth="yes"/>
      <point x="120" y="700"/>
      <point x="103" y="689"/>
      <point x="100" y="666" type="curve" smooth="yes"/>
      <point x="60" y="309" type="line" smooth="yes"/>
      <point x="59" y="298"/>
      <point x="60" y="306"/>
      <point x="60" y="304" type="curve" smooth="yes"/>
      <point x="60" y="292"/>
      <point x="70" y="282"/>
      <point x="82" y="282" type="curve" smooth="yes"/>
      <point x="281" y="282" type="line" smooth="yes"/>
      <point x="298" y="282"/>
      <point x="303" y="306"/>
      <point x="345" y="306" type="curve" name="hr01" smooth="yes"/>
      <point x="384" y="306"/>
      <point x="406" y="276"/>
      <point x="406" y="245" type="curve" smooth="yes"/>
      <point x="406" y="204"/>
      <point x="377" y="183"/>
      <point x="345" y="183" type="curve" smooth="yes"/>
      <point x="312" y="183"/>
      <point x="301" y="195"/>
    </contour>
  </outline>
</glyph>
<glyph name="six" format="1">
  <advance width="692"/>
  <unicode hex="0036"/>
  <outline>
    <contour>
      <point x="538" y="665" type="line" name="hr00" smooth="yes"/>
      <point x="540" y="668"/>
      <point x="542" y="672"/>
      <point x="542" y="678" type="curve" smooth="yes"/>
      <point x="542" y="690"/>
      <point x="532" y="700"/>
      <point x="520" y="700" type="curve" smooth="yes"/>
      <point x="319" y="700" type="line" smooth="yes"/>
      <point x="297" y="700"/>
      <point x="285" y="687"/>
      <point x="280" y="680" type="curve" smooth="yes"/>
      <point x="117" y="467" type="line" smooth="yes"/>
      <point x="90" y="432"/>
      <point x="20" y="335"/>
      <point x="20" y="249" type="curve" smooth="yes"/>
      <point x="20" y="84"/>
      <point x="162" y="-10"/>
      <point x="350" y="-10" type="curve" smooth="yes"/>
      <point x="538" y="-10"/>
      <point x="671" y="103"/>
      <point x="671" y="254" type="curve" smooth="yes"/>
      <point x="671" y="414"/>
      <point x="509" y="493"/>
      <point x="412" y="498" type="curve"/>
    </contour>
    <contour>
      <point x="416" y="250" type="curve" smooth="yes"/>
      <point x="416" y="208"/>
      <point x="385" y="185"/>
      <point x="347" y="185" type="curve" smooth="yes"/>
      <point x="309" y="185"/>
      <point x="278" y="208"/>
      <point x="278" y="250" type="curve" smooth="yes"/>
      <point x="278" y="292"/>
      <point x="308" y="315"/>
      <point x="347" y="315" type="curve" smooth="yes"/>
      <point x="386" y="315"/>
      <point x="416" y="292"/>
    </contour>
  </outline>
</glyph>
<glyph name="seven" format="1">
  <advance width="625"/>
  <unicode hex="0037"/>
  <outline>
    <contour>
      <point x="55" y="700" type="line" name="hr00" smooth="yes"/>
      <point x="40" y="700"/>
      <point x="28" y="688"/>
      <point x="28" y="673" type="curve" smooth="yes"/>
      <point x="28" y="522" type="line" smooth="yes"/>
      <point x="28" y="507"/>
      <point x="40" y="495"/>
      <point x="55" y="495" type="curve" smooth="yes"/>
      <point x="330" y="495" type="line"/>
      <point x="114" y="31" type="line" smooth="yes"/>
      <point x="113" y="29"/>
      <point x="112" y="26"/>
      <point x="112" y="22" type="curve" smooth="yes"/>
      <point x="112" y="10"/>
      <point x="122" y="0"/>
      <point x="134" y="0" type="curve" smooth="yes"/>
      <point x="327" y="0" type="line" smooth="yes"/>
      <point x="352" y="0"/>
      <point x="364" y="16"/>
      <point x="368" y="23" type="curve" smooth="yes"/>
      <point x="586" y="490" type="line" smooth="yes"/>
      <point x="592" y="503"/>
      <point x="599" y="518"/>
      <point x="599" y="541" type="curve" smooth="yes"/>
      <point x="599" y="673" type="line" smooth="yes"/>
      <point x="599" y="688"/>
      <point x="588" y="700"/>
      <point x="572" y="700" type="curve" smooth="yes"/>
    </contour>
  </outline>
</glyph>
<glyph name="nine" format="1">
  <advance width="683"/>
  <unicode hex="0039"/>
  <outline>
    <contour>
      <point x="140" y="35" type="line" name="hr00" smooth="yes"/>
      <point x="138" y="32"/>
      <point x="136" y="28"/>
      <point x="136" y="22" type="curve" smooth="yes"/>
      <point x="136" y="10"/>
      <point x="146" y="0"/>
      <point x="158" y="0" type="curve" smooth="yes"/>
      <point x="359" y="0" type="line" smooth="yes"/>
      <point x="381" y="0"/>
      <point x="393" y="13"/>
      <point x="398" y="20" type="curve" smooth="yes"/>
      <point x="530" y="196" type="line"/>
      <point x="593" y="285"/>
      <point x="662" y="360"/>
      <point x="662" y="459" type="curve" smooth="yes"/>
      <point x="662" y="608"/>
      <point x="545" y="710"/>
      <point x="337" y="710" type="curve" smooth="yes"/>
      <point x="129" y="710"/>
      <point x="21" y="585"/>
      <point x="21" y="449" type="curve" smooth="yes"/>
      <point x="21" y="289"/>
      <point x="174" y="218"/>
      <point x="271" y="210" type="curve"/>
    </contour>
    <contour>
      <point x="276" y="450" type="curve" smooth="yes"/>
      <point x="276" y="492"/>
      <point x="302" y="515"/>
      <point x="340" y="515" type="curve" smooth="yes"/>
      <point x="378" y="515"/>
      <point x="404" y="492"/>
      <point x="404" y="450" type="curve" smooth="yes"/>
      <point x="404" y="408"/>
      <point x="379" y="385"/>
      <point x="340" y="385" type="curve" smooth="yes"/>
      <point x="301" y="385"/>
      <point x="276" y="408"/>
    </contour>
  </outline>
</glyph>
<glyph name="colon" format="1">
  <advance width="322"/>
  <unicode hex="003A"/>
  <outline>
    <contour>
      <point x="74" y="218" type="line" name="hr00" smooth="yes"/>
      <point x="59" y="218"/>
      <point x="47" y="206"/>
      <point x="47" y="191" type="curve" smooth="yes"/>
      <point x="47" y="27" type="line" smooth="yes"/>
      <point x="47" y="12"/>
      <point x="59" y="0"/>
      <point x="74" y="0" type="curve" smooth="yes"/>
      <point x="248" y="0" type="line" smooth="yes"/>
      <point x="263" y="0"/>
      <point x="275" y="12"/>
      <point x="275" y="27" type="curve" smooth="yes"/>
      <point x="275" y="191" type="line" smooth="yes"/>
      <point x="275" y="206"/>
      <point x="263" y="218"/>
      <point x="248" y="218" type="curve" smooth="yes"/>
    </contour>
    <contour>
      <point x="74" y="568" type="line" smooth="yes"/>
      <point x="59" y="568"/>
      <point x="47" y="556"/>
      <point x="47" y="541" type="curve" smooth="yes"/>
      <point x="47" y="377" type="line" smooth="yes"/>
      <point x="47" y="362"/>
      <point x="59" y="350"/>
      <point x="74" y="350" type="curve" smooth="yes"/>
      <point x="248" y="350" type="line" smooth="yes"/>
      <point x="263" y="350"/>
      <point x="275" y="362"/>
      <point x="275" y="377" type="curve" smooth="yes"/>
      <point x="275" y="541" type="line" smooth="yes"/>
      <point x="275" y="556"/>
      <point x="263" y="568"/>
      <point x="248" y="568" type="curve" smooth="yes"/>
    </contour>
  </outline>
</glyph>
<glyph name="semicolon" format="1">
  <advance width="325"/>
  <unicode hex="003B"/>
  <outline>
    <contour>
      <point x="88" y="568" type="line" name="hr00" smooth="yes"/>
      <point x="73" y="568"/>
      <point x="61" y="556"/>
      <point x="61" y="541" type="curve" smooth="yes"/>
      <point x="61" y="377" type="line" smooth="yes"/>
      <point x="61" y="362"/>
      <point x="73" y="350"/>
      <point x="88" y="350" type="curve" smooth="yes"/>
      <point x="262" y="350" type="line" smooth="yes"/>
      <point x="277" y="350"/>
      <point x="289" y="362"/>
      <point x="289" y="377" type="curve" smooth="yes"/>
      <point x="289" y="541" type="line" smooth="yes"/>
      <point x="289" y="556"/>
      <point x="277" y="568"/>
      <point x="262" y="568" type="curve" smooth="yes"/>
    </contour>
    <contour>
      <point x="19" y="-51" type="line" smooth="yes"/>
      <point x="19" y="-53"/>
      <point x="19" y="-51"/>
      <point x="19" y="-53" type="curve" smooth="yes"/>
      <point x="19" y="-65"/>
      <point x="29" y="-75"/>
      <point x="41" y="-75" type="curve" smooth="yes"/>
      <point x="142" y="-75" type="line" smooth="yes"/>
      <point x="168" y="-75"/>
      <point x="180" y="-56"/>
      <point x="185" y="-43" type="curve" smooth="yes"/>
      <point x="280" y="199" type="line" smooth="yes"/>
      <point x="281" y="202"/>
      <point x="281" y="204"/>
      <point x="281" y="206" type="curve" smooth="yes"/>
      <point x="281" y="218"/>
      <point x="271" y="228"/>
      <point x="259" y="228" type="curve" smooth="yes"/>
      <point x="99" y="228" type="line" smooth="yes"/>
      <point x="72" y="228"/>
      <point x="59" y="207"/>
      <point x="56" y="189" type="curve" smooth="yes"/>
    </contour>
  </outline>
</glyph>
<glyph name="less" format="1">
  <advance width="538"/>
  <unicode hex="003C"/>
  <outline>
    <contour>
      <point x="24" y="371" type="line" name="hr00" smooth="yes"/>
      <point x="24" y="392"/>
      <point x="35" y="401"/>
      <point x="53" y="413" type="curve" smooth="yes"/>
      <point x="453" y="683" type="line" smooth="yes"/>
      <point x="458" y="686"/>
      <point x="462" y="686"/>
      <point x="464" y="686" type="curve" smooth="yes"/>
      <point x="476" y="686"/>
      <point x="485" y="677"/>
      <point x="485" y="665" type="curve" smooth="yes"/>
      <point x="485" y="503" type="line" smooth="yes"/>
      <point x="485" y="477"/>
      <point x="465" y="466"/>
      <point x="453" y="459" type="curve" smooth="yes"/>
      <point x="278" y="350" type="line"/>
      <point x="453" y="240" type="line" smooth="yes"/>
      <point x="465" y="233"/>
      <point x="485" y="223"/>
      <point x="485" y="197" type="curve" smooth="yes"/>
      <point x="485" y="35" type="line" smooth="yes"/>
      <point x="485" y="23"/>
      <point x="476" y="14"/>
      <point x="464" y="14" type="curve" smooth="yes"/>
      <point x="462" y="14"/>
      <point x="458" y="14"/>
      <point x="453" y="17" type="curve" smooth="yes"/>
      <point x="53" y="287" type="line" smooth="yes"/>
      <point x="35" y="299"/>
      <point x="24" y="308"/>
      <point x="24" y="329" type="curve" smooth="yes"/>
    </contour>
  </outline>
</glyph>
<glyph name="greater" format="1">
  <advance width="538"/>
  <unicode hex="003E"/>
  <outline>
    <contour>
      <point x="514" y="371" type="line" name="hr00"/>
      <point x="514" y="392"/>
      <point x="503" y="401"/>
      <point x="485" y="413" type="curve" smooth="yes"/>
      <point x="85" y="683" type="line" smooth="yes"/>
      <point x="80" y="686"/>
      <point x="76" y="686"/>
      <point x="74" y="686" type="curve" smooth="yes"/>
      <point x="62" y="686"/>
      <point x="53" y="677"/>
      <point x="53" y="665" type="curve" smooth="yes"/>
      <point x="53" y="503" type="line" smooth="yes"/>
      <point x="53" y="477"/>
      <point x="73" y="466"/>
      <point x="85" y="459" type="curve" smooth="yes"/>
      <point x="260" y="350" type="line"/>
      <point x="85" y="240" type="line" smooth="yes"/>
      <point x="73" y="233"/>
      <point x="53" y="223"/>
      <point x="53" y="197" type="curve" smooth="yes"/>
      <point x="53" y="35" type="line" smooth="yes"/>
      <point x="53" y="23"/>
      <point x="62" y="14"/>
      <point x="74" y="14" type="curve" smooth="yes"/>
      <point x="76" y="14"/>
      <point x="80" y="14"/>
      <point x="85" y="17" type="curve" smooth="yes"/>
      <point x="485" y="287" type="line" smooth="yes"/>
      <point x="503" y="299"/>
      <point x="514" y="308"/>
      <point x="514" y="329" type="curve" smooth="yes"/>
    </contour>
  </outline>
</glyph>
<glyph name="question" format="1">
  <advance width="653"/>
  <unicode hex="003F"/>
  <outline>
    <contour>
      <point x="347" y="710" type="curve" name="hr00" smooth="yes"/>
      <point x="125" y="710"/>
      <point x="27" y="585"/>
      <point x="24" y="484" type="curve"/>
      <point x="24" y="483" type="line"/>
      <point x="24" y="468"/>
      <point x="33" y="453"/>
      <point x="49" y="453" type="curve" smooth="yes"/>
      <point x="235" y="453" type="line" smooth="yes"/>
      <point x="286" y="453"/>
      <point x="258" y="515"/>
      <point x="329" y="515" type="curve" smooth="yes"/>
      <point x="349" y="515"/>
      <point x="363" y="503"/>
      <point x="363" y="483" type="curve" smooth="yes"/>
      <point x="363" y="435"/>
      <point x="237" y="372"/>
      <point x="208" y="279" type="curve" smooth="yes"/>
      <point x="207" y="276"/>
      <point x="207" y="274"/>
      <point x="207" y="271" type="curve" smooth="yes"/>
      <point x="207" y="262"/>
      <point x="216" y="253"/>
      <point x="226" y="253" type="curve" smooth="yes"/>
      <point x="440" y="253" type="line" smooth="yes"/>
      <point x="457" y="253"/>
      <point x="462" y="262"/>
      <point x="476" y="282" type="curve" smooth="yes"/>
      <point x="523" y="348"/>
      <point x="628" y="408"/>
      <point x="628" y="523" type="curve" smooth="yes"/>
      <point x="628" y="587"/>
      <point x="578" y="710"/>
    </contour>
    <contour>
      <point x="236" y="213" type="line"/>
      <point x="221" y="213"/>
      <point x="209" y="201"/>
      <point x="209" y="186" type="curve" smooth="yes"/>
      <point x="209" y="27" type="line" smooth="yes"/>
      <point x="209" y="12"/>
      <point x="221" y="0"/>
      <point x="236" y="0" type="curve" smooth="yes"/>
      <point x="419" y="0" type="line" smooth="yes"/>
      <point x="434" y="0"/>
      <point x="446" y="12"/>
      <point x="446" y="27" type="curve" smooth="yes"/>
      <point x="446" y="186" type="line" smooth="yes"/>
      <point x="446" y="201"/>
      <point x="434" y="213"/>
      <point x="419" y="213" type="curve" smooth="yes"/>
    </contour>
  </outline>
</glyph>
<glyph name="at" format="1">
  <advance width="856"/>
  <unicode hex="0040"/>
  <outline>
    <contour>
      <point x="825" y="234" type="curve" smooth="yes"/>
      <point x="827" y="270"/>
      <point x="828" y="322"/>
      <point x="825" y="356" type="curve" smooth="yes"/>
      <point x="810" y="532"/>
      <point x="727" y="684"/>
      <point x="424" y="684" type="curve" smooth="yes"/>
      <point x="172" y="684"/>
      <point x="54" y="512"/>
      <point x="41" y="356" type="curve" smooth="yes"/>
      <point x="38" y="321"/>
      <point x="38" y="222"/>
      <point x="41" y="185" type="curve" smooth="yes"/>
      <point x="56" y="6"/>
      <point x="173" y="-141"/>
      <point x="444" y="-141" type="curve" smooth="yes"/>
      <point x="619" y="-141"/>
      <point x="726" y="-76"/>
      <point x="784" y="-5" type="curve" smooth="yes"/>
      <point x="788" y="0"/>
      <point x="791" y="4"/>
      <point x="791" y="10" type="curve" smooth="yes"/>
      <point x="792" y="27"/>
      <point x="779" y="38"/>
      <point x="764" y="38" type="curve" smooth="yes"/>
      <point x="666" y="38" type="line" smooth="yes"/>
      <point x="652" y="38"/>
      <point x="645" y="33"/>
      <point x="631" y="23" type="curve" smooth="yes"/>
      <point x="589" y="-9"/>
      <point x="553" y="-20"/>
      <point x="444" y="-20" type="curve" name="hr01" smooth="yes"/>
      <point x="260" y="-20"/>
      <point x="181" y="59"/>
      <point x="167" y="190" type="curve" smooth="yes"/>
      <point x="163" y="228"/>
      <point x="163" y="316"/>
      <point x="167" y="351" type="curve" smooth="yes"/>
      <point x="181" y="471"/>
      <point x="250" y="563"/>
      <point x="424" y="563" type="curve" smooth="yes"/>
      <point x="629" y="563"/>
      <point x="693" y="499"/>
      <point x="700" y="351" type="curve" smooth="yes"/>
      <point x="702" y="317"/>
      <point x="701" y="285"/>
      <point x="701" y="249" type="curve" smooth="yes"/>
      <point x="701" y="219"/>
      <point x="688" y="200"/>
      <point x="658" y="200" type="curve" smooth="yes"/>
      <point x="629" y="200"/>
      <point x="614" y="218"/>
      <point x="614" y="250" type="curve" smooth="yes"/>
      <point x="614" y="443" type="line" smooth="yes"/>
      <point x="614" y="458"/>
      <point x="602" y="470"/>
      <point x="587" y="470" type="curve" smooth="yes"/>
      <point x="515" y="470" type="line" smooth="yes"/>
      <point x="500" y="470"/>
      <point x="488" y="458"/>
      <point x="488" y="443" type="curve" smooth="yes"/>
      <point x="488" y="434" type="line"/>
      <point x="466" y="463"/>
      <point x="439" y="478"/>
      <point x="389" y="478" type="curve" smooth="yes"/>
      <point x="290" y="478"/>
      <point x="236" y="395"/>
      <point x="236" y="273" type="curve" smooth="yes"/>
      <point x="236" y="151"/>
      <point x="294" y="69"/>
      <point x="394" y="69" type="curve" smooth="yes"/>
      <point x="488" y="69"/>
      <point x="512" y="101"/>
      <point x="526" y="125" type="curve"/>
      <point x="545" y="103"/>
      <point x="591" y="79"/>
      <point x="658" y="79" type="curve" smooth="yes"/>
      <point x="734" y="79"/>
      <point x="819" y="133"/>
    </contour>
    <contour>
      <point x="361" y="273" type="curve" smooth="yes"/>
      <point x="361" y="338"/>
      <point x="388" y="357"/>
      <point x="424" y="357" type="curve" smooth="yes"/>
      <point x="463" y="357"/>
      <point x="488" y="338"/>
      <point x="488" y="273" type="curve" smooth="yes"/>
      <point x="488" y="207"/>
      <point x="463" y="190"/>
      <point x="424" y="190" type="curve" smooth="yes"/>
      <point x="388" y="190"/>
      <point x="361" y="208"/>
    </contour>
  </outline>
</glyph>
<glyph name="A" format="1">
  <advance width="755"/>
  <unicode hex="0041"/>
  <outline>
    <contour>
      <point x="269" y="700" type="line" name="hr00" smooth="yes"/>
      <point x="242" y="700"/>
      <point x="228" y="682"/>
      <point x="224" y="667" type="curve"/>
      <point x="1" y="29" type="line" smooth="yes"/>
      <point x="0" y="26"/>
      <point x="0" y="24"/>
      <point x="0" y="22" type="curve" smooth="yes"/>
      <point x="0" y="10"/>
      <point x="10" y="0"/>
      <point x="22" y="0" type="curve" smooth="yes"/>
      <point x="207" y="0" type="line" smooth="yes"/>
      <point x="233" y="0"/>
      <point x="242" y="14"/>
      <point x="246" y="25" type="curve" smooth="yes"/>
      <point x="270" y="91" type="line"/>
      <point x="485" y="91" type="line"/>
      <point x="509" y="25" type="line" smooth="yes"/>
      <point x="513" y="14"/>
      <point x="522" y="0"/>
      <point x="548" y="0" type="curve" smooth="yes"/>
      <point x="733" y="0" type="line" smooth="yes"/>
      <point x="745" y="0"/>
      <point x="755" y="10"/>
      <point x="755" y="22" type="curve" smooth="yes"/>
      <point x="755" y="24"/>
      <point x="755" y="26"/>
      <point x="754" y="29" type="curve" smooth="yes"/>
      <point x="531" y="667" type="line"/>
      <point x="527" y="682"/>
      <point x="513" y="700"/>
      <point x="486" y="700" type="curve" smooth="yes"/>
    </contour>
    <contour>
      <point x="321" y="286" type="line"/>
      <point x="377" y="472" type="line"/>
      <point x="434" y="286" type="line"/>
    </contour>
  </outline>
</glyph>
<glyph name="C" format="1">
  <advance width="733"/>
  <unicode hex="0043"/>
  <outline>
    <contour>
      <point x="297" y="434" type="curve" name="hr00"/>
      <point x="299" y="495"/>
      <point x="327" y="515"/>
      <point x="371" y="515" type="curve" smooth="yes"/>
      <point x="405" y="515"/>
      <point x="431" y="504"/>
      <point x="446" y="461" type="curve" smooth="yes"/>
      <point x="454" y="439"/>
      <point x="461" y="432"/>
      <point x="483" y="432" type="curve"/>
      <point x="687" y="432" type="line"/>
      <point x="699" y="432"/>
      <point x="709" y="442"/>
      <point x="709" y="454" type="curve" smooth="yes"/>
      <point x="706" y="636"/>
      <point x="542" y="710"/>
      <point x="372" y="710" type="curve" smooth="yes"/>
      <point x="185" y="710"/>
      <point x="45" y="625"/>
      <point x="37" y="439" type="curve"/>
      <point x="35" y="382"/>
      <point x="35" y="315"/>
      <point x="37" y="261" type="curve"/>
      <point x="45" y="70"/>
      <point x="180" y="-10"/>
      <point x="372" y="-10" type="curve" smooth="yes"/>
      <point x="542" y="-10"/>
      <point x="706" y="64"/>
      <point x="709" y="246" type="curve" smooth="yes"/>
      <point x="709" y="258"/>
      <point x="699" y="268"/>
      <point x="687" y="268" type="curve"/>
      <point x="483" y="268" type="line"/>
      <point x="461" y="268"/>
      <point x="453" y="262"/>
      <point x="446" y="239" type="curve" smooth="yes"/>
      <point x="433" y="199"/>
      <point x="405" y="185"/>
      <point x="371" y="185" type="curve" smooth="yes"/>
      <point x="327" y="185"/>
      <point x="299" y="205"/>
      <point x="297" y="266" type="curve" smooth="yes"/>
      <point x="295" y="323"/>
      <point x="295" y="379"/>
    </contour>
  </outline>
</glyph>
<glyph name="D" format="1">
  <advance width="740"/>
  <unicode hex="0044"/>
  <outline>
    <contour>
      <point x="370" y="700" type="curve" name="hr00"/>
      <point x="82" y="700" type="line" smooth="yes"/>
      <point x="67" y="700"/>
      <point x="55" y="688"/>
      <point x="55" y="673" type="curve" smooth="yes"/>
      <point x="55" y="27" type="line" smooth="yes"/>
      <point x="55" y="12"/>
      <point x="67" y="0"/>
      <point x="82" y="0" type="curve" smooth="yes"/>
      <point x="375" y="0" type="line" smooth="yes"/>
      <point x="566" y="0"/>
      <point x="696" y="87"/>
      <point x="704" y="276" type="curve" smooth="yes"/>
      <point x="706" y="330"/>
      <point x="706" y="368"/>
      <point x="704" y="425" type="curve" smooth="yes"/>
      <point x="697" y="604"/>
      <point x="557" y="700"/>
    </contour>
    <contour>
      <point x="450" y="425" type="curve" smooth="yes"/>
      <point x="453" y="370"/>
      <point x="453" y="333"/>
      <point x="450" y="276" type="curve" smooth="yes"/>
      <point x="447" y="220"/>
      <point x="414" y="195"/>
      <point x="370" y="195" type="curve" smooth="yes"/>
      <point x="305" y="195" type="line"/>
      <point x="305" y="505" type="line"/>
      <point x="365" y="505" type="line" smooth="yes"/>
      <point x="410" y="505"/>
      <point x="447" y="481"/>
    </contour>
  </outline>
</glyph>
<glyph name="E" format="1">
  <advance width="667"/>
  <unicode hex="0045"/>
  <outline>
    <contour>
      <point x="603" y="195" type="line" name="hr00" smooth="yes"/>
      <point x="618" y="195"/>
      <point x="630" y="183"/>
      <point x="630" y="168" type="curve" smooth="yes"/>
      <point x="630" y="27" type="line" smooth="yes"/>
      <point x="630" y="12"/>
      <point x="618" y="0"/>
      <point x="603" y="0" type="curve" smooth="yes"/>
      <point x="82" y="0" type="line" smooth="yes"/>
      <point x="67" y="0"/>
      <point x="55" y="12"/>
      <point x="55" y="27" type="curve" smooth="yes"/>
      <point x="55" y="673" type="line" smooth="yes"/>
      <point x="55" y="688"/>
      <point x="67" y="700"/>
      <point x="82" y="700" type="curve" smooth="yes"/>
      <point x="595" y="700" type="line" smooth="yes"/>
      <point x="610" y="700"/>
      <point x="622" y="688"/>
      <point x="622" y="673" type="curve" smooth="yes"/>
      <point x="622" y="532" type="line" smooth="yes"/>
      <point x="622" y="517"/>
      <point x="610" y="505"/>
      <point x="595" y="505" type="curve" smooth="yes"/>
      <point x="295" y="505" type="line"/>
      <point x="295" y="442" type="line"/>
      <point x="573" y="442" type="line" smooth="yes"/>
      <point x="588" y="442"/>
      <point x="600" y="430"/>
      <point x="600" y="415" type="curve" smooth="yes"/>
      <point x="600" y="285" type="line" smooth="yes"/>
      <point x="600" y="270"/>
      <point x="588" y="258"/>
      <point x="573" y="258" type="curve" smooth="yes"/>
      <point x="295" y="258" type="line"/>
      <point x="295" y="195" type="line"/>
    </contour>
  </outline>
</glyph>
<glyph name="F" format="1">
  <advance width="646"/>
  <unicode hex="0046"/>
  <outline>
    <contour>
      <point x="82" y="700" type="line" name="hr00" smooth="yes"/>
      <point x="67" y="700"/>
      <point x="55" y="688"/>
      <point x="55" y="673" type="curve" smooth="yes"/>
      <point x="55" y="27" type="line" smooth="yes"/>
      <point x="55" y="12"/>
      <point x="67" y="0"/>
      <point x="82" y="0" type="curve" smooth="yes"/>
      <point x="273" y="0" type="line" smooth="yes"/>
      <point x="288" y="0"/>
      <point x="300" y="12"/>
      <point x="300" y="27" type="curve" smooth="yes"/>
      <point x="300" y="215" type="line"/>
      <point x="566" y="215" type="line" smooth="yes"/>
      <point x="581" y="215"/>
      <point x="593" y="227"/>
      <point x="593" y="242" type="curve" smooth="yes"/>
      <point x="593" y="393" type="line" smooth="yes"/>
      <point x="593" y="408"/>
      <point x="581" y="420"/>
      <point x="566" y="420" type="curve" smooth="yes"/>
      <point x="300" y="420" type="line"/>
      <point x="300" y="494" type="line"/>
      <point x="586" y="494" type="line" smooth="yes"/>
      <point x="601" y="494"/>
      <point x="613" y="506"/>
      <point x="613" y="521" type="curve" smooth="yes"/>
      <point x="613" y="673" type="line" smooth="yes"/>
      <point x="613" y="688"/>
      <point x="601" y="700"/>
      <point x="586" y="700" type="curve" smooth="yes"/>
    </contour>
  </outline>
</glyph>
<glyph name="G" format="1">
  <advance width="753"/>
  <unicode hex="0047"/>
  <outline>
    <contour>
      <point x="374" y="515" type="curve" smooth="yes"/>
      <point x="423" y="515"/>
      <point x="438" y="486"/>
      <point x="446" y="476" type="curve" smooth="yes"/>
      <point x="452" y="469"/>
      <point x="460" y="465"/>
      <point x="475" y="465" type="curve" name="hr01" smooth="yes"/>
      <point x="696" y="465" type="line" smooth="yes"/>
      <point x="708" y="465"/>
      <point x="718" y="475"/>
      <point x="718" y="487" type="curve" smooth="yes"/>
      <point x="715" y="608"/>
      <point x="585" y="710"/>
      <point x="374" y="710" type="curve" smooth="yes"/>
      <point x="177" y="710"/>
      <point x="44" y="622"/>
      <point x="37" y="445" type="curve"/>
      <point x="35" y="388"/>
      <point x="35" y="319"/>
      <point x="37" y="265" type="curve" smooth="yes"/>
      <point x="45" y="79"/>
      <point x="172" y="-10"/>
      <point x="374" y="-10" type="curve" smooth="yes"/>
      <point x="576" y="-10"/>
      <point x="718" y="85"/>
      <point x="718" y="265" type="curve" smooth="yes"/>
      <point x="718" y="395" type="line" smooth="yes"/>
      <point x="718" y="410"/>
      <point x="706" y="422"/>
      <point x="691" y="422" type="curve" smooth="yes"/>
      <point x="416" y="422" type="line" smooth="yes"/>
      <point x="401" y="422"/>
      <point x="389" y="410"/>
      <point x="389" y="395" type="curve" smooth="yes"/>
      <point x="389" y="284" type="line" smooth="yes"/>
      <point x="389" y="269"/>
      <point x="401" y="257"/>
      <point x="416" y="257" type="curve" smooth="yes"/>
      <point x="463" y="257" type="line"/>
      <point x="463" y="205"/>
      <point x="428" y="185"/>
      <point x="378" y="185" type="curve" smooth="yes"/>
      <point x="329" y="185"/>
      <point x="299" y="210"/>
      <point x="297" y="270" type="curve"/>
      <point x="295" y="327"/>
      <point x="295" y="385"/>
      <point x="297" y="440" type="curve"/>
      <point x="299" y="490"/>
      <point x="325" y="515"/>
    </contour>
  </outline>
</glyph>
<glyph name="L" format="1">
  <advance width="626"/>
  <unicode hex="004C"/>
  <outline>
    <contour>
      <point x="309" y="205" type="line" name="hr00"/>
      <point x="309" y="673" type="line" smooth="yes"/>
      <point x="309" y="688"/>
      <point x="297" y="700"/>
      <point x="282" y="700" type="curve" smooth="yes"/>
      <point x="82" y="700" type="line" smooth="yes"/>
      <point x="67" y="700"/>
      <point x="55" y="688"/>
      <point x="55" y="673" type="curve" smooth="yes"/>
      <point x="55" y="27" type="line" smooth="yes"/>
      <point x="55" y="12"/>
      <point x="67" y="0"/>
      <point x="82" y="0" type="curve" smooth="yes"/>
      <point x="586" y="0" type="line" smooth="yes"/>
      <point x="601" y="0"/>
      <point x="613" y="12"/>
      <point x="613" y="27" type="curve" smooth="yes"/>
      <point x="613" y="178" type="line" smooth="yes"/>
      <point x="613" y="193"/>
      <point x="601" y="205"/>
      <point x="586" y="205" type="curve" smooth="yes"/>
    </contour>
  </outline>
</glyph>
<glyph name="M" format="1">
  <advance width="856"/>
  <unicode hex="004D"/>
  <outline>
    <contour>
      <point x="428" y="433" type="line" name="hr00"/>
      <point x="573" y="673" type="line" smooth="yes"/>
      <point x="577" y="680"/>
      <point x="589" y="700"/>
      <point x="616" y="700" type="curve" smooth="yes"/>
      <point x="774" y="700" type="line" smooth="yes"/>
      <point x="789" y="700"/>
      <point x="801" y="688"/>
      <point x="801" y="673" type="curve" smooth="yes"/>
      <point x="801" y="27" type="line" smooth="yes"/>
      <point x="801" y="12"/>
      <point x="789" y="0"/>
      <point x="774" y="0" type="curve" smooth="yes"/>
      <point x="593" y="0" type="line" smooth="yes"/>
      <point x="578" y="0"/>
      <point x="566" y="12"/>
      <point x="566" y="27" type="curve" smooth="yes"/>
      <point x="566" y="301" type="line"/>
      <point x="500" y="193" type="line" smooth="yes"/>
      <point x="493" y="182"/>
      <point x="483" y="168"/>
      <point x="463" y="168" type="curve" smooth="yes"/>
      <point x="393" y="168" type="line" smooth="yes"/>
      <point x="373" y="168"/>
      <point x="363" y="182"/>
      <point x="356" y="193" type="curve" smooth="yes"/>
      <point x="290" y="301" type="line"/>
      <point x="290" y="27" type="line" smooth="yes"/>
      <point x="290" y="12"/>
      <point x="278" y="0"/>
      <point x="263" y="0" type="curve" smooth="yes"/>
      <point x="82" y="0" type="line" smooth="yes"/>
      <point x="67" y="0"/>
      <point x="55" y="12"/>
      <point x="55" y="27" type="curve" smooth="yes"/>
      <point x="55" y="673" type="line" smooth="yes"/>
      <point x="55" y="688"/>
      <point x="67" y="700"/>
      <point x="82" y="700" type="curve" smooth="yes"/>
      <point x="240" y="700" type="line" smooth="yes"/>
      <point x="267" y="700"/>
      <point x="279" y="680"/>
      <point x="283" y="673" type="curve" smooth="yes"/>
    </contour>
  </outline>
</glyph>
<glyph name="N" format="1">
  <advance width="740"/>
  <unicode hex="004E"/>
  <outline>
    <contour>
      <point x="477" y="700" type="line" name="hr00" smooth="yes"/>
      <point x="462" y="700"/>
      <point x="450" y="688"/>
      <point x="450" y="673" type="curve" smooth="yes"/>
      <point x="450" y="400" type="line"/>
      <point x="281" y="677" type="line" smooth="yes"/>
      <point x="277" y="684"/>
      <point x="267" y="700"/>
      <point x="240" y="700" type="curve" smooth="yes"/>
      <point x="82" y="700" type="line" smooth="yes"/>
      <point x="67" y="700"/>
      <point x="55" y="688"/>
      <point x="55" y="673" type="curve" smooth="yes"/>
      <point x="55" y="27" type="line" smooth="yes"/>
      <point x="55" y="12"/>
      <point x="67" y="0"/>
      <point x="82" y="0" type="curve" smooth="yes"/>
      <point x="263" y="0" type="line" smooth="yes"/>
      <point x="278" y="0"/>
      <point x="290" y="12"/>
      <point x="290" y="27" type="curve" smooth="yes"/>
      <point x="290" y="278" type="line"/>
      <point x="459" y="23" type="line" smooth="yes"/>
      <point x="463" y="17"/>
      <point x="473" y="0"/>
      <point x="500" y="0" type="curve" smooth="yes"/>
      <point x="658" y="0" type="line" smooth="yes"/>
      <point x="673" y="0"/>
      <point x="685" y="12"/>
      <point x="685" y="27" type="curve" smooth="yes"/>
      <point x="685" y="673" type="line" smooth="yes"/>
      <point x="685" y="688"/>
      <point x="673" y="700"/>
      <point x="658" y="700" type="curve" smooth="yes"/>
    </contour>
  </outline>
</glyph>
<glyph name="O" format="1">
  <advance width="742"/>
  <unicode hex="004F"/>
  <outline>
    <contour>
      <point x="705" y="436" type="curve" name="hr00" smooth="yes"/>
      <point x="698" y="611"/>
      <point x="567" y="710"/>
      <point x="371" y="710" type="curve" smooth="yes"/>
      <point x="175" y="710"/>
      <point x="44" y="611"/>
      <point x="37" y="436" type="curve" smooth="yes"/>
      <point x="35" y="379"/>
      <point x="35" y="314"/>
      <point x="37" y="260" type="curve" smooth="yes"/>
      <point x="45" y="81"/>
      <point x="175" y="-10"/>
      <point x="371" y="-10" type="curve" smooth="yes"/>
      <point x="567" y="-10"/>
      <point x="697" y="81"/>
      <point x="705" y="260" type="curve" smooth="yes"/>
      <point x="707" y="314"/>
      <point x="707" y="379"/>
    </contour>
    <contour>
      <point x="297" y="266" type="curve" smooth="yes"/>
      <point x="295" y="323"/>
      <point x="295" y="379"/>
      <point x="297" y="434" type="curve" smooth="yes"/>
      <point x="299" y="490"/>
      <point x="328" y="515"/>
      <point x="371" y="515" type="curve" smooth="yes"/>
      <point x="414" y="515"/>
      <point x="443" y="490"/>
      <point x="445" y="434" type="curve" smooth="yes"/>
      <point x="447" y="379"/>
      <point x="447" y="323"/>
      <point x="445" y="266" type="curve" smooth="yes"/>
      <point x="443" y="210"/>
      <point x="415" y="185"/>
      <point x="371" y="185" type="curve" smooth="yes"/>
      <point x="327" y="185"/>
      <point x="299" y="210"/>
    </contour>
  </outline>
</glyph>
<glyph name="P" format="1">
  <advance width="705"/>
  <unicode hex="0050"/>
  <outline>
    <contour>
      <point x="82" y="700" type="line" name="hr00" smooth="yes"/>
      <point x="67" y="700"/>
      <point x="55" y="688"/>
      <point x="55" y="673" type="curve" smooth="yes"/>
      <point x="55" y="27" type="line" smooth="yes"/>
      <point x="55" y="12"/>
      <point x="67" y="0"/>
      <point x="82" y="0" type="curve" smooth="yes"/>
      <point x="288" y="0" type="line" smooth="yes"/>
      <point x="303" y="0"/>
      <point x="315" y="12"/>
      <point x="315" y="27" type="curve" smooth="yes"/>
      <point x="315" y="218" type="line"/>
      <point x="385" y="218" type="line" smooth="yes"/>
      <point x="566" y="218"/>
      <point x="686" y="289"/>
      <point x="686" y="455" type="curve" smooth="yes"/>
      <point x="686" y="621"/>
      <point x="566" y="700"/>
      <point x="385" y="700" type="curve" smooth="yes"/>
    </contour>
    <contour>
      <point x="310" y="514" type="line"/>
      <point x="380" y="514" type="line" smooth="yes"/>
      <point x="416" y="514"/>
      <point x="426" y="482"/>
      <point x="426" y="457" type="curve" smooth="yes"/>
      <point x="426" y="418"/>
      <point x="401" y="403"/>
      <point x="380" y="403" type="curve" smooth="yes"/>
      <point x="310" y="403" type="line"/>
    </contour>
  </outline>
</glyph>
<glyph name="Q" format="1">
  <advance width="742"/>
  <unicode hex="0051"/>
  <outline>
    <contour>
      <point x="704" y="436" type="curve" smooth="yes"/>
      <point x="697" y="611"/>
      <point x="566" y="710"/>
      <point x="370" y="710" type="curve" smooth="yes"/>
      <point x="174" y="710"/>
      <point x="43" y="611"/>
      <point x="36" y="436" type="curve" smooth="yes"/>
      <point x="34" y="379"/>
      <point x="34" y="314"/>
      <point x="36" y="260" type="curve" smooth="yes"/>
      <point x="44" y="81"/>
      <point x="174" y="-10"/>
      <point x="370" y="-10" type="curve" smooth="yes"/>
      <point x="390" y="-10"/>
      <point x="410" y="-9"/>
      <point x="428" y="-7" type="curve"/>
      <point x="456" y="-42" type="line"/>
      <point x="462" y="-50"/>
      <point x="473" y="-65"/>
      <point x="498" y="-65" type="curve" name="hr01"/>
      <point x="694" y="-65" type="line"/>
      <point x="706" y="-65"/>
      <point x="716" y="-55"/>
      <point x="714" y="-43" type="curve" smooth="yes"/>
      <point x="714" y="-40"/>
      <point x="712" y="-36"/>
      <point x="711" y="-34" type="curve"/>
      <point x="632" y="79" type="line"/>
      <point x="675" y="123"/>
      <point x="700" y="184"/>
      <point x="704" y="260" type="curve" smooth="yes"/>
      <point x="706" y="314"/>
      <point x="706" y="379"/>
    </contour>
    <contour>
      <point x="296" y="266" type="curve" smooth="yes"/>
      <point x="294" y="323"/>
      <point x="294" y="379"/>
      <point x="296" y="434" type="curve" smooth="yes"/>
      <point x="298" y="490"/>
      <point x="327" y="515"/>
      <point x="370" y="515" type="curve" smooth="yes"/>
      <point x="413" y="515"/>
      <point x="442" y="490"/>
      <point x="444" y="434" type="curve" smooth="yes"/>
      <point x="446" y="379"/>
      <point x="446" y="323"/>
      <point x="444" y="266" type="curve" smooth="yes"/>
      <point x="442" y="210"/>
      <point x="414" y="185"/>
      <point x="370" y="185" type="curve" smooth="yes"/>
      <point x="326" y="185"/>
      <point x="298" y="210"/>
    </contour>
  </outline>
</glyph>
<glyph name="R" format="1">
  <advance width="722"/>
  <unicode hex="0052"/>
  <outline>
    <contour>
      <point x="576" y="261" type="line" name="hr00"/>
      <point x="639" y="301"/>
      <point x="684" y="367"/>
      <point x="684" y="457" type="curve" smooth="yes"/>
      <point x="684" y="608"/>
      <point x="570" y="700"/>
      <point x="378" y="700" type="curve" smooth="yes"/>
      <point x="82" y="700" type="line" smooth="yes"/>
      <point x="67" y="700"/>
      <point x="55" y="688"/>
      <point x="55" y="673" type="curve" smooth="yes"/>
      <point x="55" y="27" type="line" smooth="yes"/>
      <point x="55" y="12"/>
      <point x="67" y="0"/>
      <point x="82" y="0" type="curve" smooth="yes"/>
      <point x="278" y="0" type="line" smooth="yes"/>
      <point x="293" y="0"/>
      <point x="305" y="12"/>
      <point x="305" y="27" type="curve" smooth="yes"/>
      <point x="305" y="218" type="line"/>
      <point x="346" y="218" type="line"/>
      <point x="432" y="27" type="line" smooth="yes"/>
      <point x="436" y="18"/>
      <point x="448" y="0"/>
      <point x="475" y="0" type="curve" smooth="yes"/>
      <point x="680" y="0" type="line" smooth="yes"/>
      <point x="692" y="0"/>
      <point x="702" y="10"/>
      <point x="702" y="22" type="curve" smooth="yes"/>
      <point x="702" y="27"/>
      <point x="701" y="29"/>
      <point x="699" y="33" type="curve" smooth="yes"/>
    </contour>
    <contour>
      <point x="305" y="514" type="line"/>
      <point x="378" y="514" type="line" smooth="yes"/>
      <point x="411" y="514"/>
      <point x="424" y="485"/>
      <point x="424" y="459" type="curve" smooth="yes"/>
      <point x="424" y="432"/>
      <point x="409" y="408"/>
      <point x="378" y="408" type="curve" smooth="yes"/>
      <point x="305" y="408" type="line"/>
    </contour>
  </outline>
</glyph>
<glyph name="S" format="1">
  <advance width="697"/>
  <unicode hex="0053"/>
  <outline>
    <contour>
      <point x="340" y="710" type="curve" smooth="yes"/>
      <point x="158" y="710"/>
      <point x="35" y="616"/>
      <point x="35" y="480" type="curve" smooth="yes"/>
      <point x="35" y="347"/>
      <point x="135" y="281"/>
      <point x="293" y="260" type="curve" smooth="yes"/>
      <point x="392" y="247"/>
      <point x="422" y="237"/>
      <point x="422" y="213" type="curve" smooth="yes"/>
      <point x="422" y="195"/>
      <point x="392" y="185"/>
      <point x="347" y="185" type="curve" smooth="yes"/>
      <point x="314" y="185"/>
      <point x="292" y="193"/>
      <point x="273" y="208" type="curve" smooth="yes"/>
      <point x="259" y="219"/>
      <point x="251" y="225"/>
      <point x="230" y="225" type="curve" name="hr01" smooth="yes"/>
      <point x="40" y="225" type="line" smooth="yes"/>
      <point x="28" y="225"/>
      <point x="18" y="215"/>
      <point x="18" y="203" type="curve" smooth="yes"/>
      <point x="21" y="92"/>
      <point x="126" y="-10"/>
      <point x="347" y="-10" type="curve" smooth="yes"/>
      <point x="536" y="-10"/>
      <point x="679" y="80"/>
      <point x="679" y="226" type="curve" smooth="yes"/>
      <point x="679" y="356"/>
      <point x="603" y="419"/>
      <point x="403" y="444" type="curve" smooth="yes"/>
      <point x="313" y="455"/>
      <point x="292" y="468"/>
      <point x="292" y="487" type="curve" smooth="yes"/>
      <point x="292" y="504"/>
      <point x="306" y="515"/>
      <point x="340" y="515" type="curve" smooth="yes"/>
      <point x="368" y="515"/>
      <point x="386" y="503"/>
      <point x="393" y="497" type="curve" smooth="yes"/>
      <point x="405" y="486"/>
      <point x="414" y="481"/>
      <point x="433" y="481" type="curve" name="hr02" smooth="yes"/>
      <point x="633" y="481" type="line" smooth="yes"/>
      <point x="644" y="481"/>
      <point x="654" y="491"/>
      <point x="654" y="503" type="curve" smooth="yes"/>
      <point x="651" y="590"/>
      <point x="540" y="710"/>
    </contour>
  </outline>
</glyph>
<glyph name="W" format="1">
  <advance width="856"/>
  <unicode hex="0057"/>
  <outline>
    <contour>
      <point x="428" y="232" type="line" name="hr00"/>
      <point x="346" y="27" type="line" smooth="yes"/>
      <point x="343" y="19"/>
      <point x="332" y="0"/>
      <point x="305" y="0" type="curve" smooth="yes"/>
      <point x="162" y="0" type="line" smooth="yes"/>
      <point x="135" y="0"/>
      <point x="118" y="20"/>
      <point x="116" y="38" type="curve"/>
      <point x="24" y="675" type="line"/>
      <point x="24" y="676"/>
      <point x="24" y="677"/>
      <point x="24" y="678" type="curve" smooth="yes"/>
      <point x="24" y="690"/>
      <point x="34" y="700"/>
      <point x="46" y="700" type="curve" smooth="yes"/>
      <point x="232" y="700" type="line" smooth="yes"/>
      <point x="255" y="700"/>
      <point x="266" y="693"/>
      <point x="268" y="673" type="curve" smooth="yes"/>
      <point x="302" y="391" type="line"/>
      <point x="343" y="516" type="line" smooth="yes"/>
      <point x="346" y="525"/>
      <point x="353" y="545"/>
      <point x="377" y="545" type="curve" smooth="yes"/>
      <point x="479" y="545" type="line" smooth="yes"/>
      <point x="503" y="545"/>
      <point x="510" y="525"/>
      <point x="513" y="516" type="curve" smooth="yes"/>
      <point x="554" y="392" type="line"/>
      <point x="588" y="673" type="line" smooth="yes"/>
      <point x="590" y="693"/>
      <point x="601" y="700"/>
      <point x="624" y="700" type="curve" smooth="yes"/>
      <point x="810" y="700" type="line" smooth="yes"/>
      <point x="822" y="700"/>
      <point x="832" y="690"/>
      <point x="832" y="678" type="curve" smooth="yes"/>
      <point x="832" y="677"/>
      <point x="832" y="676"/>
      <point x="832" y="675" type="curve"/>
      <point x="740" y="38" type="line"/>
      <point x="738" y="20"/>
      <point x="721" y="0"/>
      <point x="694" y="0" type="curve" smooth="yes"/>
      <point x="551" y="0" type="line" smooth="yes"/>
      <point x="524" y="0"/>
      <point x="513" y="19"/>
      <point x="510" y="27" type="curve" smooth="yes"/>
    </contour>
  </outline>
</glyph>
<glyph name="X" format="1">
  <advance width="739"/>
  <unicode hex="0058"/>
  <outline>
    <contour>
      <point x="716" y="667" type="line" name="hr00" smooth="yes"/>
      <point x="719" y="672"/>
      <point x="719" y="673"/>
      <point x="719" y="678" type="curve" smooth="yes"/>
      <point x="719" y="690"/>
      <point x="709" y="700"/>
      <point x="697" y="700" type="curve" smooth="yes"/>
      <point x="490" y="700" type="line" smooth="yes"/>
      <point x="464" y="700"/>
      <point x="452" y="682"/>
      <point x="448" y="675" type="curve" smooth="yes"/>
      <point x="372" y="553" type="line"/>
      <point x="302" y="675" type="line" smooth="yes"/>
      <point x="298" y="682"/>
      <point x="286" y="700"/>
      <point x="260" y="700" type="curve" smooth="yes"/>
      <point x="43" y="700" type="line" smooth="yes"/>
      <point x="31" y="700"/>
      <point x="21" y="690"/>
      <point x="21" y="678" type="curve" smooth="yes"/>
      <point x="21" y="673"/>
      <point x="22" y="671"/>
      <point x="24" y="667" type="curve" smooth="yes"/>
      <point x="213" y="358" type="line"/>
      <point x="3" y="33" type="line" smooth="yes"/>
      <point x="0" y="28"/>
      <point x="0" y="24"/>
      <point x="0" y="22" type="curve" smooth="yes"/>
      <point x="0" y="10"/>
      <point x="10" y="0"/>
      <point x="22" y="0" type="curve" smooth="yes"/>
      <point x="240" y="0" type="line" smooth="yes"/>
      <point x="266" y="0"/>
      <point x="278" y="18"/>
      <point x="281" y="23" type="curve" smooth="yes"/>
      <point x="364" y="157" type="line"/>
      <point x="451" y="23" type="line" smooth="yes"/>
      <point x="454" y="18"/>
      <point x="466" y="0"/>
      <point x="492" y="0" type="curve" smooth="yes"/>
      <point x="717" y="0" type="line" smooth="yes"/>
      <point x="729" y="0"/>
      <point x="739" y="10"/>
      <point x="739" y="22" type="curve" smooth="yes"/>
      <point x="739" y="24"/>
      <point x="739" y="28"/>
      <point x="736" y="33" type="curve" smooth="yes"/>
      <point x="523" y="361" type="line"/>
    </contour>
  </outline>
</glyph>
<glyph name="Y" format="1">
  <advance width="710"/>
  <unicode hex="0059"/>
  <outline>
    <contour>
      <point x="453" y="0" type="line" name="hr00" smooth="yes"/>
      <point x="468" y="0"/>
      <point x="480" y="12"/>
      <point x="480" y="27" type="curve" smooth="yes"/>
      <point x="480" y="224" type="line"/>
      <point x="705" y="669" type="line" smooth="yes"/>
      <point x="706" y="671"/>
      <point x="707" y="675"/>
      <point x="707" y="678" type="curve" smooth="yes"/>
      <point x="707" y="690"/>
      <point x="697" y="700"/>
      <point x="685" y="700" type="curve" smooth="yes"/>
      <point x="497" y="700" type="line" smooth="yes"/>
      <point x="470" y="700"/>
      <point x="458" y="681"/>
      <point x="455" y="675" type="curve" smooth="yes"/>
      <point x="355" y="474" type="line"/>
      <point x="255" y="675" type="line" smooth="yes"/>
      <point x="252" y="681"/>
      <point x="240" y="700"/>
      <point x="213" y="700" type="curve" smooth="yes"/>
      <point x="25" y="700" type="line" smooth="yes"/>
      <point x="13" y="700"/>
      <point x="3" y="690"/>
      <point x="3" y="678" type="curve" smooth="yes"/>
      <point x="3" y="675"/>
      <point x="4" y="671"/>
      <point x="5" y="669" type="curve" smooth="yes"/>
      <point x="230" y="224" type="line"/>
      <point x="230" y="27" type="line" smooth="yes"/>
      <point x="230" y="12"/>
      <point x="242" y="0"/>
      <point x="257" y="0" type="curve" smooth="yes"/>
    </contour>
  </outline>
</glyph>
<glyph name="Z" format="1">
  <advance width="693"/>
  <unicode hex="005A"/>
  <outline>
    <contour>
      <point x="369" y="205" type="line" name="hr00"/>
      <point x="634" y="498" type="line" smooth="yes"/>
      <point x="642" y="506"/>
      <point x="647" y="517"/>
      <point x="647" y="531" type="curve" smooth="yes"/>
      <point x="647" y="673" type="line" smooth="yes"/>
      <point x="647" y="688"/>
      <point x="635" y="700"/>
      <point x="620" y="700" type="curve" smooth="yes"/>
      <point x="72" y="700" type="line" smooth="yes"/>
      <point x="57" y="700"/>
      <point x="45" y="688"/>
      <point x="45" y="673" type="curve" smooth="yes"/>
      <point x="45" y="524" type="line" smooth="yes"/>
      <point x="45" y="509"/>
      <point x="57" y="497"/>
      <point x="72" y="497" type="curve" smooth="yes"/>
      <point x="330" y="497" type="line"/>
      <point x="50" y="206" type="line" smooth="yes"/>
      <point x="45" y="201"/>
      <point x="35" y="190"/>
      <point x="35" y="171" type="curve" smooth="yes"/>
      <point x="35" y="27" type="line" smooth="yes"/>
      <point x="35" y="12"/>
      <point x="47" y="0"/>
      <point x="62" y="0" type="curve" smooth="yes"/>
      <point x="633" y="0" type="line" smooth="yes"/>
      <point x="648" y="0"/>
      <point x="660" y="12"/>
      <point x="660" y="27" type="curve" smooth="yes"/>
      <point x="660" y="178" type="line" smooth="yes"/>
      <point x="660" y="193"/>
      <point x="648" y="205"/>
      <point x="633" y="205" type="curve" smooth="yes"/>
    </contour>
  </outline>
</glyph>
<glyph name="bracketleft" format="1">
  <advance width="432"/>
  <unicode hex="005B"/>
  <outline>
    <contour>
      <point x="78" y="776" type="line" name="hr00" smooth="yes"/>
      <point x="63" y="776"/>
      <point x="51" y="764"/>
      <point x="51" y="749" type="curve" smooth="yes"/>
      <point x="51" y="-132" type="line" smooth="yes"/>
      <point x="51" y="-147"/>
      <point x="63" y="-159"/>
      <point x="78" y="-159" type="curve" smooth="yes"/>
      <point x="381" y="-159" type="line" smooth="yes"/>
      <point x="396" y="-159"/>
      <point x="408" y="-147"/>
      <point x="408" y="-132" type="curve" smooth="yes"/>
      <point x="408" y="15" type="line" smooth="yes"/>
      <point x="408" y="30"/>
      <point x="396" y="42"/>
      <point x="381" y="42" type="curve" smooth="yes"/>
      <point x="262" y="42" type="line"/>
      <point x="262" y="593" type="line"/>
      <point x="381" y="593" type="line" smooth="yes"/>
      <point x="396" y="593"/>
      <point x="408" y="605"/>
      <point x="408" y="620" type="curve" smooth="yes"/>
      <point x="408" y="749" type="line" smooth="yes"/>
      <point x="408" y="764"/>
      <point x="396" y="776"/>
      <point x="381" y="776" type="curve" smooth="yes"/>
    </contour>
  </outline>
</glyph>
<glyph name="backslash" format="1">
  <advance width="578"/>
  <unicode hex="005C"/>
  <outline>
    <contour>
      <point x="555" y="-53" type="line" name="hr00"/>
      <point x="557" y="-58"/>
      <point x="557" y="-60"/>
      <point x="557" y="-62" type="curve" smooth="yes"/>
      <point x="557" y="-74"/>
      <point x="547" y="-84"/>
      <point x="535" y="-84" type="curve" smooth="yes"/>
      <point x="404" y="-84" type="line" smooth="yes"/>
      <point x="377" y="-84"/>
      <point x="365" y="-67"/>
      <point x="360" y="-54" type="curve" smooth="yes"/>
      <point x="22" y="755" type="line" smooth="yes"/>
      <point x="20" y="760"/>
      <point x="20" y="762"/>
      <point x="20" y="764" type="curve" smooth="yes"/>
      <point x="20" y="776"/>
      <point x="30" y="786"/>
      <point x="42" y="786" type="curve" smooth="yes"/>
      <point x="176" y="786" type="line" smooth="yes"/>
      <point x="201" y="786"/>
      <point x="214" y="770"/>
      <point x="220" y="756" type="curve" smooth="yes"/>
    </contour>
  </outline>
</glyph>
<glyph name="asciicircum" format="1">
  <advance width="492"/>
  <unicode hex="005E"/>
  <outline>
    <contour>
      <point x="186" y="765" type="line" name="hr00" smooth="yes"/>
      <point x="171" y="765"/>
      <point x="162" y="760"/>
      <point x="149" y="746" type="curve" smooth="yes"/>
      <point x="37" y="624" type="line" smooth="yes"/>
      <point x="34" y="621"/>
      <point x="32" y="616"/>
      <point x="32" y="611" type="curve" smooth="yes"/>
      <point x="32" y="601"/>
      <point x="38" y="595"/>
      <point x="48" y="595" type="curve" smooth="yes"/>
      <point x="114" y="595" type="line" smooth="yes"/>
      <point x="127" y="595"/>
      <point x="140" y="595"/>
      <point x="154" y="602" type="curve" smooth="yes"/>
      <point x="246" y="644" type="line"/>
      <point x="338" y="602" type="line" smooth="yes"/>
      <point x="352" y="595"/>
      <point x="365" y="595"/>
      <point x="378" y="595" type="curve" smooth="yes"/>
      <point x="444" y="595" type="line" smooth="yes"/>
      <point x="454" y="595"/>
      <point x="460" y="601"/>
      <point x="460" y="611" type="curve" smooth="yes"/>
      <point x="460" y="616"/>
      <point x="458" y="621"/>
      <point x="455" y="624" type="curve" smooth="yes"/>
      <point x="343" y="746" type="line" smooth="yes"/>
      <point x="330" y="760"/>
      <point x="321" y="765"/>
      <point x="306" y="765" type="curve" smooth="yes"/>
    </contour>
  </outline>
</glyph>
<glyph name="underscore" format="1">
  <advance width="725"/>
  <unicode hex="005F"/>
  <outline>
    <contour>
      <point x="60" y="98" type="line" name="hr00" smooth="yes"/>
      <point x="45" y="98"/>
      <point x="33" y="86"/>
      <point x="33" y="71" type="curve" smooth="yes"/>
      <point x="33" y="-71" type="line" smooth="yes"/>
      <point x="33" y="-86"/>
      <point x="45" y="-98"/>
      <point x="60" y="-98" type="curve" smooth="yes"/>
      <point x="665" y="-98" type="line" smooth="yes"/>
      <point x="680" y="-98"/>
      <point x="692" y="-86"/>
      <point x="692" y="-71" type="curve" smooth="yes"/>
      <point x="692" y="71" type="line" smooth="yes"/>
      <point x="692" y="86"/>
      <point x="680" y="98"/>
      <point x="665" y="98" type="curve" smooth="yes"/>
    </contour>
  </outline>
</glyph>
<glyph name="grave" format="1">
  <advance width="450"/>
  <unicode hex="0060"/>
  <outline>
    <contour>
      <point x="295" y="746" type="line" name="hr00"/>
      <point x="280" y="763"/>
      <point x="273" y="765"/>
      <point x="258" y="765" type="curve" smooth="yes"/>
      <point x="72" y="765" type="line" smooth="yes"/>
      <point x="60" y="765"/>
      <point x="53" y="757"/>
      <point x="53" y="745" type="curve" smooth="yes"/>
      <point x="53" y="740"/>
      <point x="55" y="736"/>
      <point x="58" y="733" type="curve" smooth="yes"/>
      <point x="205" y="612" type="line" smooth="yes"/>
      <point x="216" y="603"/>
      <point x="226" y="595"/>
      <point x="247" y="595" type="curve" smooth="yes"/>
      <point x="384" y="595" type="line" smooth="yes"/>
      <point x="394" y="595"/>
      <point x="400" y="601"/>
      <point x="400" y="611" type="curve" smooth="yes"/>
      <point x="400" y="616"/>
      <point x="398" y="621"/>
      <point x="395" y="624" type="curve" smooth="yes"/>
    </contour>
  </outline>
</glyph>
<glyph name="b" format="1">
  <advance width="661"/>
  <unicode hex="0062"/>
  <outline>
    <contour>
      <point x="417" y="530" type="curve" smooth="yes"/>
      <point x="361" y="530"/>
      <point x="316" y="512"/>
      <point x="284" y="483" type="curve"/>
      <point x="284" y="683" type="line" smooth="yes"/>
      <point x="284" y="698"/>
      <point x="272" y="710"/>
      <point x="257" y="710" type="curve" smooth="yes"/>
      <point x="72" y="710" type="line" smooth="yes"/>
      <point x="57" y="710"/>
      <point x="45" y="698"/>
      <point x="45" y="683" type="curve" smooth="yes"/>
      <point x="45" y="27" type="line" smooth="yes"/>
      <point x="45" y="12"/>
      <point x="57" y="0"/>
      <point x="72" y="0" type="curve" smooth="yes"/>
      <point x="242" y="0" type="line" smooth="yes"/>
      <point x="257" y="0"/>
      <point x="269" y="12"/>
      <point x="269" y="27" type="curve" smooth="yes"/>
      <point x="269" y="50" type="line"/>
      <point x="301" y="14"/>
      <point x="348" y="-10"/>
      <point x="417" y="-10" type="curve" name="hr01" smooth="yes"/>
      <point x="533" y="-10"/>
      <point x="622" y="54"/>
      <point x="629" y="221" type="curve" smooth="yes"/>
      <point x="630" y="251"/>
      <point x="630" y="270"/>
      <point x="629" y="300" type="curve" smooth="yes"/>
      <point x="623" y="457"/>
      <point x="533" y="530"/>
    </contour>
    <contour>
      <point x="384" y="293" type="curve" smooth="yes"/>
      <point x="386" y="273"/>
      <point x="386" y="247"/>
      <point x="384" y="227" type="curve" smooth="yes"/>
      <point x="380" y="191"/>
      <point x="371" y="169"/>
      <point x="334" y="169" type="curve" name="hr02" smooth="yes"/>
      <point x="297" y="169"/>
      <point x="286" y="191"/>
      <point x="284" y="227" type="curve" smooth="yes"/>
      <point x="282" y="257"/>
      <point x="282" y="271"/>
      <point x="284" y="301" type="curve" smooth="yes"/>
      <point x="286" y="333"/>
      <point x="300" y="351"/>
      <point x="334" y="351" type="curve" smooth="yes"/>
      <point x="371" y="351"/>
      <point x="380" y="329"/>
    </contour>
  </outline>
</glyph>
<glyph name="c" format="1">
  <advance width="622"/>
  <unicode hex="0063"/>
  <outline>
    <contour>
      <point x="275" y="295" type="curve" smooth="yes"/>
      <point x="276" y="335"/>
      <point x="284" y="359"/>
      <point x="315" y="359" type="curve" smooth="yes"/>
      <point x="335" y="359"/>
      <point x="343" y="348"/>
      <point x="352" y="329" type="curve" smooth="yes"/>
      <point x="358" y="317"/>
      <point x="366" y="309"/>
      <point x="381" y="309" type="curve" name="hr01" smooth="yes"/>
      <point x="576" y="309" type="line" smooth="yes"/>
      <point x="591" y="309"/>
      <point x="604" y="321"/>
      <point x="603" y="336" type="curve" smooth="yes"/>
      <point x="600" y="389"/>
      <point x="521" y="530"/>
      <point x="310" y="530" type="curve" smooth="yes"/>
      <point x="157" y="530"/>
      <point x="37" y="448"/>
      <point x="30" y="300" type="curve" smooth="yes"/>
      <point x="29" y="277"/>
      <point x="29" y="240"/>
      <point x="30" y="219" type="curve" smooth="yes"/>
      <point x="38" y="71"/>
      <point x="157" y="-10"/>
      <point x="310" y="-10" type="curve" smooth="yes"/>
      <point x="531" y="-10"/>
      <point x="600" y="141"/>
      <point x="603" y="184" type="curve" smooth="yes"/>
      <point x="604" y="199"/>
      <point x="591" y="211"/>
      <point x="576" y="211" type="curve" smooth="yes"/>
      <point x="381" y="211" type="line" smooth="yes"/>
      <point x="366" y="211"/>
      <point x="357" y="203"/>
      <point x="352" y="191" type="curve" smooth="yes"/>
      <point x="344" y="172"/>
      <point x="339" y="161"/>
      <point x="315" y="161" type="curve" name="hr02" smooth="yes"/>
      <point x="284" y="161"/>
      <point x="277" y="181"/>
      <point x="275" y="224" type="curve" smooth="yes"/>
      <point x="274" y="243"/>
      <point x="274" y="266"/>
    </contour>
  </outline>
</glyph>
<glyph name="e" format="1">
  <advance width="623"/>
  <unicode hex="0065"/>
  <outline>
    <contour>
      <point x="571" y="201" type="line" smooth="yes"/>
      <point x="586" y="201"/>
      <point x="598" y="213"/>
      <point x="598" y="228" type="curve" smooth="yes"/>
      <point x="598" y="258" type="line" smooth="yes"/>
      <point x="598" y="405"/>
      <point x="509" y="530"/>
      <point x="313" y="530" type="curve" smooth="yes"/>
      <point x="140" y="530"/>
      <point x="28" y="435"/>
      <point x="28" y="259" type="curve" smooth="yes"/>
      <point x="28" y="72"/>
      <point x="139" y="-10"/>
      <point x="314" y="-10" type="curve" smooth="yes"/>
      <point x="499" y="-10"/>
      <point x="582" y="94"/>
      <point x="585" y="145" type="curve" smooth="yes"/>
      <point x="586" y="158"/>
      <point x="576" y="167"/>
      <point x="563" y="167" type="curve" smooth="yes"/>
      <point x="374" y="167" type="line" smooth="yes"/>
      <point x="358" y="167"/>
      <point x="353" y="165"/>
      <point x="341" y="153" type="curve" smooth="yes"/>
      <point x="330" y="142"/>
      <point x="324" y="135"/>
      <point x="312" y="135" type="curve" name="hr01" smooth="yes"/>
      <point x="283" y="135"/>
      <point x="273" y="156"/>
      <point x="273" y="196" type="curve" smooth="yes"/>
      <point x="273" y="201" type="line"/>
    </contour>
    <contour>
      <point x="313" y="390" type="curve" smooth="yes"/>
      <point x="339" y="390"/>
      <point x="353" y="371"/>
      <point x="353" y="326" type="curve"/>
      <point x="273" y="326" type="line"/>
      <point x="273" y="371"/>
      <point x="287" y="390"/>
    </contour>
  </outline>
</glyph>
<glyph name="g" format="1">
  <advance width="666"/>
  <unicode hex="0067"/>
  <outline>
    <contour>
      <point x="31" y="249" type="curve"/>
      <point x="40" y="82"/>
      <point x="117" y="23"/>
      <point x="243" y="23" type="curve" smooth="yes"/>
      <point x="301" y="23"/>
      <point x="345" y="39"/>
      <point x="376" y="66" type="curve"/>
      <point x="376" y="0" type="line"/>
      <point x="376" y="-40"/>
      <point x="362" y="-59"/>
      <point x="333" y="-59" type="curve" smooth="yes"/>
      <point x="309" y="-59"/>
      <point x="300" y="-51"/>
      <point x="291" y="-34" type="curve" smooth="yes"/>
      <point x="285" y="-22"/>
      <point x="278" y="-14"/>
      <point x="263" y="-14" type="curve" name="hr01"/>
      <point x="68" y="-14" type="line"/>
      <point x="53" y="-14"/>
      <point x="40" y="-26"/>
      <point x="41" y="-41" type="curve" smooth="yes"/>
      <point x="44" y="-84"/>
      <point x="112" y="-220"/>
      <point x="338" y="-220" type="curve" smooth="yes"/>
      <point x="496" y="-220"/>
      <point x="621" y="-151"/>
      <point x="621" y="17" type="curve"/>
      <point x="620" y="493" type="line"/>
      <point x="620" y="508"/>
      <point x="608" y="520"/>
      <point x="593" y="520" type="curve"/>
      <point x="418" y="520" type="line"/>
      <point x="403" y="520"/>
      <point x="391" y="508"/>
      <point x="391" y="493" type="curve"/>
      <point x="391" y="462" type="line"/>
      <point x="359" y="502"/>
      <point x="308" y="530"/>
      <point x="243" y="530" type="curve" name="hr02" smooth="yes"/>
      <point x="117" y="530"/>
      <point x="39" y="457"/>
      <point x="31" y="300" type="curve"/>
      <point x="30" y="280"/>
      <point x="30" y="269"/>
    </contour>
    <contour>
      <point x="376" y="301" type="curve" smooth="yes"/>
      <point x="377" y="291"/>
      <point x="377" y="257"/>
      <point x="376" y="247" type="curve" smooth="yes"/>
      <point x="373" y="215"/>
      <point x="360" y="197"/>
      <point x="326" y="197" type="curve" smooth="yes"/>
      <point x="289" y="197"/>
      <point x="279" y="219"/>
      <point x="276" y="255" type="curve" smooth="yes"/>
      <point x="275" y="265"/>
      <point x="275" y="283"/>
      <point x="276" y="293" type="curve"/>
      <point x="279" y="329"/>
      <point x="289" y="351"/>
      <point x="326" y="351" type="curve" name="hr03" smooth="yes"/>
      <point x="360" y="351"/>
      <point x="373" y="333"/>
    </contour>
  </outline>
</glyph>
<glyph name="h" format="1">
  <advance width="685"/>
  <unicode hex="0068"/>
  <outline>
    <contour>
      <point x="294" y="296" type="line" name="hr00" smooth="yes"/>
      <point x="294" y="332"/>
      <point x="313" y="351"/>
      <point x="345" y="351" type="curve" smooth="yes"/>
      <point x="377" y="351"/>
      <point x="395" y="332"/>
      <point x="395" y="296" type="curve" smooth="yes"/>
      <point x="395" y="27" type="line" smooth="yes"/>
      <point x="395" y="12"/>
      <point x="407" y="0"/>
      <point x="422" y="0" type="curve" smooth="yes"/>
      <point x="618" y="0" type="line" smooth="yes"/>
      <point x="633" y="0"/>
      <point x="645" y="12"/>
      <point x="645" y="27" type="curve" smooth="yes"/>
      <point x="645" y="303" type="line" smooth="yes"/>
      <point x="645" y="461"/>
      <point x="547" y="530"/>
      <point x="446" y="530" type="curve" smooth="yes"/>
      <point x="384" y="530"/>
      <point x="329" y="506"/>
      <point x="294" y="468" type="curve"/>
      <point x="294" y="683" type="line" smooth="yes"/>
      <point x="294" y="698"/>
      <point x="282" y="710"/>
      <point x="267" y="710" type="curve" smooth="yes"/>
      <point x="72" y="710" type="line" smooth="yes"/>
      <point x="57" y="710"/>
      <point x="45" y="698"/>
      <point x="45" y="683" type="curve" smooth="yes"/>
      <point x="45" y="27" type="line" smooth="yes"/>
      <point x="45" y="12"/>
      <point x="57" y="0"/>
      <point x="72" y="0" type="curve" smooth="yes"/>
      <point x="267" y="0" type="line" smooth="yes"/>
      <point x="282" y="0"/>
      <point x="294" y="12"/>
      <point x="294" y="27" type="curve" smooth="yes"/>
    </contour>
  </outline>
</glyph>
<glyph name="i" format="1">
  <advance width="323"/>
  <unicode hex="0069"/>
  <outline>
    <contour>
      <point x="251" y="0" type="line" name="hr00" smooth="yes"/>
      <point x="266" y="0"/>
      <point x="278" y="12"/>
      <point x="278" y="27" type="curve" smooth="yes"/>
      <point x="278" y="493" type="line" smooth="yes"/>
      <point x="278" y="508"/>
      <point x="266" y="520"/>
      <point x="251" y="520" type="curve" smooth="yes"/>
      <point x="72" y="520" type="line" smooth="yes"/>
      <point x="57" y="520"/>
      <point x="45" y="508"/>
      <point x="45" y="493" type="curve" smooth="yes"/>
      <point x="45" y="27" type="line" smooth="yes"/>
      <point x="45" y="12"/>
      <point x="57" y="0"/>
      <point x="72" y="0" type="curve" smooth="yes"/>
    </contour>
    <contour>
      <point x="273" y="723" type="line" smooth="yes"/>
      <point x="273" y="738"/>
      <point x="261" y="750"/>
      <point x="246" y="750" type="curve" smooth="yes"/>
      <point x="77" y="750" type="line" smooth="yes"/>
      <point x="62" y="750"/>
      <point x="50" y="738"/>
      <point x="50" y="723" type="curve" smooth="yes"/>
      <point x="50" y="602" type="line" smooth="yes"/>
      <point x="50" y="587"/>
      <point x="62" y="575"/>
      <point x="77" y="575" type="curve" smooth="yes"/>
      <point x="246" y="575" type="line" smooth="yes"/>
      <point x="261" y="575"/>
      <point x="273" y="587"/>
      <point x="273" y="602" type="curve" smooth="yes"/>
    </contour>
  </outline>
</glyph>
<glyph name="j" format="1">
  <advance width="345"/>
  <unicode hex="006A"/>
  <outline>
    <contour>
      <point x="45" y="-190" type="line" name="hr00" smooth="yes"/>
      <point x="190" y="-190"/>
      <point x="300" y="-121"/>
      <point x="300" y="29" type="curve" smooth="yes"/>
      <point x="300" y="493" type="line" smooth="yes"/>
      <point x="300" y="508"/>
      <point x="288" y="520"/>
      <point x="273" y="520" type="curve" smooth="yes"/>
      <point x="85" y="520" type="line" smooth="yes"/>
      <point x="70" y="520"/>
      <point x="58" y="508"/>
      <point x="58" y="493" type="curve" smooth="yes"/>
      <point x="58" y="35" type="line" smooth="yes"/>
      <point x="58" y="4"/>
      <point x="45" y="-15"/>
      <point x="15" y="-15" type="curve" smooth="yes"/>
      <point x="-43" y="-15" type="line" smooth="yes"/>
      <point x="-58" y="-15"/>
      <point x="-70" y="-27"/>
      <point x="-70" y="-42" type="curve" smooth="yes"/>
      <point x="-70" y="-163" type="line" smooth="yes"/>
      <point x="-70" y="-178"/>
      <point x="-58" y="-190"/>
      <point x="-43" y="-190" type="curve" smooth="yes"/>
    </contour>
    <contour>
      <point x="295" y="723" type="line" smooth="yes"/>
      <point x="295" y="738"/>
      <point x="283" y="750"/>
      <point x="268" y="750" type="curve" smooth="yes"/>
      <point x="90" y="750" type="line" smooth="yes"/>
      <point x="75" y="750"/>
      <point x="63" y="738"/>
      <point x="63" y="723" type="curve" smooth="yes"/>
      <point x="63" y="602" type="line" smooth="yes"/>
      <point x="63" y="587"/>
      <point x="75" y="575"/>
      <point x="90" y="575" type="curve" smooth="yes"/>
      <point x="268" y="575" type="line" smooth="yes"/>
      <point x="283" y="575"/>
      <point x="295" y="587"/>
      <point x="295" y="602" type="curve" smooth="yes"/>
    </contour>
  </outline>
</glyph>
<glyph name="k" format="1">
  <advance width="643"/>
  <unicode hex="006B"/>
  <outline>
    <contour>
      <point x="274" y="683" type="line" name="hr00" smooth="yes"/>
      <point x="274" y="698"/>
      <point x="262" y="710"/>
      <point x="247" y="710" type="curve" smooth="yes"/>
      <point x="72" y="710" type="line" smooth="yes"/>
      <point x="57" y="710"/>
      <point x="45" y="698"/>
      <point x="45" y="683" type="curve" smooth="yes"/>
      <point x="45" y="27" type="line" smooth="yes"/>
      <point x="45" y="12"/>
      <point x="57" y="0"/>
      <point x="72" y="0" type="curve" smooth="yes"/>
      <point x="247" y="0" type="line" smooth="yes"/>
      <point x="262" y="0"/>
      <point x="274" y="12"/>
      <point x="274" y="27" type="curve" smooth="yes"/>
      <point x="274" y="187" type="line"/>
      <point x="376" y="17" type="line" smooth="yes"/>
      <point x="378" y="14"/>
      <point x="387" y="0"/>
      <point x="407" y="0" type="curve" smooth="yes"/>
      <point x="617" y="0" type="line" smooth="yes"/>
      <point x="630" y="0"/>
      <point x="641" y="11"/>
      <point x="641" y="24" type="curve" smooth="yes"/>
      <point x="641" y="30"/>
      <point x="639" y="34"/>
      <point x="637" y="37" type="curve" smooth="yes"/>
      <point x="475" y="286" type="line"/>
      <point x="612" y="481" type="line" smooth="yes"/>
      <point x="614" y="484"/>
      <point x="617" y="490"/>
      <point x="617" y="496" type="curve" smooth="yes"/>
      <point x="617" y="509"/>
      <point x="606" y="520"/>
      <point x="593" y="520" type="curve" smooth="yes"/>
      <point x="391" y="520" type="line" smooth="yes"/>
      <point x="373" y="520"/>
      <point x="365" y="508"/>
      <point x="362" y="503" type="curve" smooth="yes"/>
      <point x="274" y="359" type="line"/>
    </contour>
  </outline>
</glyph>
<glyph name="l" format="1">
  <advance width="323"/>
  <unicode hex="006C"/>
  <outline>
    <contour>
      <point x="251" y="0" type="line" name="hr00" smooth="yes"/>
      <point x="266" y="0"/>
      <point x="278" y="12"/>
      <point x="278" y="27" type="curve" smooth="yes"/>
      <point x="278" y="683" type="line" smooth="yes"/>
      <point x="278" y="698"/>
      <point x="266" y="710"/>
      <point x="251" y="710" type="curve" smooth="yes"/>
      <point x="72" y="710" type="line" smooth="yes"/>
      <point x="57" y="710"/>
      <point x="45" y="698"/>
      <point x="45" y="683" type="curve" smooth="yes"/>
      <point x="45" y="27" type="line" smooth="yes"/>
      <point x="45" y="12"/>
      <point x="57" y="0"/>
      <point x="72" y="0" type="curve" smooth="yes"/>
    </contour>
  </outline>
</glyph>
<glyph name="m" format="1">
  <advance width="938"/>
  <unicode hex="006D"/>
  <outline>
    <contour>
      <point x="628" y="351" type="curve" smooth="yes"/>
      <point x="653" y="351"/>
      <point x="668" y="334"/>
      <point x="668" y="302" type="curve" smooth="yes"/>
      <point x="668" y="27" type="line" smooth="yes"/>
      <point x="668" y="12"/>
      <point x="680" y="0"/>
      <point x="695" y="0" type="curve" smooth="yes"/>
      <point x="871" y="0" type="line" smooth="yes"/>
      <point x="886" y="0"/>
      <point x="898" y="12"/>
      <point x="898" y="27" type="curve" smooth="yes"/>
      <point x="898" y="307" type="line" smooth="yes"/>
      <point x="898" y="465"/>
      <point x="815" y="530"/>
      <point x="714" y="530" type="curve" smooth="yes"/>
      <point x="653" y="530"/>
      <point x="592" y="494"/>
      <point x="561" y="448" type="curve"/>
      <point x="534" y="506"/>
      <point x="482" y="533"/>
      <point x="403" y="530" type="curve" smooth="yes"/>
      <point x="337" y="527"/>
      <point x="287" y="490"/>
      <point x="264" y="460" type="curve"/>
      <point x="264" y="493" type="line" smooth="yes"/>
      <point x="264" y="508"/>
      <point x="252" y="520"/>
      <point x="237" y="520" type="curve" name="hr01" smooth="yes"/>
      <point x="72" y="520" type="line" smooth="yes"/>
      <point x="57" y="520"/>
      <point x="45" y="508"/>
      <point x="45" y="493" type="curve" smooth="yes"/>
      <point x="45" y="27" type="line" smooth="yes"/>
      <point x="45" y="12"/>
      <point x="57" y="0"/>
      <point x="72" y="0" type="curve" smooth="yes"/>
      <point x="252" y="0" type="line" smooth="yes"/>
      <point x="267" y="0"/>
      <point x="279" y="12"/>
      <point x="279" y="27" type="curve" smooth="yes"/>
      <point x="279" y="302" type="line" smooth="yes"/>
      <point x="279" y="333"/>
      <point x="294" y="351"/>
      <point x="319" y="351" type="curve" name="hr02" smooth="yes"/>
      <point x="344" y="351"/>
      <point x="359" y="334"/>
      <point x="359" y="302" type="curve" smooth="yes"/>
      <point x="359" y="27" type="line" smooth="yes"/>
      <point x="359" y="12"/>
      <point x="371" y="0"/>
      <point x="386" y="0" type="curve" smooth="yes"/>
      <point x="562" y="0" type="line" smooth="yes"/>
      <point x="577" y="0"/>
      <point x="589" y="12"/>
      <point x="589" y="27" type="curve" smooth="yes"/>
      <point x="589" y="302" type="line" smooth="yes"/>
      <point x="589" y="334"/>
      <point x="603" y="351"/>
    </contour>
  </outline>
</glyph>
<glyph name="o" format="1">
  <advance width="642"/>
  <unicode hex="006F"/>
  <outline>
    <contour>
      <point x="321" y="530" type="curve" name="hr00" smooth="yes"/>
      <point x="148" y="530"/>
      <point x="41" y="454"/>
      <point x="31" y="307" type="curve" smooth="yes"/>
      <point x="29" y="277"/>
      <point x="29" y="243"/>
      <point x="31" y="213" type="curve" smooth="yes"/>
      <point x="41" y="66"/>
      <point x="137" y="-10"/>
      <point x="321" y="-10" type="curve" smooth="yes"/>
      <point x="505" y="-10"/>
      <point x="601" y="66"/>
      <point x="611" y="213" type="curve" smooth="yes"/>
      <point x="613" y="243"/>
      <point x="613" y="277"/>
      <point x="611" y="307" type="curve" smooth="yes"/>
      <point x="601" y="454"/>
      <point x="494" y="530"/>
    </contour>
    <contour>
      <point x="366" y="302" type="curve" smooth="yes"/>
      <point x="367" y="282"/>
      <point x="367" y="238"/>
      <point x="366" y="218" type="curve" smooth="yes"/>
      <point x="363" y="171"/>
      <point x="359" y="150"/>
      <point x="321" y="150" type="curve" smooth="yes"/>
      <point x="283" y="150"/>
      <point x="279" y="171"/>
      <point x="276" y="218" type="curve" smooth="yes"/>
      <point x="275" y="238"/>
      <point x="275" y="282"/>
      <point x="276" y="302" type="curve" smooth="yes"/>
      <point x="279" y="346"/>
      <point x="283" y="370"/>
      <point x="321" y="370" type="curve" smooth="yes"/>
      <point x="359" y="370"/>
      <point x="363" y="346"/>
    </contour>
  </outline>
</glyph>
<glyph name="p" format="1">
  <advance width="661"/>
  <unicode hex="0070"/>
  <outline>
    <contour>
      <point x="417" y="-10" type="curve" smooth="yes"/>
      <point x="533" y="-10"/>
      <point x="623" y="63"/>
      <point x="629" y="220" type="curve" smooth="yes"/>
      <point x="630" y="250"/>
      <point x="630" y="269"/>
      <point x="629" y="299" type="curve" smooth="yes"/>
      <point x="622" y="466"/>
      <point x="533" y="530"/>
      <point x="417" y="530" type="curve" smooth="yes"/>
      <point x="348" y="530"/>
      <point x="299" y="502"/>
      <point x="269" y="463" type="curve"/>
      <point x="269" y="493" type="line" smooth="yes"/>
      <point x="269" y="508"/>
      <point x="257" y="520"/>
      <point x="242" y="520" type="curve" name="hr01" smooth="yes"/>
      <point x="72" y="520" type="line" smooth="yes"/>
      <point x="57" y="520"/>
      <point x="45" y="508"/>
      <point x="45" y="493" type="curve" smooth="yes"/>
      <point x="45" y="-163" type="line" smooth="yes"/>
      <point x="45" y="-178"/>
      <point x="57" y="-190"/>
      <point x="72" y="-190" type="curve" smooth="yes"/>
      <point x="257" y="-190" type="line" smooth="yes"/>
      <point x="272" y="-190"/>
      <point x="284" y="-178"/>
      <point x="284" y="-163" type="curve" smooth="yes"/>
      <point x="284" y="50" type="line"/>
      <point x="314" y="7"/>
      <point x="361" y="-10"/>
    </contour>
    <contour>
      <point x="384" y="227" type="curve" smooth="yes"/>
      <point x="380" y="191"/>
      <point x="371" y="169"/>
      <point x="334" y="169" type="curve" smooth="yes"/>
      <point x="300" y="169"/>
      <point x="286" y="187"/>
      <point x="284" y="219" type="curve" smooth="yes"/>
      <point x="282" y="249"/>
      <point x="282" y="263"/>
      <point x="284" y="293" type="curve" smooth="yes"/>
      <point x="286" y="329"/>
      <point x="297" y="351"/>
      <point x="334" y="351" type="curve" name="hr02" smooth="yes"/>
      <point x="371" y="351"/>
      <point x="380" y="329"/>
      <point x="384" y="293" type="curve" smooth="yes"/>
      <point x="386" y="273"/>
      <point x="386" y="247"/>
    </contour>
  </outline>
</glyph>
<glyph name="q" format="1">
  <advance width="661"/>
  <unicode hex="0071"/>
  <outline>
    <contour>
      <point x="244" y="-10" type="curve" smooth="yes"/>
      <point x="300" y="-10"/>
      <point x="347" y="7"/>
      <point x="377" y="50" type="curve"/>
      <point x="377" y="-163" type="line" smooth="yes"/>
      <point x="377" y="-178"/>
      <point x="389" y="-190"/>
      <point x="404" y="-190" type="curve" smooth="yes"/>
      <point x="589" y="-190" type="line" smooth="yes"/>
      <point x="604" y="-190"/>
      <point x="616" y="-178"/>
      <point x="616" y="-163" type="curve" smooth="yes"/>
      <point x="616" y="493" type="line" smooth="yes"/>
      <point x="616" y="508"/>
      <point x="604" y="520"/>
      <point x="589" y="520" type="curve" smooth="yes"/>
      <point x="419" y="520" type="line" smooth="yes"/>
      <point x="404" y="520"/>
      <point x="392" y="508"/>
      <point x="392" y="493" type="curve" smooth="yes"/>
      <point x="392" y="463" type="line"/>
      <point x="362" y="502"/>
      <point x="313" y="530"/>
      <point x="244" y="530" type="curve" name="hr01" smooth="yes"/>
      <point x="128" y="530"/>
      <point x="39" y="466"/>
      <point x="32" y="299" type="curve" smooth="yes"/>
      <point x="31" y="269"/>
      <point x="31" y="250"/>
      <point x="32" y="220" type="curve" smooth="yes"/>
      <point x="38" y="63"/>
      <point x="128" y="-10"/>
    </contour>
    <contour>
      <point x="277" y="227" type="curve" smooth="yes"/>
      <point x="275" y="247"/>
      <point x="275" y="273"/>
      <point x="277" y="293" type="curve" smooth="yes"/>
      <point x="281" y="329"/>
      <point x="290" y="351"/>
      <point x="327" y="351" type="curve" name="hr02" smooth="yes"/>
      <point x="364" y="351"/>
      <point x="375" y="329"/>
      <point x="377" y="293" type="curve" smooth="yes"/>
      <point x="379" y="263"/>
      <point x="379" y="249"/>
      <point x="377" y="219" type="curve" smooth="yes"/>
      <point x="375" y="187"/>
      <point x="361" y="169"/>
      <point x="327" y="169" type="curve" smooth="yes"/>
      <point x="290" y="169"/>
      <point x="281" y="191"/>
    </contour>
  </outline>
</glyph>
<glyph name="r" format="1">
  <advance width="518"/>
  <unicode hex="0072"/>
  <outline>
    <contour>
      <point x="274" y="493" type="line" name="hr00" smooth="yes"/>
      <point x="274" y="508"/>
      <point x="262" y="520"/>
      <point x="247" y="520" type="curve" smooth="yes"/>
      <point x="72" y="520" type="line" smooth="yes"/>
      <point x="57" y="520"/>
      <point x="45" y="508"/>
      <point x="45" y="493" type="curve" smooth="yes"/>
      <point x="45" y="27" type="line" smooth="yes"/>
      <point x="45" y="12"/>
      <point x="57" y="0"/>
      <point x="72" y="0" type="curve" smooth="yes"/>
      <point x="262" y="0" type="line" smooth="yes"/>
      <point x="277" y="0"/>
      <point x="289" y="12"/>
      <point x="289" y="27" type="curve" smooth="yes"/>
      <point x="289" y="250" type="line" smooth="yes"/>
      <point x="289" y="290"/>
      <point x="309" y="310"/>
      <point x="349" y="310" type="curve" smooth="yes"/>
      <point x="478" y="310" type="line" smooth="yes"/>
      <point x="493" y="310"/>
      <point x="505" y="322"/>
      <point x="505" y="337" type="curve" smooth="yes"/>
      <point x="505" y="493" type="line" smooth="yes"/>
      <point x="505" y="508"/>
      <point x="493" y="520"/>
      <point x="478" y="520" type="curve" smooth="yes"/>
      <point x="430" y="520" type="line" smooth="yes"/>
      <point x="370" y="520"/>
      <point x="316" y="495"/>
      <point x="274" y="458" type="curve"/>
    </contour>
  </outline>
</glyph>
<glyph name="s" format="1">
  <advance width="590"/>
  <unicode hex="0073"/>
  <outline>
    <contour>
      <point x="319" y="145" type="curve" smooth="yes"/>
      <point x="319" y="135"/>
      <point x="307" y="130"/>
      <point x="296" y="130" type="curve" smooth="yes"/>
      <point x="263" y="130"/>
      <point x="249" y="160"/>
      <point x="220" y="160" type="curve" name="hr01" smooth="yes"/>
      <point x="46" y="160" type="line" smooth="yes"/>
      <point x="32" y="160"/>
      <point x="21" y="148"/>
      <point x="22" y="133" type="curve" smooth="yes"/>
      <point x="25" y="80"/>
      <point x="97" y="-10"/>
      <point x="289" y="-10" type="curve" smooth="yes"/>
      <point x="469" y="-10"/>
      <point x="569" y="55"/>
      <point x="569" y="162" type="curve" smooth="yes"/>
      <point x="569" y="230"/>
      <point x="518" y="309"/>
      <point x="374" y="330" type="curve" smooth="yes"/>
      <point x="270" y="345"/>
      <point x="264" y="357"/>
      <point x="264" y="374" type="curve" smooth="yes"/>
      <point x="264" y="383"/>
      <point x="274" y="390"/>
      <point x="284" y="390" type="curve" smooth="yes"/>
      <point x="313" y="390"/>
      <point x="328" y="360"/>
      <point x="357" y="360" type="curve" name="hr02" smooth="yes"/>
      <point x="525" y="360" type="line" smooth="yes"/>
      <point x="537" y="360"/>
      <point x="548" y="372"/>
      <point x="547" y="387" type="curve" smooth="yes"/>
      <point x="544" y="444"/>
      <point x="450" y="530"/>
      <point x="285" y="530" type="curve" smooth="yes"/>
      <point x="120" y="530"/>
      <point x="32" y="445"/>
      <point x="32" y="359" type="curve" smooth="yes"/>
      <point x="32" y="254"/>
      <point x="122" y="209"/>
      <point x="215" y="192" type="curve" smooth="yes"/>
      <point x="314" y="174"/>
      <point x="319" y="162"/>
    </contour>
  </outline>
</glyph>
<glyph name="t" format="1">
  <advance width="532"/>
  <unicode hex="0074"/>
  <outline>
    <contour>
      <point x="346" y="235" type="line" name="hr00" smooth="yes"/>
      <point x="346" y="204"/>
      <point x="359" y="185"/>
      <point x="389" y="185" type="curve" smooth="yes"/>
      <point x="480" y="185" type="line" smooth="yes"/>
      <point x="495" y="185"/>
      <point x="507" y="173"/>
      <point x="507" y="158" type="curve" smooth="yes"/>
      <point x="507" y="27" type="line" smooth="yes"/>
      <point x="507" y="12"/>
      <point x="495" y="0"/>
      <point x="480" y="0" type="curve" smooth="yes"/>
      <point x="367" y="0" type="line" smooth="yes"/>
      <point x="222" y="0"/>
      <point x="117" y="51"/>
      <point x="117" y="215" type="curve" smooth="yes"/>
      <point x="117" y="345" type="line"/>
      <point x="38" y="345" type="line" smooth="yes"/>
      <point x="23" y="345"/>
      <point x="11" y="357"/>
      <point x="11" y="372" type="curve" smooth="yes"/>
      <point x="11" y="493" type="line" smooth="yes"/>
      <point x="11" y="508"/>
      <point x="23" y="520"/>
      <point x="38" y="520" type="curve" smooth="yes"/>
      <point x="117" y="520" type="line"/>
      <point x="117" y="683" type="line" smooth="yes"/>
      <point x="117" y="698"/>
      <point x="129" y="710"/>
      <point x="144" y="710" type="curve" smooth="yes"/>
      <point x="319" y="710" type="line" smooth="yes"/>
      <point x="334" y="710"/>
      <point x="346" y="698"/>
      <point x="346" y="683" type="curve" smooth="yes"/>
      <point x="346" y="520" type="line"/>
      <point x="472" y="520" type="line" smooth="yes"/>
      <point x="487" y="520"/>
      <point x="499" y="508"/>
      <point x="499" y="493" type="curve" smooth="yes"/>
      <point x="499" y="372" type="line" smooth="yes"/>
      <point x="499" y="357"/>
      <point x="487" y="345"/>
      <point x="472" y="345" type="curve" smooth="yes"/>
      <point x="346" y="345" type="line"/>
    </contour>
  </outline>
</glyph>
<glyph name="u" format="1">
  <advance width="674"/>
  <unicode hex="0075"/>
  <outline>
    <contour>
      <point x="40" y="217" type="line"/>
      <point x="40" y="59"/>
      <point x="133" y="-10"/>
      <point x="234" y="-10" type="curve" smooth="yes"/>
      <point x="305" y="-10"/>
      <point x="367" y="11"/>
      <point x="400" y="60" type="curve"/>
      <point x="400" y="27" type="line" smooth="yes"/>
      <point x="400" y="12"/>
      <point x="412" y="0"/>
      <point x="427" y="0" type="curve" name="hr01" smooth="yes"/>
      <point x="602" y="0" type="line" smooth="yes"/>
      <point x="617" y="0"/>
      <point x="629" y="12"/>
      <point x="629" y="27" type="curve" smooth="yes"/>
      <point x="629" y="493" type="line" smooth="yes"/>
      <point x="629" y="508"/>
      <point x="617" y="520"/>
      <point x="602" y="520" type="curve" smooth="yes"/>
      <point x="412" y="520" type="line" smooth="yes"/>
      <point x="397" y="520"/>
      <point x="385" y="508"/>
      <point x="385" y="493" type="curve" smooth="yes"/>
      <point x="385" y="224" type="line" smooth="yes"/>
      <point x="385" y="188"/>
      <point x="367" y="169"/>
      <point x="335" y="169" type="curve" name="hr02" smooth="yes"/>
      <point x="303" y="169"/>
      <point x="285" y="188"/>
      <point x="285" y="224" type="curve" smooth="yes"/>
      <point x="285" y="493" type="line" smooth="yes"/>
      <point x="285" y="508"/>
      <point x="273" y="520"/>
      <point x="258" y="520" type="curve" smooth="yes"/>
      <point x="67" y="520" type="line" smooth="yes"/>
      <point x="52" y="520"/>
      <point x="40" y="508"/>
      <point x="40" y="493" type="curve" smooth="yes"/>
    </contour>
  </outline>
</glyph>
<glyph name="v" format="1">
  <advance width="630"/>
  <unicode hex="0076"/>
  <outline>
    <contour>
      <point x="235" y="0" type="line" name="hr00" smooth="yes"/>
      <point x="215" y="0"/>
      <point x="208" y="13"/>
      <point x="202" y="25" type="curve"/>
      <point x="10" y="489" type="line" smooth="yes"/>
      <point x="9" y="492"/>
      <point x="9" y="494"/>
      <point x="9" y="496" type="curve" smooth="yes"/>
      <point x="9" y="509"/>
      <point x="20" y="520"/>
      <point x="33" y="520" type="curve" smooth="yes"/>
      <point x="202" y="520" type="line" smooth="yes"/>
      <point x="222" y="520"/>
      <point x="231" y="507"/>
      <point x="235" y="496" type="curve" smooth="yes"/>
      <point x="315" y="263" type="line"/>
      <point x="395" y="496" type="line" smooth="yes"/>
      <point x="399" y="507"/>
      <point x="408" y="520"/>
      <point x="428" y="520" type="curve" smooth="yes"/>
      <point x="597" y="520" type="line" smooth="yes"/>
      <point x="610" y="520"/>
      <point x="621" y="509"/>
      <point x="621" y="496" type="curve" smooth="yes"/>
      <point x="621" y="494"/>
      <point x="621" y="492"/>
      <point x="620" y="489" type="curve" smooth="yes"/>
      <point x="428" y="25" type="line"/>
      <point x="422" y="13"/>
      <point x="415" y="0"/>
      <point x="395" y="0" type="curve" smooth="yes"/>
    </contour>
  </outline>
</glyph>
<glyph name="x" format="1">
  <advance width="630"/>
  <unicode hex="0078"/>
  <outline>
    <contour>
      <point x="604" y="483" type="line" name="hr00" smooth="yes"/>
      <point x="606" y="486"/>
      <point x="608" y="490"/>
      <point x="608" y="497" type="curve" smooth="yes"/>
      <point x="608" y="509"/>
      <point x="597" y="520"/>
      <point x="584" y="520" type="curve" smooth="yes"/>
      <point x="409" y="520" type="line" smooth="yes"/>
      <point x="389" y="520"/>
      <point x="381" y="507"/>
      <point x="377" y="501" type="curve" smooth="yes"/>
      <point x="319" y="412" type="line"/>
      <point x="261" y="501" type="line" smooth="yes"/>
      <point x="257" y="507"/>
      <point x="249" y="520"/>
      <point x="229" y="520" type="curve" smooth="yes"/>
      <point x="46" y="520" type="line" smooth="yes"/>
      <point x="33" y="520"/>
      <point x="22" y="509"/>
      <point x="22" y="496" type="curve" smooth="yes"/>
      <point x="22" y="491"/>
      <point x="24" y="486"/>
      <point x="26" y="483" type="curve" smooth="yes"/>
      <point x="170" y="268" type="line"/>
      <point x="8" y="37" type="line" smooth="yes"/>
      <point x="5" y="33"/>
      <point x="4" y="27"/>
      <point x="4" y="24" type="curve" smooth="yes"/>
      <point x="4" y="11"/>
      <point x="15" y="0"/>
      <point x="28" y="0" type="curve" smooth="yes"/>
      <point x="215" y="0" type="line" smooth="yes"/>
      <point x="233" y="0"/>
      <point x="241" y="11"/>
      <point x="245" y="17" type="curve" smooth="yes"/>
      <point x="314" y="114" type="line"/>
      <point x="380" y="17" type="line" smooth="yes"/>
      <point x="385" y="10"/>
      <point x="392" y="0"/>
      <point x="410" y="0" type="curve" smooth="yes"/>
      <point x="602" y="0" type="line" smooth="yes"/>
      <point x="615" y="0"/>
      <point x="626" y="11"/>
      <point x="626" y="24" type="curve" smooth="yes"/>
      <point x="626" y="28"/>
      <point x="625" y="33"/>
      <point x="622" y="37" type="curve" smooth="yes"/>
      <point x="457" y="269" type="line"/>
    </contour>
  </outline>
</glyph>
<glyph name="y" format="1">
  <advance width="636"/>
  <unicode hex="0079"/>
  <outline>
    <contour>
      <point x="14" y="489" type="line" name="hr00" smooth="yes"/>
      <point x="13" y="492"/>
      <point x="13" y="494"/>
      <point x="13" y="496" type="curve" smooth="yes"/>
      <point x="15" y="509"/>
      <point x="25" y="520"/>
      <point x="38" y="520" type="curve" smooth="yes"/>
      <point x="207" y="520" type="line" smooth="yes"/>
      <point x="227" y="520"/>
      <point x="235" y="507"/>
      <point x="239" y="496" type="curve" smooth="yes"/>
      <point x="321" y="268" type="line"/>
      <point x="406" y="496" type="line" smooth="yes"/>
      <point x="411" y="508"/>
      <point x="420" y="520"/>
      <point x="440" y="520" type="curve" smooth="yes"/>
      <point x="607" y="520" type="line" smooth="yes"/>
      <point x="619" y="520"/>
      <point x="630" y="510"/>
      <point x="630" y="499" type="curve" smooth="yes"/>
      <point x="630" y="496"/>
      <point x="630" y="493"/>
      <point x="629" y="489" type="curve"/>
      <point x="347" y="-166" type="line" smooth="yes"/>
      <point x="342" y="-178"/>
      <point x="332" y="-190"/>
      <point x="312" y="-190" type="curve" smooth="yes"/>
      <point x="148" y="-190" type="line" smooth="yes"/>
      <point x="136" y="-190"/>
      <point x="126" y="-181"/>
      <point x="126" y="-169" type="curve" smooth="yes"/>
      <point x="126" y="-166"/>
      <point x="125" y="-163"/>
      <point x="127" y="-159" type="curve" smooth="yes"/>
      <point x="207" y="33" type="line"/>
    </contour>
  </outline>
</glyph>
<glyph name="z" format="1">
  <advance width="590"/>
  <unicode hex="007A"/>
  <outline>
    <contour>
      <point x="335" y="172" type="line" name="hr00"/>
      <point x="525" y="338" type="line" smooth="yes"/>
      <point x="534" y="346"/>
      <point x="539" y="355"/>
      <point x="539" y="367" type="curve" smooth="yes"/>
      <point x="539" y="493" type="line" smooth="yes"/>
      <point x="539" y="508"/>
      <point x="527" y="520"/>
      <point x="512" y="520" type="curve" smooth="yes"/>
      <point x="70" y="520" type="line" smooth="yes"/>
      <point x="55" y="520"/>
      <point x="43" y="508"/>
      <point x="43" y="493" type="curve" smooth="yes"/>
      <point x="43" y="375" type="line" smooth="yes"/>
      <point x="43" y="360"/>
      <point x="55" y="348"/>
      <point x="70" y="348" type="curve" smooth="yes"/>
      <point x="251" y="348" type="line"/>
      <point x="52" y="177" type="line" smooth="yes"/>
      <point x="43" y="169"/>
      <point x="36" y="158"/>
      <point x="36" y="142" type="curve" smooth="yes"/>
      <point x="36" y="27" type="line" smooth="yes"/>
      <point x="36" y="12"/>
      <point x="48" y="0"/>
      <point x="63" y="0" type="curve" smooth="yes"/>
      <point x="533" y="0" type="line" smooth="yes"/>
      <point x="548" y="0"/>
      <point x="560" y="12"/>
      <point x="560" y="27" type="curve" smooth="yes"/>
      <point x="560" y="145" type="line" smooth="yes"/>
      <point x="560" y="160"/>
      <point x="548" y="172"/>
      <point x="533" y="172" type="curve" smooth="yes"/>
    </contour>
  </outline>
</glyph>
<glyph name="braceleft" format="1">
  <advance width="474"/>
  <unicode hex="007B"/>
  <outline>
    <contour>
      <point x="-6" y="283" type="line" name="hr00" smooth="yes"/>
      <point x="-6" y="262"/>
      <point x="3" y="250"/>
      <point x="23" y="241" type="curve" smooth="yes"/>
      <point x="40" y="234" type="line" smooth="yes"/>
      <point x="79" y="218"/>
      <point x="94" y="174"/>
      <point x="94" y="131" type="curve" smooth="yes"/>
      <point x="94" y="-72"/>
      <point x="272" y="-158"/>
      <point x="429" y="-158" type="curve" smooth="yes"/>
      <point x="441" y="-158"/>
      <point x="451" y="-148"/>
      <point x="451" y="-136" type="curve" smooth="yes"/>
      <point x="451" y="1" type="line" smooth="yes"/>
      <point x="451" y="13"/>
      <point x="441" y="22"/>
      <point x="432" y="23" type="curve" smooth="yes"/>
      <point x="359" y="32"/>
      <point x="304" y="61"/>
      <point x="304" y="142" type="curve" smooth="yes"/>
      <point x="304" y="222"/>
      <point x="268" y="296"/>
      <point x="231" y="309" type="curve"/>
      <point x="268" y="322"/>
      <point x="304" y="388"/>
      <point x="304" y="476" type="curve" smooth="yes"/>
      <point x="304" y="557"/>
      <point x="359" y="586"/>
      <point x="432" y="595" type="curve" smooth="yes"/>
      <point x="441" y="596"/>
      <point x="451" y="605"/>
      <point x="451" y="617" type="curve" smooth="yes"/>
      <point x="451" y="754" type="line" smooth="yes"/>
      <point x="451" y="766"/>
      <point x="441" y="776"/>
      <point x="429" y="776" type="curve" smooth="yes"/>
      <point x="272" y="776"/>
      <point x="94" y="690"/>
      <point x="94" y="487" type="curve" smooth="yes"/>
      <point x="94" y="444"/>
      <point x="79" y="400"/>
      <point x="40" y="384" type="curve" smooth="yes"/>
      <point x="23" y="377" type="line" smooth="yes"/>
      <point x="3" y="368"/>
      <point x="-6" y="356"/>
      <point x="-6" y="335" type="curve" smooth="yes"/>
    </contour>
  </outline>
</glyph>
<glyph name="bar" format="1">
  <advance width="292"/>
  <unicode hex="007C"/>
  <outline>
    <contour>
      <point x="79" y="896" type="line" name="hr00"/>
      <point x="64" y="896"/>
      <point x="52" y="884"/>
      <point x="52" y="869" type="curve" smooth="yes"/>
      <point x="52" y="-181" type="line" smooth="yes"/>
      <point x="52" y="-196"/>
      <point x="64" y="-208"/>
      <point x="79" y="-208" type="curve" smooth="yes"/>
      <point x="213" y="-208" type="line" smooth="yes"/>
      <point x="228" y="-208"/>
      <point x="240" y="-196"/>
      <point x="240" y="-181" type="curve" smooth="yes"/>
      <point x="240" y="869" type="line" smooth="yes"/>
      <point x="240" y="884"/>
      <point x="228" y="896"/>
      <point x="213" y="896" type="curve" smooth="yes"/>
    </contour>
  </outline>
</glyph>
<glyph name="braceright" format="1">
  <advance width="474"/>
  <unicode hex="007D"/>
  <outline>
    <contour>
      <point x="480" y="335" type="line" name="hr00"/>
      <point x="480" y="356"/>
      <point x="471" y="368"/>
      <point x="451" y="377" type="curve" smooth="yes"/>
      <point x="434" y="384" type="line" smooth="yes"/>
      <point x="395" y="400"/>
      <point x="380" y="444"/>
      <point x="380" y="487" type="curve" smooth="yes"/>
      <point x="380" y="690"/>
      <point x="202" y="776"/>
      <point x="45" y="776" type="curve" smooth="yes"/>
      <point x="33" y="776"/>
      <point x="23" y="766"/>
      <point x="23" y="754" type="curve" smooth="yes"/>
      <point x="23" y="617" type="line" smooth="yes"/>
      <point x="23" y="605"/>
      <point x="33" y="596"/>
      <point x="42" y="595" type="curve" smooth="yes"/>
      <point x="115" y="586"/>
      <point x="170" y="557"/>
      <point x="170" y="476" type="curve" smooth="yes"/>
      <point x="170" y="388"/>
      <point x="206" y="322"/>
      <point x="243" y="309" type="curve"/>
      <point x="206" y="296"/>
      <point x="170" y="222"/>
      <point x="170" y="142" type="curve" smooth="yes"/>
      <point x="170" y="61"/>
      <point x="115" y="32"/>
      <point x="42" y="23" type="curve" smooth="yes"/>
      <point x="33" y="22"/>
      <point x="23" y="13"/>
      <point x="23" y="1" type="curve" smooth="yes"/>
      <point x="23" y="-136" type="line" smooth="yes"/>
      <point x="23" y="-148"/>
      <point x="33" y="-158"/>
      <point x="45" y="-158" type="curve" smooth="yes"/>
      <point x="202" y="-158"/>
      <point x="380" y="-72"/>
      <point x="380" y="131" type="curve" smooth="yes"/>
      <point x="380" y="174"/>
      <point x="395" y="218"/>
      <point x="434" y="234" type="curve" smooth="yes"/>
      <point x="451" y="241" type="line" smooth="yes"/>
      <point x="471" y="250"/>
      <point x="480" y="262"/>
      <point x="480" y="283" type="curve" smooth="yes"/>
    </contour>
  </outline>
</glyph>
<glyph name="asciitilde" format="1">
  <advance width="549"/>
  <unicode hex="007E"/>
  <outline>
    <contour>
      <point x="160" y="416" type="curve" smooth="yes"/>
      <point x="92" y="416"/>
      <point x="50" y="380"/>
      <point x="50" y="336" type="curve" smooth="yes"/>
      <point x="50" y="228" type="line" smooth="yes"/>
      <point x="50" y="203"/>
      <point x="53" y="191"/>
      <point x="72" y="191" type="curve"/>
      <point x="81" y="192"/>
      <point x="87" y="196"/>
      <point x="92" y="200" type="curve" smooth="yes"/>
      <point x="102" y="209"/>
      <point x="128" y="226"/>
      <point x="159" y="226" type="curve" smooth="yes"/>
      <point x="252" y="226"/>
      <point x="291" y="184"/>
      <point x="390" y="184" type="curve" name="hr01" smooth="yes"/>
      <point x="458" y="184"/>
      <point x="500" y="220"/>
      <point x="500" y="264" type="curve" smooth="yes"/>
      <point x="500" y="372" type="line" smooth="yes"/>
      <point x="500" y="397"/>
      <point x="497" y="409"/>
      <point x="478" y="409" type="curve"/>
      <point x="469" y="408"/>
      <point x="463" y="404"/>
      <point x="458" y="400" type="curve" smooth="yes"/>
      <point x="448" y="391"/>
      <point x="422" y="374"/>
      <point x="391" y="374" type="curve" smooth="yes"/>
      <point x="298" y="374"/>
      <point x="259" y="416"/>
    </contour>
  </outline>
</glyph>
<glyph name="exclamdown" format="1">
  <advance width="324"/>
  <unicode hex="00A1"/>
  <outline>
    <contour>
      <point x="75" y="292" type="line" name="hr00"/>
      <point x="60" y="292"/>
      <point x="48" y="304"/>
      <point x="48" y="319" type="curve" smooth="yes"/>
      <point x="48" y="493" type="line" smooth="yes"/>
      <point x="48" y="508"/>
      <point x="60" y="520"/>
      <point x="75" y="520" type="curve" smooth="yes"/>
      <point x="249" y="520" type="line" smooth="yes"/>
      <point x="264" y="520"/>
      <point x="276" y="508"/>
      <point x="276" y="493" type="curve" smooth="yes"/>
      <point x="276" y="319" type="line" smooth="yes"/>
      <point x="276" y="304"/>
      <point x="264" y="292"/>
      <point x="249" y="292" type="curve" smooth="yes"/>
    </contour>
    <contour>
      <point x="75" y="-180" type="line"/>
      <point x="60" y="-180"/>
      <point x="48" y="-168"/>
      <point x="48" y="-153" type="curve" smooth="yes"/>
      <point x="48" y="225" type="line" smooth="yes"/>
      <point x="48" y="240"/>
      <point x="60" y="252"/>
      <point x="75" y="252" type="curve" smooth="yes"/>
      <point x="249" y="252" type="line" smooth="yes"/>
      <point x="264" y="252"/>
      <point x="276" y="240"/>
      <point x="276" y="225" type="curve" smooth="yes"/>
      <point x="276" y="-153" type="line" smooth="yes"/>
      <point x="276" y="-168"/>
      <point x="264" y="-180"/>
      <point x="249" y="-180" type="curve" smooth="yes"/>
    </contour>
  </outline>
</glyph>
<glyph name="cent" format="1">
  <advance width="628"/>
  <unicode hex="00A2"/>
  <outline>
    <contour>
      <point x="274" y="295" type="curve" smooth="yes"/>
      <point x="275" y="335"/>
      <point x="283" y="359"/>
      <point x="314" y="359" type="curve" smooth="yes"/>
      <point x="334" y="359"/>
      <point x="342" y="348"/>
      <point x="351" y="329" type="curve" smooth="yes"/>
      <point x="357" y="317"/>
      <point x="365" y="309"/>
      <point x="380" y="309" type="curve"/>
      <point x="575" y="309" type="line"/>
      <point x="590" y="309"/>
      <point x="603" y="321"/>
      <point x="602" y="336" type="curve" smooth="yes"/>
      <point x="599" y="379"/>
      <point x="546" y="482"/>
      <point x="410" y="518" type="curve" name="hr01"/>
      <point x="410" y="583" type="line"/>
      <point x="410" y="598"/>
      <point x="398" y="610"/>
      <point x="383" y="610" type="curve"/>
      <point x="234" y="610" type="line"/>
      <point x="219" y="610"/>
      <point x="207" y="598"/>
      <point x="207" y="583" type="curve"/>
      <point x="207" y="516" type="line"/>
      <point x="105" y="487"/>
      <point x="34" y="413"/>
      <point x="29" y="300" type="curve" name="hr02" smooth="yes"/>
      <point x="28" y="277"/>
      <point x="28" y="240"/>
      <point x="29" y="219" type="curve" smooth="yes"/>
      <point x="35" y="106"/>
      <point x="106" y="32"/>
      <point x="207" y="3" type="curve" name="hr03"/>
      <point x="207" y="-73" type="line"/>
      <point x="207" y="-88"/>
      <point x="219" y="-100"/>
      <point x="234" y="-100" type="curve"/>
      <point x="383" y="-100" type="line"/>
      <point x="398" y="-100"/>
      <point x="410" y="-88"/>
      <point x="410" y="-73" type="curve"/>
      <point x="410" y="2" type="line"/>
      <point x="552" y="38"/>
      <point x="599" y="148"/>
      <point x="602" y="184" type="curve" smooth="yes"/>
      <point x="603" y="199"/>
      <point x="590" y="211"/>
      <point x="575" y="211" type="curve"/>
      <point x="380" y="211" type="line"/>
      <point x="365" y="211"/>
      <point x="356" y="203"/>
      <point x="351" y="191" type="curve" smooth="yes"/>
      <point x="343" y="172"/>
      <point x="338" y="161"/>
      <point x="314" y="161" type="curve" smooth="yes"/>
      <point x="283" y="161"/>
      <point x="276" y="181"/>
      <point x="274" y="224" type="curve" name="hr04" smooth="yes"/>
      <point x="273" y="243"/>
      <point x="273" y="266"/>
    </contour>
  </outline>
</glyph>
<glyph name="sterling" format="1">
  <advance width="758"/>
  <unicode hex="00A3"/>
  <outline>
    <contour>
      <point x="522" y="-10" type="curve" smooth="yes"/>
      <point x="617" y="-10"/>
      <point x="721" y="69"/>
      <point x="724" y="209" type="curve" smooth="yes"/>
      <point x="724" y="219"/>
      <point x="717" y="228"/>
      <point x="705" y="228" type="curve" name="hr01" smooth="yes"/>
      <point x="574" y="228" type="line" smooth="yes"/>
      <point x="564" y="228"/>
      <point x="560" y="224"/>
      <point x="556" y="219" type="curve" smooth="yes"/>
      <point x="538" y="196"/>
      <point x="513" y="182"/>
      <point x="480" y="182" type="curve" name="hr02" smooth="yes"/>
      <point x="438" y="182"/>
      <point x="410" y="189"/>
      <point x="363" y="199" type="curve"/>
      <point x="365" y="217"/>
      <point x="365" y="234"/>
      <point x="365" y="250" type="curve"/>
      <point x="473" y="250" type="line" smooth="yes"/>
      <point x="488" y="250"/>
      <point x="500" y="262"/>
      <point x="500" y="277" type="curve" smooth="yes"/>
      <point x="500" y="389" type="line" smooth="yes"/>
      <point x="500" y="404"/>
      <point x="488" y="416"/>
      <point x="473" y="416" type="curve" smooth="yes"/>
      <point x="360" y="416" type="line"/>
      <point x="359" y="425"/>
      <point x="359" y="435"/>
      <point x="359" y="445" type="curve" smooth="yes"/>
      <point x="359" y="493"/>
      <point x="369" y="516"/>
      <point x="403" y="516" type="curve" smooth="yes"/>
      <point x="427" y="516"/>
      <point x="441" y="504"/>
      <point x="454" y="472" type="curve" smooth="yes"/>
      <point x="463" y="450"/>
      <point x="473" y="443"/>
      <point x="495" y="443" type="curve" smooth="yes"/>
      <point x="699" y="443" type="line" smooth="yes"/>
      <point x="711" y="443"/>
      <point x="721" y="453"/>
      <point x="721" y="465" type="curve" smooth="yes"/>
      <point x="718" y="627"/>
      <point x="583" y="711"/>
      <point x="403" y="711" type="curve" smooth="yes"/>
      <point x="211" y="711"/>
      <point x="99" y="632"/>
      <point x="99" y="446" type="curve" smooth="yes"/>
      <point x="99" y="435"/>
      <point x="99" y="425"/>
      <point x="100" y="416" type="curve"/>
      <point x="65" y="416" type="line" smooth="yes"/>
      <point x="50" y="416"/>
      <point x="38" y="404"/>
      <point x="38" y="389" type="curve" smooth="yes"/>
      <point x="38" y="277" type="line" smooth="yes"/>
      <point x="38" y="262"/>
      <point x="50" y="250"/>
      <point x="65" y="250" type="curve" smooth="yes"/>
      <point x="140" y="250" type="line"/>
      <point x="142" y="235"/>
      <point x="144" y="219"/>
      <point x="144" y="202" type="curve"/>
      <point x="77" y="166"/>
      <point x="40" y="96"/>
      <point x="37" y="18" type="curve" smooth="yes"/>
      <point x="37" y="8"/>
      <point x="46" y="0"/>
      <point x="56" y="0" type="curve" smooth="yes"/>
      <point x="210" y="0" type="line" smooth="yes"/>
      <point x="217" y="0"/>
      <point x="222" y="4"/>
      <point x="225" y="9" type="curve" smooth="yes"/>
      <point x="237" y="28"/>
      <point x="256" y="35"/>
      <point x="280" y="35" type="curve" name="hr03" smooth="yes"/>
      <point x="348" y="35"/>
      <point x="420" y="-10"/>
    </contour>
  </outline>
</glyph>
<glyph name="currency" format="1">
  <advance width="634"/>
  <unicode hex="00A4"/>
  <outline>
    <contour>
      <point x="46" y="142" type="line" name="hr00" smooth="yes"/>
      <point x="36" y="132"/>
      <point x="36" y="115"/>
      <point x="46" y="104" type="curve" smooth="yes"/>
      <point x="121" y="29" type="line" smooth="yes"/>
      <point x="132" y="19"/>
      <point x="149" y="19"/>
      <point x="159" y="29" type="curve" smooth="yes"/>
      <point x="206" y="76" type="line"/>
      <point x="239" y="59"/>
      <point x="277" y="50"/>
      <point x="317" y="50" type="curve" smooth="yes"/>
      <point x="357" y="50"/>
      <point x="394" y="59"/>
      <point x="428" y="76" type="curve"/>
      <point x="475" y="29" type="line" smooth="yes"/>
      <point x="485" y="19"/>
      <point x="502" y="19"/>
      <point x="513" y="29" type="curve" smooth="yes"/>
      <point x="588" y="104" type="line" smooth="yes"/>
      <point x="598" y="115"/>
      <point x="598" y="132"/>
      <point x="588" y="142" type="curve" smooth="yes"/>
      <point x="541" y="189" type="line"/>
      <point x="557" y="222"/>
      <point x="567" y="260"/>
      <point x="567" y="300" type="curve" smooth="yes"/>
      <point x="567" y="340"/>
      <point x="557" y="377"/>
      <point x="541" y="411" type="curve"/>
      <point x="588" y="458" type="line" smooth="yes"/>
      <point x="598" y="468"/>
      <point x="598" y="485"/>
      <point x="588" y="496" type="curve" smooth="yes"/>
      <point x="513" y="571" type="line" smooth="yes"/>
      <point x="502" y="581"/>
      <point x="485" y="581"/>
      <point x="475" y="571" type="curve" smooth="yes"/>
      <point x="428" y="524" type="line"/>
      <point x="394" y="540"/>
      <point x="357" y="550"/>
      <point x="317" y="550" type="curve" smooth="yes"/>
      <point x="277" y="550"/>
      <point x="239" y="540"/>
      <point x="206" y="524" type="curve"/>
      <point x="159" y="571" type="line" smooth="yes"/>
      <point x="149" y="581"/>
      <point x="132" y="581"/>
      <point x="121" y="571" type="curve" smooth="yes"/>
      <point x="46" y="496" type="line" smooth="yes"/>
      <point x="36" y="485"/>
      <point x="36" y="468"/>
      <point x="46" y="458" type="curve" smooth="yes"/>
      <point x="93" y="411" type="line"/>
      <point x="76" y="377"/>
      <point x="67" y="340"/>
      <point x="67" y="300" type="curve" smooth="yes"/>
      <point x="67" y="260"/>
      <point x="76" y="222"/>
      <point x="93" y="189" type="curve"/>
    </contour>
    <contour>
      <point x="227" y="300" type="curve" smooth="yes"/>
      <point x="227" y="350"/>
      <point x="267" y="390"/>
      <point x="317" y="390" type="curve" smooth="yes"/>
      <point x="367" y="390"/>
      <point x="407" y="350"/>
      <point x="407" y="300" type="curve" smooth="yes"/>
      <point x="407" y="250"/>
      <point x="367" y="210"/>
      <point x="317" y="210" type="curve" smooth="yes"/>
      <point x="267" y="210"/>
      <point x="227" y="250"/>
    </contour>
  </outline>
</glyph>
<glyph name="brokenbar" format="1">
  <advance width="296"/>
  <unicode hex="00A6"/>
  <outline>
    <contour>
      <point x="81" y="354" type="line" name="hr00"/>
      <point x="66" y="354"/>
      <point x="54" y="342"/>
      <point x="54" y="327" type="curve" smooth="yes"/>
      <point x="54" y="27" type="line" smooth="yes"/>
      <point x="54" y="12"/>
      <point x="66" y="0"/>
      <point x="81" y="0" type="curve" smooth="yes"/>
      <point x="215" y="0" type="line" smooth="yes"/>
      <point x="230" y="0"/>
      <point x="242" y="12"/>
      <point x="242" y="27" type="curve" smooth="yes"/>
      <point x="242" y="327" type="line" smooth="yes"/>
      <point x="242" y="342"/>
      <point x="230" y="354"/>
      <point x="215" y="354" type="curve" smooth="yes"/>
    </contour>
    <contour>
      <point x="81" y="829" type="line"/>
      <point x="66" y="829"/>
      <point x="54" y="817"/>
      <point x="54" y="802" type="curve" smooth="yes"/>
      <point x="54" y="502" type="line" smooth="yes"/>
      <point x="54" y="487"/>
      <point x="66" y="475"/>
      <point x="81" y="475" type="curve" smooth="yes"/>
      <point x="215" y="475" type="line" smooth="yes"/>
      <point x="230" y="475"/>
      <point x="242" y="487"/>
      <point x="242" y="502" type="curve" smooth="yes"/>
      <point x="242" y="802" type="line" smooth="yes"/>
      <point x="242" y="817"/>
      <point x="230" y="829"/>
      <point x="215" y="829" type="curve" smooth="yes"/>
    </contour>
  </outline>
</glyph>
<glyph name="section" format="1">
  <advance width="636"/>
  <unicode hex="00A7"/>
  <outline>
    <contour>
      <point x="610" y="275" type="curve" smooth="yes"/>
      <point x="610" y="377"/>
      <point x="562" y="438"/>
      <point x="417" y="474" type="curve"/>
      <point x="314" y="493"/>
      <point x="308" y="514"/>
      <point x="308" y="532" type="curve" smooth="yes"/>
      <point x="308" y="547"/>
      <point x="317" y="559"/>
      <point x="332" y="559" type="curve" name="hr01" smooth="yes"/>
      <point x="373" y="559"/>
      <point x="371" y="532"/>
      <point x="400" y="532" type="curve" name="hr02" smooth="yes"/>
      <point x="566" y="532" type="line" smooth="yes"/>
      <point x="578" y="532"/>
      <point x="589" y="540"/>
      <point x="588" y="555" type="curve" smooth="yes"/>
      <point x="585" y="617"/>
      <point x="492" y="710"/>
      <point x="329" y="710" type="curve" smooth="yes"/>
      <point x="166" y="710"/>
      <point x="78" y="619"/>
      <point x="78" y="505" type="curve" smooth="yes"/>
      <point x="78" y="477"/>
      <point x="84" y="453"/>
      <point x="94" y="433" type="curve"/>
      <point x="49" y="398"/>
      <point x="26" y="351"/>
      <point x="26" y="295" type="curve" name="hr03" smooth="yes"/>
      <point x="26" y="193"/>
      <point x="74" y="132"/>
      <point x="219" y="96" type="curve"/>
      <point x="322" y="77"/>
      <point x="328" y="56"/>
      <point x="328" y="38" type="curve" smooth="yes"/>
      <point x="328" y="23"/>
      <point x="319" y="11"/>
      <point x="304" y="11" type="curve" smooth="yes"/>
      <point x="263" y="11"/>
      <point x="265" y="40"/>
      <point x="236" y="40" type="curve" name="hr04" smooth="yes"/>
      <point x="70" y="40" type="line" smooth="yes"/>
      <point x="58" y="40"/>
      <point x="47" y="32"/>
      <point x="48" y="17" type="curve" smooth="yes"/>
      <point x="51" y="-45"/>
      <point x="144" y="-140"/>
      <point x="307" y="-140" type="curve" smooth="yes"/>
      <point x="470" y="-140"/>
      <point x="558" y="-49"/>
      <point x="558" y="65" type="curve" smooth="yes"/>
      <point x="558" y="93"/>
      <point x="552" y="116"/>
      <point x="542" y="137" type="curve"/>
      <point x="586" y="171"/>
      <point x="610" y="219"/>
    </contour>
    <contour>
      <point x="234" y="308" type="curve" smooth="yes"/>
      <point x="234" y="317"/>
      <point x="242" y="332"/>
      <point x="262" y="327" type="curve" smooth="yes"/>
      <point x="375" y="299"/>
      <point x="402" y="291"/>
      <point x="402" y="262" type="curve" smooth="yes"/>
      <point x="402" y="253"/>
      <point x="393" y="237"/>
      <point x="374" y="242" type="curve" smooth="yes"/>
      <point x="260" y="271"/>
      <point x="234" y="279"/>
    </contour>
  </outline>
</glyph>
<glyph name="ordfeminine" format="1">
  <advance width="351"/>
  <unicode hex="00AA"/>
  <outline>
    <contour>
      <point x="22" y="510" type="curve" smooth="yes"/>
      <point x="22" y="464"/>
      <point x="63" y="429"/>
      <point x="122" y="429" type="curve" smooth="yes"/>
      <point x="153" y="429"/>
      <point x="180" y="441"/>
      <point x="194" y="462" type="curve"/>
      <point x="194" y="448" type="line" smooth="yes"/>
      <point x="194" y="441"/>
      <point x="201" y="434"/>
      <point x="209" y="434" type="curve" smooth="yes"/>
      <point x="298" y="434" type="line" smooth="yes"/>
      <point x="306" y="434"/>
      <point x="312" y="441"/>
      <point x="312" y="448" type="curve" smooth="yes"/>
      <point x="312" y="594" type="line" smooth="yes"/>
      <point x="312" y="670"/>
      <point x="268" y="705"/>
      <point x="175" y="705" type="curve" smooth="yes"/>
      <point x="79" y="705"/>
      <point x="43" y="655"/>
      <point x="41" y="629" type="curve" smooth="yes"/>
      <point x="40" y="622"/>
      <point x="45" y="617"/>
      <point x="51" y="617" type="curve" smooth="yes"/>
      <point x="138" y="617" type="line" smooth="yes"/>
      <point x="155" y="617"/>
      <point x="156" y="633"/>
      <point x="173" y="633" type="curve" name="hr01" smooth="yes"/>
      <point x="188" y="633"/>
      <point x="189" y="626"/>
      <point x="189" y="607" type="curve"/>
      <point x="135" y="598" type="line" smooth="yes"/>
      <point x="66" y="586"/>
      <point x="22" y="560"/>
    </contour>
    <contour>
      <point x="157" y="505" type="curve" smooth="yes"/>
      <point x="145" y="505"/>
      <point x="137" y="510"/>
      <point x="137" y="518" type="curve" smooth="yes"/>
      <point x="137" y="525"/>
      <point x="143" y="532"/>
      <point x="161" y="537" type="curve" smooth="yes"/>
      <point x="189" y="544" type="line"/>
      <point x="189" y="516"/>
      <point x="177" y="505"/>
    </contour>
  </outline>
</glyph>
<glyph name="guillemotleft" format="1">
  <advance width="632"/>
  <unicode hex="00AB"/>
  <outline>
    <contour>
      <point x="201" y="329" type="line" name="hr00"/>
      <point x="270" y="398" type="line" smooth="yes"/>
      <point x="283" y="411"/>
      <point x="288" y="420"/>
      <point x="288" y="443" type="curve" smooth="yes"/>
      <point x="288" y="584" type="line" smooth="yes"/>
      <point x="288" y="596"/>
      <point x="278" y="606"/>
      <point x="266" y="606" type="curve" smooth="yes"/>
      <point x="265" y="606"/>
      <point x="258" y="606"/>
      <point x="252" y="601" type="curve" smooth="yes"/>
      <point x="35" y="390" type="line" smooth="yes"/>
      <point x="27" y="383"/>
      <point x="21" y="374"/>
      <point x="21" y="362" type="curve"/>
      <point x="21" y="296" type="line" smooth="yes"/>
      <point x="21" y="284"/>
      <point x="27" y="275"/>
      <point x="35" y="268" type="curve" smooth="yes"/>
      <point x="252" y="57" type="line" smooth="yes"/>
      <point x="258" y="52"/>
      <point x="265" y="52"/>
      <point x="266" y="52" type="curve" smooth="yes"/>
      <point x="278" y="52"/>
      <point x="288" y="62"/>
      <point x="288" y="74" type="curve" smooth="yes"/>
      <point x="288" y="215" type="line" smooth="yes"/>
      <point x="288" y="238"/>
      <point x="283" y="247"/>
      <point x="270" y="260" type="curve" smooth="yes"/>
    </contour>
    <contour>
      <point x="491" y="329" type="line"/>
      <point x="560" y="398" type="line" smooth="yes"/>
      <point x="573" y="411"/>
      <point x="578" y="420"/>
      <point x="578" y="443" type="curve" smooth="yes"/>
      <point x="578" y="584" type="line" smooth="yes"/>
      <point x="578" y="596"/>
      <point x="568" y="606"/>
      <point x="556" y="606" type="curve" smooth="yes"/>
      <point x="555" y="606"/>
      <point x="548" y="606"/>
      <point x="542" y="601" type="curve" smooth="yes"/>
      <point x="325" y="390" type="line" smooth="yes"/>
      <point x="317" y="383"/>
      <point x="311" y="374"/>
      <point x="311" y="362" type="curve" smooth="yes"/>
      <point x="311" y="296" type="line" smooth="yes"/>
      <point x="311" y="284"/>
      <point x="317" y="275"/>
      <point x="325" y="268" type="curve" smooth="yes"/>
      <point x="542" y="57" type="line" smooth="yes"/>
      <point x="548" y="52"/>
      <point x="555" y="52"/>
      <point x="556" y="52" type="curve" smooth="yes"/>
      <point x="568" y="52"/>
      <point x="578" y="62"/>
      <point x="578" y="74" type="curve" smooth="yes"/>
      <point x="578" y="215" type="line" smooth="yes"/>
      <point x="578" y="238"/>
      <point x="573" y="247"/>
      <point x="560" y="260" type="curve" smooth="yes"/>
    </contour>
  </outline>
</glyph>
<glyph name="logicalnot" format="1">
  <advance width="564"/>
  <unicode hex="00AC"/>
  <outline>
    <contour>
      <point x="341" y="80" type="line" name="hr00" smooth="yes"/>
      <point x="341" y="65"/>
      <point x="353" y="53"/>
      <point x="368" y="53" type="curve" smooth="yes"/>
      <point x="484" y="53" type="line" smooth="yes"/>
      <point x="499" y="53"/>
      <point x="511" y="65"/>
      <point x="511" y="80" type="curve" smooth="yes"/>
      <point x="511" y="323" type="line" smooth="yes"/>
      <point x="511" y="338"/>
      <point x="499" y="350"/>
      <point x="484" y="350" type="curve" smooth="yes"/>
      <point x="69" y="350" type="line" smooth="yes"/>
      <point x="54" y="350"/>
      <point x="42" y="338"/>
      <point x="42" y="323" type="curve" smooth="yes"/>
      <point x="42" y="207" type="line" smooth="yes"/>
      <point x="42" y="192"/>
      <point x="54" y="180"/>
      <point x="69" y="180" type="curve" smooth="yes"/>
      <point x="341" y="180" type="line"/>
    </contour>
  </outline>
</glyph>
<glyph name="registered" format="1">
  <advance width="792"/>
  <unicode hex="00AE"/>
  <outline>
    <contour>
      <point x="265" y="168" type="curve" name="hr00"/>
      <point x="352" y="168" type="line" smooth="yes"/>
      <point x="365" y="168"/>
      <point x="374" y="177"/>
      <point x="374" y="190" type="curve" smooth="yes"/>
      <point x="374" y="282" type="line"/>
      <point x="395" y="282" type="line"/>
      <point x="428" y="187" type="line"/>
      <point x="433" y="174"/>
      <point x="443" y="168"/>
      <point x="457" y="168" type="curve" smooth="yes"/>
      <point x="542" y="168" type="line" smooth="yes"/>
      <point x="557" y="168"/>
      <point x="564" y="179"/>
      <point x="564" y="190" type="curve"/>
      <point x="564" y="196"/>
      <point x="562" y="200"/>
      <point x="560" y="204" type="curve" smooth="yes"/>
      <point x="515" y="307" type="line"/>
      <point x="545" y="323"/>
      <point x="571" y="356"/>
      <point x="571" y="409" type="curve" smooth="yes"/>
      <point x="571" y="501"/>
      <point x="487" y="534"/>
      <point x="411" y="534" type="curve" smooth="yes"/>
      <point x="265" y="534" type="line" smooth="yes"/>
      <point x="252" y="534"/>
      <point x="243" y="525"/>
      <point x="243" y="512" type="curve" smooth="yes"/>
      <point x="243" y="190" type="line" smooth="yes"/>
      <point x="243" y="177"/>
      <point x="252" y="168"/>
    </contour>
    <contour>
      <point x="374" y="437" type="line"/>
      <point x="411" y="437" type="line" smooth="yes"/>
      <point x="427" y="437"/>
      <point x="436" y="425"/>
      <point x="436" y="409" type="curve" smooth="yes"/>
      <point x="436" y="393"/>
      <point x="427" y="381"/>
      <point x="411" y="381" type="curve" smooth="yes"/>
      <point x="374" y="381" type="line"/>
    </contour>
    <contour>
      <point x="36" y="350" type="curve" smooth="yes"/>
      <point x="36" y="151"/>
      <point x="197" y="-10"/>
      <point x="396" y="-10" type="curve" smooth="yes"/>
      <point x="595" y="-10"/>
      <point x="756" y="151"/>
      <point x="756" y="350" type="curve" smooth="yes"/>
      <point x="756" y="549"/>
      <point x="595" y="710"/>
      <point x="396" y="710" type="curve" smooth="yes"/>
      <point x="197" y="710"/>
      <point x="36" y="549"/>
    </contour>
    <contour>
      <point x="136" y="350" type="curve" smooth="yes"/>
      <point x="136" y="496"/>
      <point x="250" y="615"/>
      <point x="396" y="615" type="curve" smooth="yes"/>
      <point x="542" y="615"/>
      <point x="656" y="496"/>
      <point x="656" y="350" type="curve" smooth="yes"/>
      <point x="656" y="204"/>
      <point x="542" y="85"/>
      <point x="396" y="85" type="curve" smooth="yes"/>
      <point x="250" y="85"/>
      <point x="136" y="204"/>
    </contour>
  </outline>
</glyph>
<glyph name="macron" format="1">
  <advance width="473"/>
  <unicode hex="00AF"/>
  <outline>
    <contour>
      <point x="73" y="745" type="line" name="hr00" smooth="yes"/>
      <point x="60" y="745"/>
      <point x="50" y="735"/>
      <point x="50" y="722" type="curve" smooth="yes"/>
      <point x="50" y="618" type="line" smooth="yes"/>
      <point x="50" y="605"/>
      <point x="60" y="595"/>
      <point x="73" y="595" type="curve" smooth="yes"/>
      <point x="400" y="595" type="line" smooth="yes"/>
      <point x="413" y="595"/>
      <point x="423" y="605"/>
      <point x="423" y="618" type="curve" smooth="yes"/>
      <point x="423" y="722" type="line" smooth="yes"/>
      <point x="423" y="735"/>
      <point x="413" y="745"/>
      <point x="400" y="745" type="curve" smooth="yes"/>
    </contour>
  </outline>
</glyph>
<glyph name="acute" format="1">
  <advance width="450"/>
  <unicode hex="00B4"/>
  <outline>
    <contour>
      <point x="55" y="624" type="line" name="hr00" smooth="yes"/>
      <point x="52" y="621"/>
      <point x="50" y="616"/>
      <point x="50" y="611" type="curve" smooth="yes"/>
      <point x="50" y="601"/>
      <point x="56" y="595"/>
      <point x="66" y="595" type="curve" smooth="yes"/>
      <point x="203" y="595" type="line" smooth="yes"/>
      <point x="224" y="595"/>
      <point x="234" y="603"/>
      <point x="245" y="612" type="curve" smooth="yes"/>
      <point x="392" y="733" type="line" smooth="yes"/>
      <point x="395" y="736"/>
      <point x="397" y="740"/>
      <point x="397" y="745" type="curve" smooth="yes"/>
      <point x="397" y="757"/>
      <point x="390" y="765"/>
      <point x="378" y="765" type="curve" smooth="yes"/>
      <point x="192" y="765" type="line" smooth="yes"/>
      <point x="177" y="765"/>
      <point x="170" y="763"/>
      <point x="155" y="746" type="curve"/>
    </contour>
  </outline>
</glyph>
<glyph name="mu" format="1">
  <advance width="699"/>
  <unicode hex="00B5"/>
  <outline>
    <contour>
      <point x="53" y="-172" type="line" name="hr00" smooth="yes"/>
      <point x="53" y="-187"/>
      <point x="65" y="-199"/>
      <point x="80" y="-199" type="curve" smooth="yes"/>
      <point x="276" y="-199" type="line" smooth="yes"/>
      <point x="291" y="-199"/>
      <point x="303" y="-187"/>
      <point x="303" y="-172" type="curve" smooth="yes"/>
      <point x="303" y="0" type="line"/>
      <point x="352" y="6"/>
      <point x="393" y="23"/>
      <point x="418" y="60" type="curve"/>
      <point x="418" y="27" type="line" smooth="yes"/>
      <point x="418" y="12"/>
      <point x="430" y="0"/>
      <point x="445" y="0" type="curve" smooth="yes"/>
      <point x="620" y="0" type="line" smooth="yes"/>
      <point x="635" y="0"/>
      <point x="647" y="12"/>
      <point x="647" y="27" type="curve" smooth="yes"/>
      <point x="647" y="493" type="line" smooth="yes"/>
      <point x="647" y="508"/>
      <point x="635" y="520"/>
      <point x="620" y="520" type="curve" smooth="yes"/>
      <point x="430" y="520" type="line" smooth="yes"/>
      <point x="415" y="520"/>
      <point x="403" y="508"/>
      <point x="403" y="493" type="curve" smooth="yes"/>
      <point x="403" y="224" type="line" smooth="yes"/>
      <point x="403" y="188"/>
      <point x="385" y="169"/>
      <point x="353" y="169" type="curve" smooth="yes"/>
      <point x="321" y="169"/>
      <point x="303" y="188"/>
      <point x="303" y="224" type="curve" smooth="yes"/>
      <point x="303" y="493" type="line" smooth="yes"/>
      <point x="303" y="508"/>
      <point x="291" y="520"/>
      <point x="276" y="520" type="curve" smooth="yes"/>
      <point x="80" y="520" type="line" smooth="yes"/>
      <point x="65" y="520"/>
      <point x="53" y="508"/>
      <point x="53" y="493" type="curve" smooth="yes"/>
    </contour>
  </outline>
</glyph>
<glyph name="paragraph" format="1">
  <advance width="709"/>
  <unicode hex="00B6"/>
  <outline>
    <contour>
      <point x="23" y="503" type="curve" name="hr00" smooth="yes"/>
      <point x="23" y="394"/>
      <point x="111" y="306"/>
      <point x="220" y="306" type="curve"/>
      <point x="220" y="-73" type="line" smooth="yes"/>
      <point x="220" y="-88"/>
      <point x="232" y="-100"/>
      <point x="247" y="-100" type="curve" smooth="yes"/>
      <point x="368" y="-100" type="line" smooth="yes"/>
      <point x="383" y="-100"/>
      <point x="395" y="-88"/>
      <point x="395" y="-73" type="curve" smooth="yes"/>
      <point x="395" y="550" type="line"/>
      <point x="474" y="550" type="line"/>
      <point x="474" y="-73" type="line" smooth="yes"/>
      <point x="474" y="-88"/>
      <point x="486" y="-100"/>
      <point x="501" y="-100" type="curve" smooth="yes"/>
      <point x="622" y="-100" type="line" smooth="yes"/>
      <point x="637" y="-100"/>
      <point x="649" y="-88"/>
      <point x="649" y="-73" type="curve" smooth="yes"/>
      <point x="649" y="673" type="line" smooth="yes"/>
      <point x="649" y="688"/>
      <point x="637" y="700"/>
      <point x="622" y="700" type="curve" smooth="yes"/>
      <point x="220" y="700" type="line" smooth="yes"/>
      <point x="111" y="700"/>
      <point x="23" y="612"/>
    </contour>
  </outline>
</glyph>
<glyph name="periodcentered" format="1">
  <advance width="330"/>
  <unicode hex="00B7"/>
  <outline>
    <contour>
      <point x="25" y="350" type="curve" name="hr00" smooth="yes"/>
      <point x="25" y="273"/>
      <point x="88" y="210"/>
      <point x="165" y="210" type="curve" smooth="yes"/>
      <point x="242" y="210"/>
      <point x="305" y="273"/>
      <point x="305" y="350" type="curve" smooth="yes"/>
      <point x="305" y="427"/>
      <point x="242" y="490"/>
      <point x="165" y="490" type="curve" smooth="yes"/>
      <point x="88" y="490"/>
      <point x="25" y="427"/>
    </contour>
  </outline>
</glyph>
<glyph name="ordmasculine" format="1">
  <advance width="350"/>
  <unicode hex="00BA"/>
  <outline>
    <contour>
      <point x="324" y="594" type="curve" name="hr00" smooth="yes"/>
      <point x="320" y="664"/>
      <point x="268" y="705"/>
      <point x="175" y="705" type="curve" smooth="yes"/>
      <point x="82" y="705"/>
      <point x="30" y="664"/>
      <point x="26" y="594" type="curve" smooth="yes"/>
      <point x="25" y="584"/>
      <point x="25" y="550"/>
      <point x="26" y="540" type="curve" smooth="yes"/>
      <point x="30" y="470"/>
      <point x="76" y="429"/>
      <point x="175" y="429" type="curve" smooth="yes"/>
      <point x="274" y="429"/>
      <point x="320" y="470"/>
      <point x="324" y="540" type="curve" smooth="yes"/>
      <point x="325" y="550"/>
      <point x="325" y="584"/>
    </contour>
    <contour>
      <point x="175" y="511" type="curve" smooth="yes"/>
      <point x="158" y="511"/>
      <point x="154" y="517"/>
      <point x="152" y="545" type="curve" smooth="yes"/>
      <point x="151" y="555"/>
      <point x="151" y="579"/>
      <point x="152" y="589" type="curve" smooth="yes"/>
      <point x="153" y="614"/>
      <point x="158" y="623"/>
      <point x="175" y="623" type="curve" smooth="yes"/>
      <point x="192" y="623"/>
      <point x="197" y="614"/>
      <point x="198" y="589" type="curve" smooth="yes"/>
      <point x="199" y="579"/>
      <point x="199" y="555"/>
      <point x="198" y="545" type="curve" smooth="yes"/>
      <point x="196" y="517"/>
      <point x="192" y="511"/>
    </contour>
  </outline>
</glyph>
<glyph name="questiondown" format="1">
  <advance width="649"/>
  <unicode hex="00BF"/>
  <outline>
    <contour>
      <point x="304" y="-190" type="curve" name="hr00" smooth="yes"/>
      <point x="526" y="-190"/>
      <point x="627" y="-65"/>
      <point x="627" y="36" type="curve"/>
      <point x="627" y="37" type="line"/>
      <point x="627" y="52"/>
      <point x="618" y="67"/>
      <point x="602" y="67" type="curve" smooth="yes"/>
      <point x="416" y="67" type="line" smooth="yes"/>
      <point x="365" y="67"/>
      <point x="393" y="5"/>
      <point x="322" y="5" type="curve" smooth="yes"/>
      <point x="302" y="5"/>
      <point x="288" y="17"/>
      <point x="288" y="37" type="curve" smooth="yes"/>
      <point x="288" y="85"/>
      <point x="414" y="148"/>
      <point x="443" y="241" type="curve" smooth="yes"/>
      <point x="444" y="244"/>
      <point x="444" y="246"/>
      <point x="444" y="249" type="curve" smooth="yes"/>
      <point x="444" y="258"/>
      <point x="435" y="267"/>
      <point x="425" y="267" type="curve" smooth="yes"/>
      <point x="211" y="267" type="line" smooth="yes"/>
      <point x="194" y="267"/>
      <point x="189" y="258"/>
      <point x="175" y="238" type="curve" smooth="yes"/>
      <point x="128" y="172"/>
      <point x="23" y="112"/>
      <point x="23" y="-3" type="curve" smooth="yes"/>
      <point x="23" y="-67"/>
      <point x="73" y="-190"/>
    </contour>
    <contour>
      <point x="415" y="307" type="line"/>
      <point x="430" y="307"/>
      <point x="442" y="319"/>
      <point x="442" y="334" type="curve" smooth="yes"/>
      <point x="442" y="493" type="line" smooth="yes"/>
      <point x="442" y="508"/>
      <point x="430" y="520"/>
      <point x="415" y="520" type="curve" smooth="yes"/>
      <point x="232" y="520" type="line" smooth="yes"/>
      <point x="217" y="520"/>
      <point x="205" y="508"/>
      <point x="205" y="493" type="curve" smooth="yes"/>
      <point x="205" y="334" type="line" smooth="yes"/>
      <point x="205" y="319"/>
      <point x="217" y="307"/>
      <point x="232" y="307" type="curve" smooth="yes"/>
    </contour>
  </outline>
</glyph>
<glyph name="AE" format="1">
  <advance width="1005"/>
  <unicode hex="00C6"/>
  <outline>
    <contour>
      <point x="273" y="700" type="line" smooth="yes"/>
      <point x="246" y="700"/>
      <point x="232" y="682"/>
      <point x="228" y="667" type="curve"/>
      <point x="5" y="29" type="line" smooth="yes"/>
      <point x="4" y="26"/>
      <point x="4" y="24"/>
      <point x="4" y="22" type="curve" smooth="yes"/>
      <point x="4" y="10"/>
      <point x="14" y="0"/>
      <point x="26" y="0" type="curve" smooth="yes"/>
      <point x="211" y="0" type="line" smooth="yes"/>
      <point x="237" y="0"/>
      <point x="246" y="14"/>
      <point x="250" y="25" type="curve" smooth="yes"/>
      <point x="274" y="91" type="line" name="hr01"/>
      <point x="423" y="91" type="line"/>
      <point x="423" y="27" type="line" smooth="yes"/>
      <point x="423" y="12"/>
      <point x="435" y="0"/>
      <point x="450" y="0" type="curve" name="hr02" smooth="yes"/>
      <point x="941" y="0" type="line" smooth="yes"/>
      <point x="956" y="0"/>
      <point x="968" y="12"/>
      <point x="968" y="27" type="curve" smooth="yes"/>
      <point x="968" y="168" type="line" smooth="yes"/>
      <point x="968" y="183"/>
      <point x="956" y="195"/>
      <point x="941" y="195" type="curve" smooth="yes"/>
      <point x="663" y="195" type="line"/>
      <point x="663" y="258" type="line"/>
      <point x="911" y="258" type="line" smooth="yes"/>
      <point x="926" y="258"/>
      <point x="938" y="270"/>
      <point x="938" y="285" type="curve" smooth="yes"/>
      <point x="938" y="415" type="line" smooth="yes"/>
      <point x="938" y="430"/>
      <point x="926" y="442"/>
      <point x="911" y="442" type="curve" smooth="yes"/>
      <point x="663" y="442" type="line"/>
      <point x="663" y="505" type="line"/>
      <point x="933" y="505" type="line" smooth="yes"/>
      <point x="948" y="505"/>
      <point x="960" y="517"/>
      <point x="960" y="532" type="curve" smooth="yes"/>
      <point x="960" y="673" type="line" smooth="yes"/>
      <point x="960" y="688"/>
      <point x="948" y="700"/>
      <point x="933" y="700" type="curve" smooth="yes"/>
    </contour>
    <contour>
      <point x="325" y="286" type="line" name="hr03"/>
      <point x="391" y="505" type="line"/>
      <point x="423" y="505" type="line"/>
      <point x="423" y="286" type="line"/>
    </contour>
  </outline>
</glyph>
<glyph name="Ccedilla" format="1">
  <advance width="733"/>
  <unicode hex="00C7"/>
  <outline>
    <contour>
      <point x="297" y="434" type="curve" name="hr00" smooth="yes"/>
      <point x="299" y="495"/>
      <point x="327" y="515"/>
      <point x="371" y="515" type="curve" smooth="yes"/>
      <point x="405" y="515"/>
      <point x="431" y="504"/>
      <point x="446" y="461" type="curve" smooth="yes"/>
      <point x="454" y="439"/>
      <point x="461" y="432"/>
      <point x="483" y="432" type="curve"/>
      <point x="687" y="432" type="line"/>
      <point x="699" y="432"/>
      <point x="709" y="442"/>
      <point x="709" y="454" type="curve" smooth="yes"/>
      <point x="706" y="636"/>
      <point x="542" y="710"/>
      <point x="372" y="710" type="curve" smooth="yes"/>
      <point x="185" y="710"/>
      <point x="45" y="625"/>
      <point x="37" y="439" type="curve" smooth="yes"/>
      <point x="35" y="382"/>
      <point x="35" y="315"/>
      <point x="37" y="261" type="curve" smooth="yes"/>
      <point x="44" y="91"/>
      <point x="151" y="10"/>
      <point x="309" y="-6" type="curve"/>
      <point x="289" y="-52" type="line"/>
      <point x="280" y="-71"/>
      <point x="282" y="-76"/>
      <point x="291" y="-85" type="curve"/>
      <point x="312" y="-106" type="line"/>
      <point x="325" y="-119"/>
      <point x="348" y="-106"/>
      <point x="366" y="-106" type="curve" smooth="yes"/>
      <point x="386" y="-106"/>
      <point x="394" y="-118"/>
      <point x="394" y="-130" type="curve" smooth="yes"/>
      <point x="394" y="-142"/>
      <point x="385" y="-154"/>
      <point x="366" y="-154" type="curve" smooth="yes"/>
      <point x="332" y="-154"/>
      <point x="327" y="-136"/>
      <point x="310" y="-151" type="curve"/>
      <point x="289" y="-169" type="line"/>
      <point x="266" y="-189"/>
      <point x="313" y="-220"/>
      <point x="366" y="-220" type="curve" smooth="yes"/>
      <point x="426" y="-220"/>
      <point x="465" y="-183"/>
      <point x="465" y="-130" type="curve" smooth="yes"/>
      <point x="465" y="-77"/>
      <point x="435" y="-40"/>
      <point x="384" y="-40" type="curve" smooth="yes"/>
      <point x="380" y="-40"/>
      <point x="362" y="-42"/>
      <point x="354" y="-45" type="curve"/>
      <point x="372" y="-10" type="line"/>
      <point x="542" y="-10"/>
      <point x="706" y="64"/>
      <point x="709" y="246" type="curve" smooth="yes"/>
      <point x="709" y="258"/>
      <point x="699" y="268"/>
      <point x="687" y="268" type="curve"/>
      <point x="483" y="268" type="line"/>
      <point x="461" y="268"/>
      <point x="453" y="262"/>
      <point x="446" y="239" type="curve" smooth="yes"/>
      <point x="433" y="199"/>
      <point x="405" y="185"/>
      <point x="371" y="185" type="curve" smooth="yes"/>
      <point x="327" y="185"/>
      <point x="299" y="205"/>
      <point x="297" y="266" type="curve" smooth="yes"/>
      <point x="295" y="323"/>
      <point x="295" y="379"/>
    </contour>
  </outline>
</glyph>
<glyph name="multiply" format="1">
  <advance width="639"/>
  <unicode hex="00D7"/>
  <outline>
    <contour>
      <point x="478" y="611" type="line" smooth="yes"/>
      <point x="467" y="621"/>
      <point x="451" y="621"/>
      <point x="440" y="611" type="curve" smooth="yes"/>
      <point x="320" y="491" type="line"/>
      <point x="199" y="612" type="line" smooth="yes"/>
      <point x="188" y="622"/>
      <point x="171" y="622"/>
      <point x="161" y="612" type="curve" smooth="yes"/>
      <point x="41" y="492" type="line" smooth="yes"/>
      <point x="31" y="481"/>
      <point x="31" y="465"/>
      <point x="41" y="454" type="curve" smooth="yes"/>
      <point x="162" y="333" type="line"/>
      <point x="41" y="212" type="line" smooth="yes"/>
      <point x="31" y="201"/>
      <point x="31" y="185"/>
      <point x="41" y="174" type="curve" smooth="yes"/>
      <point x="161" y="54" type="line" smooth="yes"/>
      <point x="171" y="44"/>
      <point x="188" y="44"/>
      <point x="199" y="54" type="curve" smooth="yes"/>
      <point x="320" y="175" type="line"/>
      <point x="440" y="55" type="line" smooth="yes"/>
      <point x="451" y="45"/>
      <point x="467" y="45"/>
      <point x="478" y="55" type="curve" smooth="yes"/>
      <point x="598" y="175" type="line" smooth="yes"/>
      <point x="608" y="185"/>
      <point x="608" y="202"/>
      <point x="598" y="213" type="curve" smooth="yes"/>
      <point x="478" y="333" type="line"/>
      <point x="598" y="453" type="line" smooth="yes"/>
      <point x="608" y="464"/>
      <point x="608" y="481"/>
      <point x="598" y="491" type="curve" smooth="yes"/>
    </contour>
  </outline>
</glyph>
<glyph name="Oslash" format="1">
  <advance width="780"/>
  <unicode hex="00D8"/>
  <outline>
    <contour>
      <point x="34" y="300" type="line" name="hr00"/>
      <point x="18" y="294"/>
      <point x="12" y="285"/>
      <point x="12" y="267" type="curve"/>
      <point x="12" y="159" type="line"/>
      <point x="12" y="147"/>
      <point x="21" y="138"/>
      <point x="33" y="138" type="curve" smooth="yes"/>
      <point x="35" y="138"/>
      <point x="39" y="139"/>
      <point x="44" y="141" type="curve"/>
      <point x="81" y="155" type="line"/>
      <point x="126" y="45"/>
      <point x="239" y="-10"/>
      <point x="393" y="-10" type="curve" smooth="yes"/>
      <point x="589" y="-10"/>
      <point x="719" y="81"/>
      <point x="727" y="260" type="curve"/>
      <point x="728" y="305"/>
      <point x="729" y="359"/>
      <point x="728" y="409" type="curve"/>
      <point x="748" y="417" type="line"/>
      <point x="764" y="423"/>
      <point x="770" y="432"/>
      <point x="770" y="450" type="curve"/>
      <point x="770" y="558" type="line"/>
      <point x="770" y="570"/>
      <point x="761" y="579"/>
      <point x="749" y="579" type="curve" smooth="yes"/>
      <point x="747" y="579"/>
      <point x="743" y="578"/>
      <point x="738" y="576" type="curve"/>
      <point x="696" y="559" type="line"/>
      <point x="645" y="656"/>
      <point x="536" y="710"/>
      <point x="393" y="710" type="curve" smooth="yes"/>
      <point x="197" y="710"/>
      <point x="66" y="611"/>
      <point x="59" y="436" type="curve" smooth="yes"/>
      <point x="57" y="395"/>
      <point x="57" y="351"/>
      <point x="57" y="309" type="curve"/>
    </contour>
    <contour>
      <point x="467" y="266" type="curve" smooth="yes"/>
      <point x="465" y="210"/>
      <point x="437" y="185"/>
      <point x="393" y="185" type="curve" smooth="yes"/>
      <point x="353" y="185"/>
      <point x="327" y="205"/>
      <point x="320" y="249" type="curve"/>
      <point x="468" y="307" type="line"/>
      <point x="468" y="293"/>
      <point x="467" y="280"/>
    </contour>
    <contour>
      <point x="319" y="434" type="curve"/>
      <point x="321" y="490"/>
      <point x="350" y="515"/>
      <point x="393" y="515" type="curve" smooth="yes"/>
      <point x="426" y="515"/>
      <point x="451" y="500"/>
      <point x="461" y="467" type="curve"/>
      <point x="318" y="411" type="line"/>
      <point x="318" y="418"/>
      <point x="318" y="426"/>
    </contour>
  </outline>
</glyph>
<glyph name="germandbls" format="1">
  <advance width="682"/>
  <unicode hex="00DF"/>
  <outline>
    <contour>
      <point x="277" y="27" type="curve" name="hr00"/>
      <point x="277" y="459" type="line" smooth="yes"/>
      <point x="277" y="518"/>
      <point x="301" y="541"/>
      <point x="340" y="541" type="curve"/>
      <point x="379" y="541"/>
      <point x="403" y="518"/>
      <point x="403" y="489" type="curve" smooth="yes"/>
      <point x="403" y="459"/>
      <point x="375" y="438"/>
      <point x="336" y="438" type="curve" smooth="yes"/>
      <point x="311" y="438"/>
      <point x="307" y="426"/>
      <point x="307" y="411" type="curve" smooth="yes"/>
      <point x="307" y="313" type="line" smooth="yes"/>
      <point x="307" y="298"/>
      <point x="315" y="286"/>
      <point x="336" y="286" type="curve" smooth="yes"/>
      <point x="383" y="287"/>
      <point x="409" y="263"/>
      <point x="409" y="227" type="curve" smooth="yes"/>
      <point x="409" y="190"/>
      <point x="379" y="167"/>
      <point x="340" y="168" type="curve" smooth="yes"/>
      <point x="319" y="169"/>
      <point x="307" y="156"/>
      <point x="307" y="141" type="curve" smooth="yes"/>
      <point x="307" y="27" type="line" smooth="yes"/>
      <point x="307" y="12"/>
      <point x="319" y="0"/>
      <point x="340" y="0" type="curve" smooth="yes"/>
      <point x="383" y="0"/>
      <point x="367" y="0"/>
      <point x="375" y="0" type="curve" smooth="yes"/>
      <point x="569" y="0"/>
      <point x="655" y="113"/>
      <point x="655" y="216" type="curve" smooth="yes"/>
      <point x="655" y="303"/>
      <point x="620" y="348"/>
      <point x="566" y="375" type="curve"/>
      <point x="607" y="407"/>
      <point x="625" y="447"/>
      <point x="625" y="502" type="curve" smooth="yes"/>
      <point x="625" y="608"/>
      <point x="546" y="709"/>
      <point x="340" y="710" type="curve"/>
      <point x="134" y="709"/>
      <point x="45" y="598"/>
      <point x="45" y="452" type="curve" smooth="yes"/>
      <point x="45" y="27" type="line" smooth="yes"/>
      <point x="45" y="12"/>
      <point x="57" y="0"/>
      <point x="72" y="0" type="curve" smooth="yes"/>
      <point x="250" y="0" type="line" smooth="yes"/>
      <point x="265" y="0"/>
      <point x="277" y="12"/>
    </contour>
  </outline>
</glyph>
<glyph name="ae" format="1">
  <advance width="935"/>
  <unicode hex="00E6"/>
  <outline>
    <contour>
      <point x="17" y="149" type="curve" smooth="yes"/>
      <point x="17" y="59"/>
      <point x="95" y="-10"/>
      <point x="231" y="-10" type="curve" smooth="yes"/>
      <point x="290" y="-10"/>
      <point x="367" y="-1"/>
      <point x="428" y="51" type="curve"/>
      <point x="476" y="11"/>
      <point x="544" y="-10"/>
      <point x="625" y="-10" type="curve" smooth="yes"/>
      <point x="810" y="-10"/>
      <point x="896" y="94"/>
      <point x="896" y="145" type="curve" smooth="yes"/>
      <point x="896" y="158"/>
      <point x="887" y="167"/>
      <point x="874" y="167" type="curve" name="hr01" smooth="yes"/>
      <point x="685" y="167" type="line" smooth="yes"/>
      <point x="669" y="167"/>
      <point x="664" y="165"/>
      <point x="652" y="153" type="curve" smooth="yes"/>
      <point x="641" y="142"/>
      <point x="635" y="135"/>
      <point x="623" y="135" type="curve" name="hr02" smooth="yes"/>
      <point x="594" y="135"/>
      <point x="584" y="156"/>
      <point x="584" y="196" type="curve" smooth="yes"/>
      <point x="584" y="201" type="line"/>
      <point x="882" y="201" type="line" smooth="yes"/>
      <point x="897" y="201"/>
      <point x="909" y="213"/>
      <point x="909" y="228" type="curve" smooth="yes"/>
      <point x="909" y="258" type="line" smooth="yes"/>
      <point x="909" y="405"/>
      <point x="820" y="530"/>
      <point x="624" y="530" type="curve" smooth="yes"/>
      <point x="565" y="530"/>
      <point x="514" y="516"/>
      <point x="471" y="493" type="curve"/>
      <point x="438" y="517"/>
      <point x="388" y="530"/>
      <point x="314" y="530" type="curve" smooth="yes"/>
      <point x="127" y="530"/>
      <point x="51" y="431"/>
      <point x="51" y="380" type="curve" smooth="yes"/>
      <point x="51" y="367"/>
      <point x="60" y="358"/>
      <point x="73" y="358" type="curve" smooth="yes"/>
      <point x="243" y="358" type="line" smooth="yes"/>
      <point x="275" y="358"/>
      <point x="278" y="390"/>
      <point x="312" y="390" type="curve" name="hr03" smooth="yes"/>
      <point x="340" y="390"/>
      <point x="342" y="375"/>
      <point x="342" y="339" type="curve"/>
      <point x="236" y="322" type="line"/>
      <point x="103" y="299"/>
      <point x="17" y="246"/>
    </contour>
    <contour>
      <point x="280" y="138" type="curve" smooth="yes"/>
      <point x="255" y="138"/>
      <point x="242" y="151"/>
      <point x="242" y="166" type="curve" smooth="yes"/>
      <point x="242" y="180"/>
      <point x="251" y="195"/>
      <point x="286" y="203" type="curve" smooth="yes"/>
      <point x="345" y="216" type="line"/>
      <point x="345" y="162"/>
      <point x="319" y="138"/>
    </contour>
    <contour>
      <point x="624" y="390" type="curve" smooth="yes"/>
      <point x="649" y="390"/>
      <point x="664" y="371"/>
      <point x="664" y="330" type="curve" smooth="yes"/>
      <point x="664" y="326" type="line"/>
      <point x="584" y="326" type="line"/>
      <point x="584" y="330" type="line" smooth="yes"/>
      <point x="584" y="371"/>
      <point x="598" y="390"/>
    </contour>
  </outline>
</glyph>
<glyph name="ccedilla" format="1">
  <advance width="622"/>
  <unicode hex="00E7"/>
  <outline>
    <contour>
      <point x="275" y="295" type="curve" smooth="yes"/>
      <point x="276" y="335"/>
      <point x="284" y="359"/>
      <point x="315" y="359" type="curve" smooth="yes"/>
      <point x="335" y="359"/>
      <point x="343" y="348"/>
      <point x="352" y="329" type="curve" smooth="yes"/>
      <point x="358" y="317"/>
      <point x="366" y="309"/>
      <point x="381" y="309" type="curve" name="hr01"/>
      <point x="576" y="309" type="line"/>
      <point x="591" y="309"/>
      <point x="604" y="321"/>
      <point x="603" y="336" type="curve" smooth="yes"/>
      <point x="600" y="389"/>
      <point x="521" y="530"/>
      <point x="310" y="530" type="curve" smooth="yes"/>
      <point x="157" y="530"/>
      <point x="37" y="448"/>
      <point x="30" y="300" type="curve" smooth="yes"/>
      <point x="29" y="277"/>
      <point x="29" y="240"/>
      <point x="30" y="219" type="curve" smooth="yes"/>
      <point x="37" y="89"/>
      <point x="129" y="11"/>
      <point x="254" y="-6" type="curve"/>
      <point x="234" y="-52" type="line"/>
      <point x="225" y="-71"/>
      <point x="227" y="-76"/>
      <point x="236" y="-85" type="curve"/>
      <point x="257" y="-106" type="line"/>
      <point x="270" y="-119"/>
      <point x="293" y="-106"/>
      <point x="311" y="-106" type="curve" smooth="yes"/>
      <point x="331" y="-106"/>
      <point x="339" y="-118"/>
      <point x="339" y="-130" type="curve" smooth="yes"/>
      <point x="339" y="-142"/>
      <point x="330" y="-154"/>
      <point x="311" y="-154" type="curve" smooth="yes"/>
      <point x="277" y="-154"/>
      <point x="272" y="-136"/>
      <point x="255" y="-151" type="curve"/>
      <point x="234" y="-169" type="line"/>
      <point x="211" y="-189"/>
      <point x="258" y="-220"/>
      <point x="311" y="-220" type="curve" smooth="yes"/>
      <point x="371" y="-220"/>
      <point x="410" y="-183"/>
      <point x="410" y="-130" type="curve" smooth="yes"/>
      <point x="410" y="-77"/>
      <point x="380" y="-40"/>
      <point x="329" y="-40" type="curve" smooth="yes"/>
      <point x="325" y="-40"/>
      <point x="307" y="-42"/>
      <point x="299" y="-45" type="curve"/>
      <point x="317" y="-10" type="line"/>
      <point x="532" y="-7"/>
      <point x="600" y="141"/>
      <point x="603" y="184" type="curve" smooth="yes"/>
      <point x="604" y="199"/>
      <point x="591" y="211"/>
      <point x="576" y="211" type="curve"/>
      <point x="381" y="211" type="line"/>
      <point x="366" y="211"/>
      <point x="357" y="203"/>
      <point x="352" y="191" type="curve" smooth="yes"/>
      <point x="344" y="172"/>
      <point x="339" y="161"/>
      <point x="315" y="161" type="curve" name="hr02" smooth="yes"/>
      <point x="284" y="161"/>
      <point x="277" y="181"/>
      <point x="275" y="224" type="curve" smooth="yes"/>
      <point x="274" y="243"/>
      <point x="274" y="266"/>
    </contour>
  </outline>
</glyph>
<glyph name="eth" format="1">
  <advance width="638"/>
  <unicode hex="00F0"/>
  <outline>
    <contour>
      <point x="606" y="225" type="curve" smooth="yes"/>
      <point x="607" y="245"/>
      <point x="607" y="268"/>
      <point x="606" y="288" type="curve" smooth="yes"/>
      <point x="599" y="424"/>
      <point x="560" y="524"/>
      <point x="498" y="601" type="curve"/>
      <point x="539" y="617" type="line"/>
      <point x="555" y="623"/>
      <point x="561" y="632"/>
      <point x="561" y="650" type="curve"/>
      <point x="561" y="678" type="line"/>
      <point x="561" y="690"/>
      <point x="552" y="699"/>
      <point x="540" y="699" type="curve" smooth="yes"/>
      <point x="538" y="699"/>
      <point x="534" y="698"/>
      <point x="529" y="696" type="curve"/>
      <point x="439" y="661" type="line"/>
      <point x="429" y="670"/>
      <point x="417" y="678"/>
      <point x="406" y="687" type="curve" smooth="yes"/>
      <point x="396" y="694"/>
      <point x="380" y="700"/>
      <point x="353" y="700" type="curve" name="hr01"/>
      <point x="165" y="700" type="line"/>
      <point x="153" y="700"/>
      <point x="143" y="690"/>
      <point x="143" y="678" type="curve" smooth="yes"/>
      <point x="143" y="673"/>
      <point x="147" y="665"/>
      <point x="156" y="659" type="curve" smooth="yes"/>
      <point x="188" y="637"/>
      <point x="219" y="613"/>
      <point x="246" y="586" type="curve"/>
      <point x="172" y="557" type="line"/>
      <point x="156" y="551"/>
      <point x="150" y="542"/>
      <point x="150" y="524" type="curve"/>
      <point x="150" y="496" type="line"/>
      <point x="150" y="484"/>
      <point x="159" y="475"/>
      <point x="171" y="475" type="curve" smooth="yes"/>
      <point x="173" y="475"/>
      <point x="177" y="476"/>
      <point x="182" y="478" type="curve"/>
      <point x="300" y="524" type="line"/>
      <point x="312" y="506"/>
      <point x="322" y="488"/>
      <point x="330" y="470" type="curve"/>
      <point x="316" y="470" type="line"/>
      <point x="153" y="470"/>
      <point x="26" y="392"/>
      <point x="26" y="230" type="curve" smooth="yes"/>
      <point x="26" y="68"/>
      <point x="142" y="-10"/>
      <point x="316" y="-10" type="curve" smooth="yes"/>
      <point x="489" y="-10"/>
      <point x="597" y="68"/>
    </contour>
    <contour>
      <point x="271" y="204" type="curve" smooth="yes"/>
      <point x="270" y="224"/>
      <point x="270" y="236"/>
      <point x="271" y="256" type="curve" smooth="yes"/>
      <point x="273" y="288"/>
      <point x="279" y="310"/>
      <point x="316" y="310" type="curve" smooth="yes"/>
      <point x="353" y="310"/>
      <point x="359" y="288"/>
      <point x="361" y="256" type="curve" smooth="yes"/>
      <point x="362" y="236"/>
      <point x="362" y="223"/>
      <point x="361" y="203" type="curve" smooth="yes"/>
      <point x="360" y="171"/>
      <point x="350" y="150"/>
      <point x="316" y="150" type="curve" smooth="yes"/>
      <point x="279" y="150"/>
      <point x="272" y="171"/>
    </contour>
  </outline>
</glyph>
<glyph name="oslash" format="1">
  <advance width="667"/>
  <unicode hex="00F8"/>
  <outline>
    <contour>
      <point x="335" y="530" type="curve" name="hr00" smooth="yes"/>
      <point x="162" y="530"/>
      <point x="55" y="454"/>
      <point x="45" y="307" type="curve" smooth="yes"/>
      <point x="43" y="277"/>
      <point x="43" y="244"/>
      <point x="45" y="214" type="curve"/>
      <point x="30" y="209" type="line"/>
      <point x="14" y="203"/>
      <point x="8" y="194"/>
      <point x="8" y="176" type="curve"/>
      <point x="8" y="108" type="line"/>
      <point x="8" y="96"/>
      <point x="17" y="87"/>
      <point x="29" y="87" type="curve" smooth="yes"/>
      <point x="31" y="87"/>
      <point x="35" y="88"/>
      <point x="40" y="90" type="curve"/>
      <point x="75" y="103" type="line"/>
      <point x="118" y="28"/>
      <point x="204" y="-10"/>
      <point x="335" y="-10" type="curve" smooth="yes"/>
      <point x="519" y="-10"/>
      <point x="615" y="66"/>
      <point x="625" y="213" type="curve" smooth="yes"/>
      <point x="627" y="243"/>
      <point x="627" y="285"/>
      <point x="624" y="316" type="curve"/>
      <point x="636" y="321" type="line"/>
      <point x="652" y="327"/>
      <point x="658" y="336"/>
      <point x="658" y="354" type="curve"/>
      <point x="658" y="422" type="line"/>
      <point x="658" y="434"/>
      <point x="649" y="443"/>
      <point x="637" y="443" type="curve" smooth="yes"/>
      <point x="635" y="443"/>
      <point x="631" y="442"/>
      <point x="626" y="440" type="curve"/>
      <point x="589" y="425" type="line"/>
      <point x="543" y="496"/>
      <point x="457" y="530"/>
    </contour>
    <contour>
      <point x="335" y="150" type="curve" smooth="yes"/>
      <point x="306" y="150"/>
      <point x="297" y="162"/>
      <point x="293" y="188" type="curve"/>
      <point x="380" y="222" type="line"/>
      <point x="380" y="218" type="line"/>
      <point x="377" y="171"/>
      <point x="373" y="150"/>
    </contour>
    <contour>
      <point x="335" y="370" type="curve" smooth="yes"/>
      <point x="359" y="370"/>
      <point x="369" y="360"/>
      <point x="374" y="342" type="curve"/>
      <point x="290" y="309" type="line"/>
      <point x="293" y="348"/>
      <point x="299" y="370"/>
    </contour>
  </outline>
</glyph>
<glyph name="thorn" format="1">
  <advance width="662"/>
  <unicode hex="00FE"/>
  <outline>
    <contour>
      <point x="418" y="-10" type="curve" name="hr00" smooth="yes"/>
      <point x="534" y="-10"/>
      <point x="624" y="63"/>
      <point x="630" y="220" type="curve" smooth="yes"/>
      <point x="631" y="250"/>
      <point x="631" y="269"/>
      <point x="630" y="299" type="curve" smooth="yes"/>
      <point x="623" y="466"/>
      <point x="534" y="530"/>
      <point x="418" y="530" type="curve" smooth="yes"/>
      <point x="349" y="530"/>
      <point x="315" y="512"/>
      <point x="285" y="473" type="curve"/>
      <point x="285" y="683" type="line" smooth="yes"/>
      <point x="285" y="698"/>
      <point x="273" y="710"/>
      <point x="258" y="710" type="curve" smooth="yes"/>
      <point x="73" y="710" type="line" smooth="yes"/>
      <point x="58" y="710"/>
      <point x="46" y="698"/>
      <point x="46" y="683" type="curve" smooth="yes"/>
      <point x="46" y="-163" type="line" smooth="yes"/>
      <point x="46" y="-178"/>
      <point x="58" y="-190"/>
      <point x="73" y="-190" type="curve" smooth="yes"/>
      <point x="258" y="-190" type="line" smooth="yes"/>
      <point x="273" y="-190"/>
      <point x="285" y="-178"/>
      <point x="285" y="-163" type="curve" smooth="yes"/>
      <point x="285" y="50" type="line"/>
      <point x="315" y="7"/>
      <point x="362" y="-10"/>
    </contour>
    <contour>
      <point x="385" y="227" type="curve" smooth="yes"/>
      <point x="381" y="191"/>
      <point x="372" y="169"/>
      <point x="335" y="169" type="curve" smooth="yes"/>
      <point x="301" y="169"/>
      <point x="287" y="187"/>
      <point x="285" y="219" type="curve" smooth="yes"/>
      <point x="283" y="249"/>
      <point x="283" y="263"/>
      <point x="285" y="293" type="curve" smooth="yes"/>
      <point x="287" y="329"/>
      <point x="298" y="351"/>
      <point x="335" y="351" type="curve" smooth="yes"/>
      <point x="372" y="351"/>
      <point x="381" y="329"/>
      <point x="385" y="293" type="curve" smooth="yes"/>
      <point x="387" y="273"/>
      <point x="387" y="247"/>
    </contour>
  </outline>
</glyph>
<glyph name="Aogonek" format="1">
  <advance width="755"/>
  <unicode hex="0104"/>
  <outline>
    <contour>
      <point x="269" y="700" type="line" smooth="yes"/>
      <point x="242" y="700"/>
      <point x="228" y="682"/>
      <point x="224" y="667" type="curve"/>
      <point x="1" y="29" type="line" smooth="yes"/>
      <point x="0" y="26"/>
      <point x="0" y="24"/>
      <point x="0" y="22" type="curve" smooth="yes"/>
      <point x="0" y="10"/>
      <point x="10" y="0"/>
      <point x="22" y="0" type="curve" smooth="yes"/>
      <point x="207" y="0" type="line" smooth="yes"/>
      <point x="233" y="0"/>
      <point x="242" y="14"/>
      <point x="246" y="25" type="curve" smooth="yes"/>
      <point x="270" y="91" type="line"/>
      <point x="485" y="91" type="line"/>
      <point x="509" y="25" type="line" smooth="yes"/>
      <point x="512" y="15"/>
      <point x="519" y="3"/>
      <point x="537" y="0" type="curve"/>
      <point x="534" y="-15"/>
      <point x="532" y="-31"/>
      <point x="532" y="-49" type="curve" smooth="yes"/>
      <point x="532" y="-144"/>
      <point x="583" y="-220"/>
      <point x="704" y="-220" type="curve" smooth="yes"/>
      <point x="718" y="-220" type="line" smooth="yes"/>
      <point x="733" y="-220"/>
      <point x="745" y="-208"/>
      <point x="745" y="-193" type="curve" smooth="yes"/>
      <point x="745" y="-125" type="line" smooth="yes"/>
      <point x="745" y="-110"/>
      <point x="733" y="-98"/>
      <point x="718" y="-98" type="curve" smooth="yes"/>
      <point x="708" y="-98" type="line" smooth="yes"/>
      <point x="669" y="-98"/>
      <point x="658" y="-70"/>
      <point x="658" y="-49" type="curve" name="hr01" smooth="yes"/>
      <point x="658" y="-29"/>
      <point x="668" y="-2"/>
      <point x="702" y="0" type="curve"/>
      <point x="733" y="0" type="line" smooth="yes"/>
      <point x="745" y="0"/>
      <point x="755" y="10"/>
      <point x="755" y="22" type="curve" smooth="yes"/>
      <point x="755" y="24"/>
      <point x="755" y="26"/>
      <point x="754" y="29" type="curve" smooth="yes"/>
      <point x="531" y="667" type="line"/>
      <point x="527" y="682"/>
      <point x="513" y="700"/>
      <point x="486" y="700" type="curve" smooth="yes"/>
    </contour>
    <contour>
      <point x="321" y="286" type="line"/>
      <point x="377" y="472" type="line"/>
      <point x="434" y="286" type="line"/>
    </contour>
  </outline>
</glyph>
<glyph name="Dcroat" format="1">
  <advance width="764"/>
  <unicode hex="0110"/>
  <outline>
    <contour>
      <point x="394" y="700" type="curve" name="hr00"/>
      <point x="106" y="700" type="line" smooth="yes"/>
      <point x="91" y="700"/>
      <point x="79" y="688"/>
      <point x="79" y="673" type="curve" smooth="yes"/>
      <point x="79" y="430" type="line"/>
      <point x="41" y="430" type="line" smooth="yes"/>
      <point x="26" y="430"/>
      <point x="14" y="418"/>
      <point x="14" y="403" type="curve" smooth="yes"/>
      <point x="14" y="302" type="line" smooth="yes"/>
      <point x="14" y="287"/>
      <point x="26" y="275"/>
      <point x="41" y="275" type="curve" smooth="yes"/>
      <point x="79" y="275" type="line"/>
      <point x="79" y="27" type="line" smooth="yes"/>
      <point x="79" y="12"/>
      <point x="91" y="0"/>
      <point x="106" y="0" type="curve" smooth="yes"/>
      <point x="395" y="0" type="line" smooth="yes"/>
      <point x="586" y="0"/>
      <point x="720" y="87"/>
      <point x="728" y="276" type="curve" smooth="yes"/>
      <point x="730" y="330"/>
      <point x="730" y="368"/>
      <point x="728" y="425" type="curve" smooth="yes"/>
      <point x="721" y="604"/>
      <point x="581" y="700"/>
    </contour>
    <contour>
      <point x="474" y="425" type="curve" smooth="yes"/>
      <point x="477" y="370"/>
      <point x="477" y="333"/>
      <point x="474" y="276" type="curve" smooth="yes"/>
      <point x="471" y="220"/>
      <point x="438" y="195"/>
      <point x="394" y="195" type="curve" smooth="yes"/>
      <point x="329" y="195" type="line"/>
      <point x="329" y="275" type="line"/>
      <point x="385" y="275" type="line" smooth="yes"/>
      <point x="400" y="275"/>
      <point x="412" y="287"/>
      <point x="412" y="302" type="curve" smooth="yes"/>
      <point x="412" y="403" type="line" smooth="yes"/>
      <point x="412" y="418"/>
      <point x="400" y="430"/>
      <point x="385" y="430" type="curve" smooth="yes"/>
      <point x="329" y="430" type="line"/>
      <point x="329" y="505" type="line"/>
      <point x="394" y="505" type="line" smooth="yes"/>
      <point x="439" y="505"/>
      <point x="471" y="481"/>
    </contour>
  </outline>
</glyph>
<glyph name="Eogonek" format="1">
  <advance width="667"/>
  <unicode hex="0118"/>
  <outline>
    <contour>
      <point x="603" y="-98" type="line" smooth="yes"/>
      <point x="618" y="-98"/>
      <point x="630" y="-110"/>
      <point x="630" y="-125" type="curve" smooth="yes"/>
      <point x="630" y="-193" type="line" smooth="yes"/>
      <point x="630" y="-208"/>
      <point x="618" y="-220"/>
      <point x="603" y="-220" type="curve" smooth="yes"/>
      <point x="589" y="-220" type="line" name="hr01" smooth="yes"/>
      <point x="468" y="-220"/>
      <point x="417" y="-144"/>
      <point x="417" y="-49" type="curve" smooth="yes"/>
      <point x="417" y="-31"/>
      <point x="419" y="-16"/>
      <point x="422" y="0" type="curve"/>
      <point x="82" y="0" type="line" smooth="yes"/>
      <point x="67" y="0"/>
      <point x="55" y="12"/>
      <point x="55" y="27" type="curve" smooth="yes"/>
      <point x="55" y="673" type="line" smooth="yes"/>
      <point x="55" y="688"/>
      <point x="67" y="700"/>
      <point x="82" y="700" type="curve" smooth="yes"/>
      <point x="595" y="700" type="line" smooth="yes"/>
      <point x="610" y="700"/>
      <point x="622" y="688"/>
      <point x="622" y="673" type="curve" smooth="yes"/>
      <point x="622" y="532" type="line" smooth="yes"/>
      <point x="622" y="517"/>
      <point x="610" y="505"/>
      <point x="595" y="505" type="curve" smooth="yes"/>
      <point x="295" y="505" type="line"/>
      <point x="295" y="442" type="line"/>
      <point x="573" y="442" type="line" smooth="yes"/>
      <point x="588" y="442"/>
      <point x="600" y="430"/>
      <point x="600" y="415" type="curve" smooth="yes"/>
      <point x="600" y="285" type="line" smooth="yes"/>
      <point x="600" y="270"/>
      <point x="588" y="258"/>
      <point x="573" y="258" type="curve" smooth="yes"/>
      <point x="295" y="258" type="line"/>
      <point x="295" y="195" type="line"/>
      <point x="603" y="195" type="line" smooth="yes"/>
      <point x="618" y="195"/>
      <point x="630" y="183"/>
      <point x="630" y="168" type="curve" smooth="yes"/>
      <point x="630" y="27" type="line" smooth="yes"/>
      <point x="630" y="12"/>
      <point x="618" y="0"/>
      <point x="603" y="0" type="curve" smooth="yes"/>
      <point x="593" y="0" type="line" smooth="yes"/>
      <point x="554" y="0"/>
      <point x="543" y="-28"/>
      <point x="543" y="-49" type="curve" smooth="yes"/>
      <point x="543" y="-70"/>
      <point x="554" y="-98"/>
      <point x="593" y="-98" type="curve" smooth="yes"/>
    </contour>
  </outline>
</glyph>
<glyph name="eogonek" format="1">
  <advance width="623"/>
  <unicode hex="0119"/>
  <outline>
    <contour>
      <point x="382" y="-98" type="curve"/>
      <point x="372" y="-98" type="line"/>
      <point x="333" y="-98"/>
      <point x="322" y="-70"/>
      <point x="322" y="-49" type="curve" smooth="yes"/>
      <point x="322" y="-28"/>
      <point x="338" y="-12"/>
      <point x="380" y="-5" type="curve"/>
      <point x="519" y="15"/>
      <point x="582" y="100"/>
      <point x="585" y="145" type="curve" smooth="yes"/>
      <point x="586" y="158"/>
      <point x="576" y="167"/>
      <point x="563" y="167" type="curve"/>
      <point x="374" y="167" type="line"/>
      <point x="358" y="167"/>
      <point x="353" y="165"/>
      <point x="341" y="153" type="curve" smooth="yes"/>
      <point x="330" y="142"/>
      <point x="324" y="135"/>
      <point x="312" y="135" type="curve" smooth="yes"/>
      <point x="283" y="135"/>
      <point x="273" y="156"/>
      <point x="273" y="196" type="curve" name="hr01"/>
      <point x="273" y="201" type="line"/>
      <point x="571" y="201" type="line"/>
      <point x="586" y="201"/>
      <point x="598" y="213"/>
      <point x="598" y="228" type="curve"/>
      <point x="598" y="258" type="line"/>
      <point x="598" y="405"/>
      <point x="509" y="530"/>
      <point x="313" y="530" type="curve" smooth="yes"/>
      <point x="140" y="530"/>
      <point x="28" y="435"/>
      <point x="28" y="259" type="curve" smooth="yes"/>
      <point x="28" y="116"/>
      <point x="93" y="34"/>
      <point x="202" y="3" type="curve"/>
      <point x="198" y="-13"/>
      <point x="196" y="-30"/>
      <point x="196" y="-49" type="curve" name="hr02" smooth="yes"/>
      <point x="196" y="-144"/>
      <point x="247" y="-220"/>
      <point x="368" y="-220" type="curve"/>
      <point x="382" y="-220" type="line"/>
      <point x="397" y="-220"/>
      <point x="409" y="-208"/>
      <point x="409" y="-193" type="curve"/>
      <point x="409" y="-125" type="line"/>
      <point x="409" y="-110"/>
      <point x="397" y="-98"/>
    </contour>
    <contour>
      <point x="313" y="390" type="curve" smooth="yes"/>
      <point x="339" y="390"/>
      <point x="353" y="371"/>
      <point x="353" y="326" type="curve"/>
      <point x="273" y="326" type="line" name="hr03"/>
      <point x="273" y="371"/>
      <point x="287" y="390"/>
    </contour>
  </outline>
</glyph>
<glyph name="hbar" format="1">
  <advance width="686"/>
  <unicode hex="0127"/>
  <outline>
    <contour>
      <point x="295" y="296" type="line" smooth="yes"/>
      <point x="295" y="332"/>
      <point x="314" y="351"/>
      <point x="346" y="351" type="curve" smooth="yes"/>
      <point x="378" y="351"/>
      <point x="396" y="332"/>
      <point x="396" y="296" type="curve" smooth="yes"/>
      <point x="396" y="28" type="line" smooth="yes"/>
      <point x="396" y="13"/>
      <point x="408" y="1"/>
      <point x="423" y="1" type="curve" smooth="yes"/>
      <point x="619" y="1" type="line" smooth="yes"/>
      <point x="634" y="1"/>
      <point x="646" y="13"/>
      <point x="646" y="28" type="curve" smooth="yes"/>
      <point x="646" y="303" type="line" smooth="yes"/>
      <point x="646" y="461"/>
      <point x="548" y="530"/>
      <point x="447" y="530" type="curve" smooth="yes"/>
      <point x="385" y="530"/>
      <point x="330" y="506"/>
      <point x="295" y="468" type="curve"/>
      <point x="295" y="538" type="line"/>
      <point x="319" y="538" type="line" smooth="yes"/>
      <point x="334" y="538"/>
      <point x="346" y="550"/>
      <point x="346" y="565" type="curve" smooth="yes"/>
      <point x="346" y="616" type="line" smooth="yes"/>
      <point x="346" y="631"/>
      <point x="334" y="643"/>
      <point x="319" y="643" type="curve" smooth="yes"/>
      <point x="295" y="643" type="line"/>
      <point x="295" y="683" type="line" smooth="yes"/>
      <point x="295" y="698"/>
      <point x="283" y="710"/>
      <point x="268" y="710" type="curve" smooth="yes"/>
      <point x="73" y="710" type="line" smooth="yes"/>
      <point x="58" y="710"/>
      <point x="46" y="698"/>
      <point x="46" y="683" type="curve" smooth="yes"/>
      <point x="46" y="643" type="line"/>
      <point x="20" y="643" type="line" smooth="yes"/>
      <point x="5" y="643"/>
      <point x="-7" y="631"/>
      <point x="-7" y="616" type="curve" smooth="yes"/>
      <point x="-7" y="565" type="line" smooth="yes"/>
      <point x="-7" y="550"/>
      <point x="5" y="538"/>
      <point x="20" y="538" type="curve" smooth="yes"/>
      <point x="46" y="538" type="line"/>
      <point x="46" y="27" type="line" smooth="yes"/>
      <point x="46" y="12"/>
      <point x="58" y="0"/>
      <point x="73" y="0" type="curve" name="hr01" smooth="yes"/>
      <point x="268" y="0" type="line" smooth="yes"/>
      <point x="283" y="0"/>
      <point x="295" y="12"/>
      <point x="295" y="27" type="curve" smooth="yes"/>
    </contour>
  </outline>
</glyph>
